FW_Gmkhi_028_transform.ufo
<glyph name="exclam" format="1">
  <advance width="469"/>
  <unicode hex="0021"/>
  <outline>
    <contour>
      <point x="207" y="508" type="line"/>
      <point x="207" y="427" type="line"/>
      <point x="214" y="179" type="line"/>
      <point x="231" y="179" type="line"/>
      <point x="236" y="427" type="line"/>
      <point x="236" y="508" type="line"/>
    </contour>
    <component base="period.001" xOffset="6"/>
  </outline>
</glyph>
<glyph name="quotedbl" format="1">
  <advance width="498"/>
  <unicode hex="0022"/>
  <outline>
    <contour>
      <point x="308" y="913" type="line"/>
      <point x="328" y="913" type="line"/>
      <point x="406" y="1179" type="line"/>
      <point x="406" y="1181" type="line"/>
      <point x="366" y="1181" type="line"/>
    </contour>
    <contour>
      <point x="98" y="913" type="line"/>
      <point x="118" y="913" type="line"/>
      <point x="197" y="1179" type="line"/>
      <point x="197" y="1181" type="line"/>
      <point x="156" y="1181" type="line"/>
    </contour>
  </outline>
</glyph>
<glyph name="percent" format="1">
  <advance width="1301"/>
  <unicode hex="0025"/>
  <outline>
    <contour>
      <point x="458" y="359"/>
      <point x="596" y="473"/>
      <point x="596" y="548" type="qcurve" smooth="yes"/>
      <point x="596" y="550" type="line" smooth="yes"/>
      <point x="596" y="624"/>
      <point x="458" y="739"/>
      <point x="342" y="739" type="qcurve" smooth="yes"/>
      <point x="229" y="739"/>
      <point x="89" y="624"/>
      <point x="89" y="550" type="qcurve" smooth="yes"/>
      <point x="89" y="548" type="line" smooth="yes"/>
      <point x="89" y="473"/>
      <point x="229" y="359"/>
      <point x="342" y="359" type="qcurve" smooth="yes"/>
    </contour>
    <contour>
      <point x="441" y="719"/>
      <point x="560" y="614"/>
      <point x="560" y="549" type="qcurve" smooth="yes"/>
      <point x="560" y="547" type="line"/>
      <point x="560" y="481"/>
      <point x="444" y="380"/>
      <point x="344" y="380" type="qcurve" smooth="yes"/>
      <point x="245" y="380"/>
      <point x="125" y="483"/>
      <point x="125" y="549" type="qcurve" smooth="yes"/>
      <point x="125" y="551" type="line" smooth="yes"/>
      <point x="125" y="616"/>
      <point x="242" y="719"/>
      <point x="341" y="719" type="qcurve" smooth="yes"/>
    </contour>
    <contour>
      <point x="638" y="366" type="line"/>
      <point x="211" y="-8" type="line"/>
      <point x="247" y="-8" type="line"/>
      <point x="658" y="353" type="line"/>
      <point x="1090" y="731" type="line"/>
      <point x="1054" y="731" type="line"/>
    </contour>
    <contour>
      <point x="1074" y="-16"/>
      <point x="1213" y="98"/>
      <point x="1213" y="172" type="qcurve" smooth="yes"/>
      <point x="1213" y="175" type="line" smooth="yes"/>
      <point x="1213" y="249"/>
      <point x="1074" y="364"/>
      <point x="958" y="364" type="qcurve" smooth="yes"/>
      <point x="845" y="364"/>
      <point x="705" y="249"/>
      <point x="705" y="175" type="qcurve" smooth="yes"/>
      <point x="705" y="172" type="line" smooth="yes"/>
      <point x="705" y="98"/>
      <point x="845" y="-16"/>
      <point x="958" y="-16" type="qcurve" smooth="yes"/>
    </contour>
    <contour>
      <point x="861" y="4"/>
      <point x="741" y="107"/>
      <point x="741" y="174" type="qcurve" smooth="yes"/>
      <point x="741" y="176" type="line" smooth="yes"/>
      <point x="741" y="241"/>
      <point x="858" y="343"/>
      <point x="957" y="343" type="qcurve" smooth="yes"/>
      <point x="1057" y="343"/>
      <point x="1176" y="239"/>
      <point x="1176" y="174" type="qcurve" smooth="yes"/>
      <point x="1176" y="171" type="line" smooth="yes"/>
      <point x="1176" y="105"/>
      <point x="1060" y="4"/>
      <point x="960" y="4" type="qcurve" smooth="yes"/>
    </contour>
  </outline>
</glyph>
<glyph name="ampersand" format="1">
  <advance width="1110"/>
  <unicode hex="0026"/>
  <outline>
    <contour>
      <point x="794" y="37"/>
      <point x="594" y="14"/>
      <point x="526" y="16" type="qcurve" smooth="yes"/>
      <point x="405" y="19"/>
      <point x="283" y="99"/>
      <point x="283" y="140" type="qcurve" smooth="yes"/>
      <point x="283" y="177"/>
      <point x="395" y="251"/>
      <point x="509" y="260" type="qcurve"/>
      <point x="974" y="260" type="line"/>
      <point x="974" y="278" type="line"/>
      <point x="503" y="278" type="line"/>
      <point x="409" y="282"/>
      <point x="299" y="364"/>
      <point x="299" y="393" type="qcurve" smooth="yes"/>
      <point x="299" y="439"/>
      <point x="410" y="503"/>
      <point x="527" y="503" type="qcurve" smooth="yes"/>
      <point x="580" y="503"/>
      <point x="739" y="484"/>
      <point x="807" y="465" type="qcurve"/>
      <point x="822" y="482" type="line"/>
      <point x="756" y="500"/>
      <point x="583" y="521"/>
      <point x="524" y="521" type="qcurve" smooth="yes"/>
      <point x="398" y="521"/>
      <point x="270" y="449"/>
      <point x="270" y="397" type="qcurve" smooth="yes"/>
      <point x="270" y="362"/>
      <point x="377" y="273"/>
      <point x="471" y="265" type="qcurve"/>
      <point x="471" y="271" type="line"/>
      <point x="359" y="257"/>
      <point x="254" y="178"/>
      <point x="254" y="138" type="qcurve" smooth="yes"/>
      <point x="254" y="92"/>
      <point x="394" y="-1"/>
      <point x="534" y="-2" type="qcurve" smooth="yes"/>
      <point x="609" y="-2"/>
      <point x="802" y="21"/>
      <point x="849" y="39" type="qcurve"/>
      <point x="849" y="35"/>
      <point x="850" y="65"/>
      <point x="850" y="61" type="qcurve"/>
    </contour>
    <contour>
      <point x="850" y="44" type="line"/>
      <point x="850" y="276" type="line"/>
      <point x="822" y="276" type="line"/>
      <point x="822" y="33" type="line"/>
    </contour>
  </outline>
</glyph>
<glyph name="quotesingle" format="1">
  <advance width="288.0"/>
  <unicode hex="0027"/>
  <outline>
    <contour>
      <point x="98" y="913" type="line"/>
      <point x="118" y="913" type="line"/>
      <point x="197" y="1179" type="line"/>
      <point x="197" y="1181" type="line"/>
      <point x="156" y="1181" type="line"/>
    </contour>
  </outline>
</glyph>
<glyph name="parenleft" format="1">
  <advance width="539"/>
  <unicode hex="0028"/>
  <outline>
    <contour>
      <point x="447" y="-306" type="line"/>
      <point x="302" y="-229"/>
      <point x="146" y="-44"/>
      <point x="146" y="109" type="qcurve" smooth="yes"/>
      <point x="146" y="250"/>
      <point x="302" y="450"/>
      <point x="447" y="524" type="qcurve"/>
      <point x="432" y="536" type="line"/>
      <point x="268" y="451"/>
      <point x="118" y="240"/>
      <point x="118" y="110" type="qcurve" smooth="yes"/>
      <point x="118" y="109" type="line" smooth="yes"/>
      <point x="118" y="-22"/>
      <point x="255" y="-226"/>
      <point x="432" y="-319" type="qcurve"/>
    </contour>
  </outline>
</glyph>
<glyph name="comma" format="1">
  <advance width="351"/>
  <unicode hex="002C"/>
  <outline>
    <contour>
      <point x="159" y="-94" type="line"/>
      <point x="159" y="-144" type="line" smooth="yes"/>
      <point x="159" y="-189"/>
      <point x="138" y="-284"/>
      <point x="110" y="-341" type="qcurve"/>
      <point x="133" y="-343" type="line"/>
      <point x="162" y="-288"/>
      <point x="188" y="-186"/>
      <point x="188" y="-146" type="qcurve" smooth="yes"/>
      <point x="188" y="-94" type="line"/>
    </contour>
  </outline>
</glyph>
<glyph name="zero" format="1">
  <advance width="775"/>
  <unicode hex="0030"/>
  <outline>
    <contour>
      <point x="274" y="473"/>
      <point x="99" y="341"/>
      <point x="99" y="239" type="qcurve" smooth="yes"/>
      <point x="99" y="139"/>
      <point x="274" y="1"/>
      <point x="398" y="1" type="qcurve" smooth="yes"/>
      <point x="523" y="1"/>
      <point x="698" y="139"/>
      <point x="698" y="239" type="qcurve" smooth="yes"/>
      <point x="698" y="341"/>
      <point x="523" y="473"/>
      <point x="398" y="473" type="qcurve" smooth="yes"/>
    </contour>
    <contour>
      <point x="510" y="453"/>
      <point x="669" y="331"/>
      <point x="669" y="238" type="qcurve" smooth="yes"/>
      <point x="669" y="146"/>
      <point x="510" y="21"/>
      <point x="398" y="21" type="qcurve" smooth="yes"/>
      <point x="285" y="21"/>
      <point x="128" y="146"/>
      <point x="128" y="238" type="qcurve" smooth="yes"/>
      <point x="128" y="331"/>
      <point x="285" y="453"/>
      <point x="398" y="453" type="qcurve" smooth="yes"/>
    </contour>
  </outline>
</glyph>
<glyph name="one" format="1">
  <advance width="374"/>
  <unicode hex="0031"/>
  <outline>
    <contour>
      <point x="226" y="0" type="line"/>
      <point x="254" y="0" type="line"/>
      <point x="254" y="473" type="line"/>
      <point x="227" y="473" type="line"/>
      <point x="49" y="444" type="line"/>
      <point x="60" y="428" type="line"/>
      <point x="238" y="456" type="line"/>
      <point x="226" y="465" type="line"/>
    </contour>
  </outline>
</glyph>
<glyph name="four" format="1">
  <advance width="726"/>
  <unicode hex="0034"/>
  <outline>
    <contour>
      <point x="67" y="126" type="line"/>
      <point x="102" y="130" type="line"/>
      <point x="441" y="473" type="line"/>
      <point x="409" y="473" type="line"/>
    </contour>
    <contour>
      <point x="68" y="126" type="line"/>
      <point x="80" y="112" type="line"/>
      <point x="659" y="112" type="line"/>
      <point x="659" y="130" type="line"/>
      <point x="86" y="130" type="line"/>
    </contour>
    <contour>
      <point x="538" y="319" type="line"/>
      <point x="510" y="319" type="line"/>
      <point x="510" y="308" type="line"/>
      <point x="510" y="0" type="line"/>
      <point x="538" y="0" type="line"/>
    </contour>
  </outline>
</glyph>
<glyph name="five" format="1">
  <advance width="663"/>
  <unicode hex="0035"/>
  <outline>
    <contour>
      <point x="119" y="269" type="line"/>
      <point x="146" y="269" type="line"/>
      <point x="194" y="458" type="line"/>
      <point x="184" y="453" type="line"/>
      <point x="566" y="453" type="line"/>
      <point x="566" y="471" type="line"/>
      <point x="168" y="471" type="line"/>
    </contour>
    <contour>
      <point x="119" y="269" type="line"/>
      <point x="126" y="250" type="line"/>
      <point x="162" y="254"/>
      <point x="267" y="261"/>
      <point x="322" y="261" type="qcurve" smooth="yes"/>
      <point x="444" y="261"/>
      <point x="562" y="189"/>
      <point x="562" y="140" type="qcurve" smooth="yes"/>
      <point x="562" y="139" type="line" smooth="yes"/>
      <point x="562" y="84"/>
      <point x="437" y="16"/>
      <point x="341" y="16" type="qcurve" smooth="yes"/>
      <point x="266" y="16"/>
      <point x="145" y="42"/>
      <point x="72" y="75" type="qcurve"/>
      <point x="61" y="58" type="line"/>
      <point x="110" y="34"/>
      <point x="254" y="-3"/>
      <point x="338" y="-3" type="qcurve" smooth="yes"/>
      <point x="452" y="-3"/>
      <point x="591" y="76"/>
      <point x="591" y="140" type="qcurve" smooth="yes"/>
      <point x="591" y="142" type="line" smooth="yes"/>
      <point x="591" y="198"/>
      <point x="455" y="280"/>
      <point x="326" y="280" type="qcurve" smooth="yes"/>
      <point x="280" y="280"/>
      <point x="187" y="272"/>
      <point x="140" y="270" type="qcurve" smooth="yes"/>
    </contour>
  </outline>
</glyph>
<glyph name="six" format="1">
  <advance width="703"/>
  <unicode hex="0036"/>
  <outline>
    <contour>
      <point x="139" y="161" type="line"/>
      <point x="139" y="251"/>
      <point x="334" y="424"/>
      <point x="540" y="457" type="qcurve"/>
      <point x="522" y="472" type="line"/>
      <point x="309" y="436"/>
      <point x="110" y="256"/>
      <point x="110" y="151" type="qcurve" smooth="yes"/>
      <point x="110" y="149" type="line" smooth="yes"/>
      <point x="110" y="146"/>
      <point x="110" y="147"/>
      <point x="110" y="144" type="qcurve" smooth="yes"/>
      <point x="113" y="85"/>
      <point x="259" y="-4"/>
      <point x="375" y="-4" type="qcurve" smooth="yes"/>
      <point x="486" y="-4"/>
      <point x="626" y="81"/>
      <point x="626" y="142" type="qcurve" smooth="yes"/>
      <point x="626" y="200"/>
      <point x="500" y="281"/>
      <point x="388" y="281" type="qcurve" smooth="yes"/>
      <point x="313" y="281"/>
      <point x="179" y="235"/>
      <point x="127" y="199" type="qcurve"/>
      <point x="127" y="180" type="line"/>
      <point x="186" y="222"/>
      <point x="319" y="262"/>
      <point x="386" y="262" type="qcurve" smooth="yes"/>
      <point x="478" y="262"/>
      <point x="598" y="194"/>
      <point x="598" y="142" type="qcurve" smooth="yes"/>
      <point x="598" y="89"/>
      <point x="466" y="15"/>
      <point x="366" y="15" type="qcurve" smooth="yes"/>
      <point x="265" y="15"/>
      <point x="139" y="98"/>
      <point x="139" y="153" type="qcurve"/>
    </contour>
  </outline>
</glyph>
<glyph name="eight" format="1">
  <advance width="690"/>
  <unicode hex="0038"/>
  <outline>
    <contour>
      <point x="482" y="-3"/>
      <point x="615" y="74"/>
      <point x="615" y="122" type="qcurve" smooth="yes"/>
      <point x="615" y="124" type="line" smooth="yes"/>
      <point x="615" y="163"/>
      <point x="500" y="236"/>
      <point x="410" y="247" type="qcurve"/>
      <point x="410" y="244" type="line"/>
      <point x="502" y="260"/>
      <point x="581" y="325"/>
      <point x="581" y="356" type="qcurve" smooth="yes"/>
      <point x="581" y="358" type="line" smooth="yes"/>
      <point x="581" y="400"/>
      <point x="457" y="472"/>
      <point x="345" y="472" type="qcurve" smooth="yes"/>
      <point x="232" y="472"/>
      <point x="109" y="400"/>
      <point x="109" y="358" type="qcurve" smooth="yes"/>
      <point x="109" y="356" type="line" smooth="yes"/>
      <point x="109" y="321"/>
      <point x="192" y="259"/>
      <point x="278" y="243" type="qcurve"/>
      <point x="278" y="246" type="line"/>
      <point x="177" y="230"/>
      <point x="74" y="160"/>
      <point x="74" y="124" type="qcurve" smooth="yes"/>
      <point x="74" y="122" type="line" smooth="yes"/>
      <point x="74" y="76"/>
      <point x="206" y="-3"/>
      <point x="345" y="-3" type="qcurve" smooth="yes"/>
    </contour>
    <contour>
      <point x="270" y="252"/>
      <point x="138" y="314"/>
      <point x="138" y="356" type="qcurve" smooth="yes"/>
      <point x="138" y="358" type="line" smooth="yes"/>
      <point x="138" y="384"/>
      <point x="231" y="453"/>
      <point x="345" y="453" type="qcurve" smooth="yes"/>
      <point x="458" y="453"/>
      <point x="552" y="384"/>
      <point x="552" y="358" type="qcurve" smooth="yes"/>
      <point x="552" y="356" type="line" smooth="yes"/>
      <point x="552" y="322"/>
      <point x="440" y="252"/>
      <point x="345" y="252" type="qcurve" smooth="yes"/>
    </contour>
    <contour>
      <point x="217" y="16"/>
      <point x="103" y="85"/>
      <point x="103" y="121" type="qcurve" smooth="yes"/>
      <point x="103" y="122" type="line" smooth="yes"/>
      <point x="103" y="162"/>
      <point x="238" y="234"/>
      <point x="345" y="234" type="qcurve" smooth="yes"/>
      <point x="452" y="234"/>
      <point x="586" y="162"/>
      <point x="586" y="122" type="qcurve" smooth="yes"/>
      <point x="586" y="121" type="line" smooth="yes"/>
      <point x="586" y="83"/>
      <point x="471" y="16"/>
      <point x="345" y="16" type="qcurve" smooth="yes"/>
    </contour>
  </outline>
</glyph>
<glyph name="nine" format="1">
  <advance width="703"/>
  <unicode hex="0039"/>
  <outline>
    <contour>
      <point x="598" y="308" type="line"/>
      <point x="598" y="217"/>
      <point x="403" y="45"/>
      <point x="197" y="11" type="qcurve"/>
      <point x="214" y="-4" type="line"/>
      <point x="428" y="32"/>
      <point x="626" y="213"/>
      <point x="626" y="318" type="qcurve" smooth="yes"/>
      <point x="626" y="319" type="line" smooth="yes"/>
      <point x="626" y="323"/>
      <point x="626" y="321"/>
      <point x="626" y="325" type="qcurve" smooth="yes"/>
      <point x="624" y="383"/>
      <point x="482" y="472"/>
      <point x="378" y="472" type="qcurve" smooth="yes"/>
      <point x="255" y="472"/>
      <point x="110" y="388"/>
      <point x="110" y="327" type="qcurve" smooth="yes"/>
      <point x="110" y="268"/>
      <point x="237" y="182"/>
      <point x="349" y="182" type="qcurve" smooth="yes"/>
      <point x="424" y="182"/>
      <point x="558" y="223"/>
      <point x="610" y="259" type="qcurve"/>
      <point x="610" y="278" type="line"/>
      <point x="551" y="236"/>
      <point x="417" y="201"/>
      <point x="351" y="201" type="qcurve" smooth="yes"/>
      <point x="259" y="201"/>
      <point x="139" y="275"/>
      <point x="139" y="327" type="qcurve" smooth="yes"/>
      <point x="139" y="379"/>
      <point x="273" y="454"/>
      <point x="378" y="454" type="qcurve" smooth="yes"/>
      <point x="476" y="454"/>
      <point x="598" y="371"/>
      <point x="598" y="316" type="qcurve"/>
    </contour>
  </outline>
</glyph>
<glyph name="equal" format="1">
  <advance width="983"/>
  <unicode hex="003D"/>
  <outline>
    <contour>
      <point x="152" y="709" type="line"/>
      <point x="830" y="709" type="line"/>
      <point x="830" y="730" type="line"/>
      <point x="152" y="730" type="line"/>
    </contour>
    <contour>
      <point x="152" y="461" type="line"/>
      <point x="830" y="461" type="line"/>
      <point x="830" y="482" type="line"/>
      <point x="152" y="482" type="line"/>
    </contour>
  </outline>
</glyph>
<glyph name="at" format="1">
  <advance width="1146"/>
  <unicode hex="0040"/>
  <outline>
    <contour>
      <point x="681" y="-97"/>
      <point x="793" y="-85"/>
      <point x="838" y="-74" type="qcurve"/>
      <point x="830" y="-58" type="line"/>
      <point x="773" y="-69"/>
      <point x="675" y="-78"/>
      <point x="615" y="-78" type="qcurve" smooth="yes"/>
      <point x="418" y="-78"/>
      <point x="190" y="74"/>
      <point x="190" y="185" type="qcurve" smooth="yes"/>
      <point x="190" y="296"/>
      <point x="431" y="463"/>
      <point x="622" y="463" type="qcurve" smooth="yes"/>
      <point x="782" y="463"/>
      <point x="998" y="333"/>
      <point x="998" y="236" type="qcurve" smooth="yes"/>
      <point x="998" y="157"/>
      <point x="922" y="85"/>
      <point x="866" y="85" type="qcurve" smooth="yes"/>
      <point x="818" y="85"/>
      <point x="753" y="136"/>
      <point x="753" y="200" type="qcurve" smooth="yes"/>
      <point x="753" y="201"/>
      <point x="753" y="216"/>
      <point x="754" y="226" type="qcurve" smooth="yes"/>
      <point x="769" y="317" type="line"/>
      <point x="734" y="323" type="line"/>
      <point x="721" y="325"/>
      <point x="639" y="332"/>
      <point x="639" y="332" type="qcurve" smooth="yes"/>
      <point x="531" y="332"/>
      <point x="401" y="222"/>
      <point x="401" y="155" type="qcurve" smooth="yes"/>
      <point x="401" y="112"/>
      <point x="467" y="66"/>
      <point x="515" y="66" type="qcurve" smooth="yes"/>
      <point x="578" y="66"/>
      <point x="694" y="136"/>
      <point x="727" y="191" type="qcurve"/>
      <point x="725" y="127"/>
      <point x="805" y="66"/>
      <point x="866" y="66" type="qcurve" smooth="yes"/>
      <point x="936" y="66"/>
      <point x="1027" y="151"/>
      <point x="1027" y="236" type="qcurve" smooth="yes"/>
      <point x="1027" y="340"/>
      <point x="794" y="481"/>
      <point x="618" y="481" type="qcurve" smooth="yes"/>
      <point x="423" y="481"/>
      <point x="160" y="300"/>
      <point x="160" y="184" type="qcurve" smooth="yes"/>
      <point x="160" y="69"/>
      <point x="406" y="-97"/>
      <point x="614" y="-97" type="qcurve" smooth="yes"/>
    </contour>
    <contour>
      <point x="478" y="85"/>
      <point x="432" y="121"/>
      <point x="432" y="160" type="qcurve" smooth="yes"/>
      <point x="432" y="221"/>
      <point x="553" y="313"/>
      <point x="636" y="313" type="qcurve" smooth="yes"/>
      <point x="640" y="313"/>
      <point x="719" y="305"/>
      <point x="730" y="304" type="qcurve"/>
      <point x="730" y="294"/>
      <point x="727" y="235"/>
      <point x="710" y="206" type="qcurve" smooth="yes"/>
      <point x="682" y="156"/>
      <point x="570" y="85"/>
      <point x="515" y="85" type="qcurve" smooth="yes"/>
    </contour>
  </outline>
</glyph>
<glyph name="backslash" format="1">
  <advance width="511"/>
  <unicode hex="005C"/>
  <outline>
    <contour>
      <point x="403" y="-84" type="line"/>
      <point x="435" y="-84" type="line"/>
      <point x="115" y="609" type="line"/>
      <point x="82" y="609" type="line"/>
    </contour>
  </outline>
</glyph>
<glyph name="bracketright" format="1">
  <advance width="539"/>
  <unicode hex="005D"/>
  <outline>
    <contour>
      <point x="354" y="-308" type="line"/>
      <point x="354" y="536" type="line"/>
      <point x="159" y="536" type="line"/>
      <point x="159" y="518" type="line"/>
      <point x="327" y="518" type="line"/>
      <point x="327" y="-289" type="line"/>
      <point x="159" y="-289" type="line"/>
      <point x="159" y="-308" type="line"/>
    </contour>
  </outline>
</glyph>
<glyph name="asciicircum" format="1">
  <advance width="819"/>
  <unicode hex="005E"/>
  <outline>
    <contour>
      <point x="144" y="1012" type="line"/>
      <point x="172" y="1012" type="line"/>
      <point x="410" y="1205" type="line"/>
      <point x="647" y="1012" type="line"/>
      <point x="675" y="1012" type="line"/>
      <point x="419" y="1232" type="line"/>
      <point x="400" y="1232" type="line"/>
    </contour>
  </outline>
</glyph>
<glyph name="braceleft" format="1">
  <advance width="541"/>
  <unicode hex="007B"/>
  <outline>
    <contour>
      <point x="449" y="-300" type="line"/>
      <point x="347" y="-300"/>
      <point x="261" y="-248"/>
      <point x="261" y="-198" type="qcurve" smooth="yes"/>
      <point x="261" y="-152"/>
      <point x="273" y="-60"/>
      <point x="273" y="-7" type="qcurve" smooth="yes"/>
      <point x="273" y="39"/>
      <point x="216" y="98"/>
      <point x="132" y="108" type="qcurve"/>
      <point x="132" y="111" type="line"/>
      <point x="216" y="122"/>
      <point x="273" y="182"/>
      <point x="273" y="225" type="qcurve" smooth="yes"/>
      <point x="273" y="275"/>
      <point x="261" y="372"/>
      <point x="261" y="419" type="qcurve" smooth="yes"/>
      <point x="261" y="468"/>
      <point x="347" y="518"/>
      <point x="449" y="518" type="qcurve"/>
      <point x="449" y="536" type="line"/>
      <point x="384" y="536"/>
      <point x="232" y="496"/>
      <point x="232" y="411" type="qcurve" smooth="yes"/>
      <point x="232" y="363"/>
      <point x="244" y="257"/>
      <point x="244" y="211" type="qcurve" smooth="yes"/>
      <point x="244" y="178"/>
      <point x="182" y="127"/>
      <point x="99" y="118" type="qcurve"/>
      <point x="99" y="98" type="line"/>
      <point x="178" y="92"/>
      <point x="244" y="41"/>
      <point x="244" y="8" type="qcurve" smooth="yes"/>
      <point x="244" y="-37"/>
      <point x="232" y="-142"/>
      <point x="232" y="-197" type="qcurve" smooth="yes"/>
      <point x="232" y="-280"/>
      <point x="384" y="-319"/>
      <point x="449" y="-319" type="qcurve"/>
    </contour>
  </outline>
</glyph>
<glyph name="braceright" format="1">
  <advance width="541"/>
  <unicode hex="007D"/>
  <outline>
    <contour>
      <point x="92" y="-319" type="line"/>
      <point x="156" y="-319"/>
      <point x="309" y="-280"/>
      <point x="309" y="-197" type="qcurve" smooth="yes"/>
      <point x="309" y="-142"/>
      <point x="297" y="-37"/>
      <point x="297" y="8" type="qcurve" smooth="yes"/>
      <point x="297" y="41"/>
      <point x="363" y="92"/>
      <point x="442" y="98" type="qcurve"/>
      <point x="442" y="118" type="line"/>
      <point x="359" y="127"/>
      <point x="297" y="178"/>
      <point x="297" y="211" type="qcurve" smooth="yes"/>
      <point x="297" y="257"/>
      <point x="309" y="363"/>
      <point x="309" y="411" type="qcurve" smooth="yes"/>
      <point x="309" y="496"/>
      <point x="156" y="536"/>
      <point x="92" y="536" type="qcurve"/>
      <point x="92" y="518" type="line"/>
      <point x="193" y="518"/>
      <point x="280" y="468"/>
      <point x="280" y="419" type="qcurve" smooth="yes"/>
      <point x="280" y="372"/>
      <point x="268" y="275"/>
      <point x="268" y="225" type="qcurve" smooth="yes"/>
      <point x="268" y="182"/>
      <point x="325" y="122"/>
      <point x="409" y="111" type="qcurve"/>
      <point x="409" y="108" type="line"/>
      <point x="325" y="98"/>
      <point x="268" y="39"/>
      <point x="268" y="-7" type="qcurve" smooth="yes"/>
      <point x="268" y="-60"/>
      <point x="280" y="-152"/>
      <point x="280" y="-198" type="qcurve" smooth="yes"/>
      <point x="280" y="-248"/>
      <point x="193" y="-300"/>
      <point x="92" y="-300" type="qcurve"/>
    </contour>
  </outline>
</glyph>
<glyph name="asciitilde" format="1">
  <advance width="721"/>
  <unicode hex="007E"/>
  <outline>
    <contour>
      <point x="504" y="523"/>
      <point x="569" y="562"/>
      <point x="583" y="608" type="qcurve"/>
      <point x="562" y="611" type="line"/>
      <point x="544" y="572"/>
      <point x="498" y="544"/>
      <point x="469" y="544" type="qcurve" smooth="yes"/>
      <point x="449" y="544"/>
      <point x="399" y="562"/>
      <point x="372" y="573" type="qcurve" smooth="yes"/>
      <point x="343" y="585"/>
      <point x="281" y="606"/>
      <point x="255" y="606" type="qcurve" smooth="yes"/>
      <point x="216" y="606"/>
      <point x="153" y="567"/>
      <point x="138" y="521" type="qcurve"/>
      <point x="159" y="518" type="line"/>
      <point x="177" y="556"/>
      <point x="223" y="584"/>
      <point x="252" y="584" type="qcurve" smooth="yes"/>
      <point x="272" y="584"/>
      <point x="322" y="567"/>
      <point x="349" y="556" type="qcurve" smooth="yes"/>
      <point x="378" y="544"/>
      <point x="440" y="523"/>
      <point x="466" y="523" type="qcurve" smooth="yes"/>
    </contour>
  </outline>
</glyph>
<glyph name="sterling" format="1">
  <advance width="982"/>
  <unicode hex="00A3"/>
  <outline>
    <contour>
      <point x="106" y="0" type="line"/>
      <point x="906" y="0" type="line"/>
      <point x="906" y="21" type="line"/>
      <point x="292" y="21" type="line"/>
      <point x="292" y="336" type="line"/>
      <point x="786" y="336" type="line"/>
      <point x="786" y="357" type="line"/>
      <point x="292" y="357" type="line"/>
      <point x="292" y="484" type="line" smooth="yes"/>
      <point x="292" y="549"/>
      <point x="347" y="645"/>
      <point x="390" y="673" type="qcurve" smooth="yes"/>
      <point x="431" y="700"/>
      <point x="533" y="728"/>
      <point x="603" y="728" type="qcurve" smooth="yes"/>
      <point x="699" y="728"/>
      <point x="840" y="666"/>
      <point x="888" y="619" type="qcurve"/>
      <point x="918" y="632" type="line"/>
      <point x="866" y="682"/>
      <point x="709" y="749"/>
      <point x="605" y="749" type="qcurve" smooth="yes"/>
      <point x="528" y="749"/>
      <point x="410" y="717"/>
      <point x="366" y="688" type="qcurve" smooth="yes"/>
      <point x="314" y="654"/>
      <point x="255" y="552"/>
      <point x="255" y="481" type="qcurve" smooth="yes"/>
      <point x="255" y="357" type="line"/>
      <point x="106" y="357" type="line"/>
      <point x="106" y="336" type="line"/>
      <point x="255" y="336" type="line"/>
      <point x="255" y="22" type="line"/>
      <point x="106" y="14" type="line"/>
    </contour>
  </outline>
</glyph>
<glyph name="section" format="1">
  <advance width="1035"/>
  <unicode hex="00A7"/>
  <outline>
    <contour>
      <point x="754" y="224"/>
      <point x="918" y="297"/>
      <point x="918" y="345" type="qcurve" smooth="yes"/>
      <point x="918" y="347" type="line" smooth="yes"/>
      <point x="918" y="398"/>
      <point x="757" y="464"/>
      <point x="603" y="482" type="qcurve" smooth="yes"/>
      <point x="438" y="502"/>
      <point x="259" y="561"/>
      <point x="259" y="612" type="qcurve" smooth="yes"/>
      <point x="259" y="614" type="line" smooth="yes"/>
      <point x="259" y="659"/>
      <point x="400" y="718"/>
      <point x="521" y="718" type="qcurve" smooth="yes"/>
      <point x="608" y="718"/>
      <point x="781" y="676"/>
      <point x="829" y="650" type="qcurve"/>
      <point x="852" y="668" type="line"/>
      <point x="802" y="695"/>
      <point x="619" y="739"/>
      <point x="521" y="739" type="qcurve" smooth="yes"/>
      <point x="381" y="739"/>
      <point x="223" y="665"/>
      <point x="223" y="614" type="qcurve" smooth="yes"/>
      <point x="223" y="612" type="line" smooth="yes"/>
      <point x="223" y="563"/>
      <point x="345" y="504"/>
      <point x="436" y="489" type="qcurve"/>
      <point x="283" y="495"/>
      <point x="120" y="422"/>
      <point x="120" y="374" type="qcurve" smooth="yes"/>
      <point x="120" y="372" type="line" smooth="yes"/>
      <point x="120" y="321"/>
      <point x="280" y="255"/>
      <point x="434" y="237" type="qcurve" smooth="yes"/>
      <point x="599" y="217"/>
      <point x="778" y="158"/>
      <point x="778" y="106" type="qcurve" smooth="yes"/>
      <point x="778" y="104" type="line" smooth="yes"/>
      <point x="778" y="59"/>
      <point x="637" y="1"/>
      <point x="516" y="1" type="qcurve" smooth="yes"/>
      <point x="429" y="1"/>
      <point x="256" y="43"/>
      <point x="208" y="70" type="qcurve"/>
      <point x="185" y="52" type="line"/>
      <point x="235" y="24"/>
      <point x="418" y="-20"/>
      <point x="516" y="-20" type="qcurve" smooth="yes"/>
      <point x="657" y="-20"/>
      <point x="814" y="54"/>
      <point x="814" y="104" type="qcurve" smooth="yes"/>
      <point x="814" y="106" type="line" smooth="yes"/>
      <point x="814" y="156"/>
      <point x="692" y="215"/>
      <point x="602" y="230" type="qcurve"/>
    </contour>
    <contour>
      <point x="587" y="247"/>
      <point x="497" y="252"/>
      <point x="441" y="259" type="qcurve" smooth="yes"/>
      <point x="294" y="277"/>
      <point x="156" y="332"/>
      <point x="156" y="374" type="qcurve" smooth="yes"/>
      <point x="156" y="377" type="line" smooth="yes"/>
      <point x="156" y="418"/>
      <point x="303" y="472"/>
      <point x="405" y="472" type="qcurve" smooth="yes"/>
      <point x="450" y="472"/>
      <point x="540" y="467"/>
      <point x="596" y="459" type="qcurve" smooth="yes"/>
      <point x="743" y="441"/>
      <point x="882" y="387"/>
      <point x="882" y="345" type="qcurve" smooth="yes"/>
      <point x="882" y="343" type="line" smooth="yes"/>
      <point x="882" y="301"/>
      <point x="734" y="247"/>
      <point x="633" y="247" type="qcurve" smooth="yes"/>
    </contour>
  </outline>
</glyph>
<glyph name="registered" format="1">
  <advance width="865"/>
  <unicode hex="00AE"/>
  <outline>
    <contour>
      <point x="365" y="664"/>
      <point x="262" y="730"/>
      <point x="262" y="775" type="qcurve"/>
      <point x="262" y="775" type="line"/>
      <point x="262" y="820"/>
      <point x="367" y="886"/>
      <point x="441" y="886" type="qcurve" smooth="yes"/>
      <point x="517" y="886"/>
      <point x="620" y="821"/>
      <point x="620" y="775" type="qcurve"/>
      <point x="620" y="775" type="line"/>
      <point x="620" y="730"/>
      <point x="516" y="664"/>
      <point x="441" y="664" type="qcurve" smooth="yes"/>
    </contour>
    <contour>
      <point x="523" y="651"/>
      <point x="643" y="726"/>
      <point x="643" y="775" type="qcurve"/>
      <point x="643" y="776" type="line"/>
      <point x="643" y="825"/>
      <point x="524" y="899"/>
      <point x="441" y="899" type="qcurve" smooth="yes"/>
      <point x="360" y="899"/>
      <point x="240" y="824"/>
      <point x="240" y="775" type="qcurve"/>
      <point x="240" y="774" type="line"/>
      <point x="240" y="725"/>
      <point x="358" y="651"/>
      <point x="441" y="651" type="qcurve" smooth="yes"/>
    </contour>
    <contour>
      <point x="372" y="716" type="line"/>
      <point x="394" y="716" type="line"/>
      <point x="394" y="753" type="line"/>
      <point x="442" y="753" type="line"/>
      <point x="442" y="753" type="line"/>
      <point x="502" y="716" type="line"/>
      <point x="530" y="716" type="line"/>
      <point x="467" y="756" type="line"/>
      <point x="493" y="759"/>
      <point x="527" y="781"/>
      <point x="527" y="798" type="qcurve"/>
      <point x="527" y="798" type="line"/>
      <point x="527" y="815"/>
      <point x="489" y="838"/>
      <point x="452" y="838" type="qcurve" smooth="yes"/>
      <point x="372" y="838" type="line"/>
    </contour>
    <contour>
      <point x="394" y="766" type="line"/>
      <point x="394" y="826" type="line"/>
      <point x="450" y="826" type="line" smooth="yes"/>
      <point x="478" y="826"/>
      <point x="506" y="808"/>
      <point x="506" y="797" type="qcurve"/>
      <point x="506" y="797" type="line"/>
      <point x="506" y="783"/>
      <point x="471" y="766"/>
      <point x="448" y="766" type="qcurve" smooth="yes"/>
    </contour>
  </outline>
</glyph>
<glyph name="degree" format="1">
  <advance width="705"/>
  <unicode hex="00B0"/>
  <outline>
    <contour>
      <point x="446" y="872"/>
      <point x="586" y="959"/>
      <point x="586" y="1019" type="qcurve" smooth="yes"/>
      <point x="586" y="1021" type="line" smooth="yes"/>
      <point x="586" y="1081"/>
      <point x="446" y="1168"/>
      <point x="352" y="1168" type="qcurve" smooth="yes"/>
      <point x="258" y="1168"/>
      <point x="118" y="1081"/>
      <point x="118" y="1021" type="qcurve" smooth="yes"/>
      <point x="118" y="1019" type="line" smooth="yes"/>
      <point x="118" y="959"/>
      <point x="258" y="872"/>
      <point x="352" y="872" type="qcurve" smooth="yes"/>
    </contour>
    <contour>
      <point x="270" y="891"/>
      <point x="150" y="967"/>
      <point x="150" y="1019" type="qcurve" smooth="yes"/>
      <point x="150" y="1021" type="line" smooth="yes"/>
      <point x="150" y="1073"/>
      <point x="270" y="1149"/>
      <point x="352" y="1149" type="qcurve" smooth="yes"/>
      <point x="434" y="1149"/>
      <point x="554" y="1073"/>
      <point x="554" y="1021" type="qcurve" smooth="yes"/>
      <point x="554" y="1019" type="line" smooth="yes"/>
      <point x="554" y="967"/>
      <point x="434" y="891"/>
      <point x="352" y="891" type="qcurve" smooth="yes"/>
    </contour>
  </outline>
</glyph>
<glyph name="paragraph" format="1">
  <advance width="750"/>
  <unicode hex="00B6"/>
  <outline>
    <contour>
      <point x="544" y="0" type="line"/>
      <point x="580" y="0" type="line"/>
      <point x="580" y="739" type="line"/>
      <point x="502" y="739" type="line" smooth="yes"/>
      <point x="322" y="739"/>
      <point x="85" y="620"/>
      <point x="85" y="517" type="qcurve" smooth="yes"/>
      <point x="85" y="514" type="line" smooth="yes"/>
      <point x="85" y="408"/>
      <point x="344" y="292"/>
      <point x="526" y="292" type="qcurve" smooth="yes"/>
      <point x="544" y="292" type="line"/>
    </contour>
  </outline>
</glyph>
<glyph name="divide" format="1">
  <advance width="983"/>
  <unicode hex="00F7"/>
  <outline>
    <contour>
      <point x="462" y="681" type="line"/>
      <point x="521" y="681" type="line"/>
      <point x="521" y="736" type="line"/>
      <point x="462" y="736" type="line"/>
    </contour>
    <contour>
      <point x="866" y="476" type="line"/>
      <point x="866" y="495" type="line"/>
      <point x="116" y="495" type="line"/>
      <point x="116" y="476" type="line"/>
    </contour>
    <contour>
      <point x="462" y="236" type="line"/>
      <point x="521" y="236" type="line"/>
      <point x="521" y="291" type="line"/>
      <point x="462" y="291" type="line"/>
    </contour>
  </outline>
</glyph>
<glyph name="uni0A05" format="1">
  <advance width="1074"/>
  <unicode hex="0A05"/>
  <outline>
    <contour>
      <point x="888" y="492" type="line"/>
      <point x="860" y="492" type="line"/>
      <point x="860" y="0" type="line"/>
      <point x="888" y="0" type="line"/>
    </contour>
    <contour>
      <point x="1075" y="474" type="line"/>
      <point x="1075" y="492" type="line"/>
      <point x="860" y="492" type="line"/>
      <point x="860" y="474" type="line"/>
    </contour>
    <contour>
      <point x="555" y="148" type="line"/>
      <point x="595" y="184"/>
      <point x="618" y="340"/>
      <point x="595" y="402" type="qcurve"/>
      <point x="529" y="406"/>
      <point x="319" y="344"/>
      <point x="251" y="291" type="qcurve"/>
      <point x="258" y="286" type="line"/>
      <point x="261" y="338"/>
      <point x="226" y="432"/>
      <point x="190" y="455" type="qcurve" smooth="yes"/>
      <point x="158" y="476"/>
      <point x="71" y="492"/>
      <point x="27" y="492" type="qcurve" smooth="yes"/>
      <point x="2" y="492" type="line"/>
      <point x="-3" y="474" type="line"/>
      <point x="18" y="474" type="line" smooth="yes"/>
      <point x="78" y="474"/>
      <point x="147" y="457"/>
      <point x="166" y="445" type="qcurve" smooth="yes"/>
      <point x="203" y="421"/>
      <point x="234" y="326"/>
      <point x="231" y="277" type="qcurve"/>
      <point x="115" y="189" type="line"/>
      <point x="150" y="178" type="line"/>
      <point x="270" y="278" type="line"/>
      <point x="322" y="324"/>
      <point x="522" y="387"/>
      <point x="590" y="381" type="qcurve"/>
      <point x="575" y="392" type="line"/>
      <point x="586" y="332"/>
      <point x="567" y="189"/>
      <point x="522" y="141" type="qcurve"/>
      <point x="425" y="64" type="line"/>
      <point x="460" y="53" type="line"/>
      <point x="534" y="118" type="line"/>
      <point x="591" y="163"/>
      <point x="768" y="202"/>
      <point x="875" y="202" type="qcurve" smooth="yes"/>
      <point x="881" y="202" type="line"/>
      <point x="881" y="222" type="line"/>
      <point x="872" y="222" type="line" smooth="yes"/>
      <point x="787" y="222"/>
      <point x="618" y="193"/>
      <point x="546" y="151" type="qcurve"/>
    </contour>
  </outline>
</glyph>
<glyph name="uni0A06" format="1">
  <advance width="1447"/>
  <unicode hex="0A06"/>
  <outline>
    <contour>
      <point x="1447" y="474" type="line"/>
      <point x="1447" y="492" type="line"/>
      <point x="1070" y="492" type="line"/>
      <point x="1070" y="474" type="line"/>
    </contour>
    <contour>
      <point x="1255" y="492" type="line"/>
      <point x="1255" y="160" type="line"/>
      <point x="1282" y="160" type="line"/>
      <point x="1282" y="492" type="line"/>
    </contour>
    <component base="uni0A05" xOffset="-5"/>
    <contour>
      <point x="1687" y="1248" type="move" name="mark0"/>
    </contour>
  </outline>
</glyph>
<glyph name="uni0A09" format="1">
  <advance width="1046"/>
  <unicode hex="0A09"/>
  <outline>
    <component base="uni0A41" xOffset="1217"/>
    <component base="uni0A73" xOffset="20"/>
    <contour>
      <point x="1589" y="1248" type="move" name="mark0"/>
    </contour>
  </outline>
</glyph>
<glyph name="uni0A0F" format="1">
  <advance width="889"/>
  <unicode hex="0A0F"/>
  <outline>
    <component base="uni0A72" xOffset="5"/>
    <component base="uni0A48" xOffset="1088"/>
    <contour>
      <point x="1410" y="1248" type="move" name="mark0"/>
    </contour>
  </outline>
</glyph>
<glyph name="uni0A10" format="1">
  <advance width="1074"/>
  <unicode hex="0A10"/>
  <outline>
    <contour>
      <point x="886" y="492" type="line"/>
      <point x="858" y="492" type="line"/>
      <point x="858" y="0" type="line"/>
      <point x="886" y="0" type="line"/>
    </contour>
    <contour>
      <point x="1074" y="474" type="line"/>
      <point x="1074" y="492" type="line"/>
      <point x="858" y="492" type="line"/>
      <point x="858" y="474" type="line"/>
    </contour>
    <contour>
      <point x="554" y="148" type="line"/>
      <point x="594" y="184"/>
      <point x="616" y="340"/>
      <point x="594" y="402" type="qcurve"/>
      <point x="527" y="406"/>
      <point x="318" y="344"/>
      <point x="250" y="291" type="qcurve"/>
      <point x="257" y="286" type="line"/>
      <point x="259" y="338"/>
      <point x="225" y="432"/>
      <point x="189" y="455" type="qcurve" smooth="yes"/>
      <point x="157" y="476"/>
      <point x="69" y="492"/>
      <point x="26" y="492" type="qcurve" smooth="yes"/>
      <point x="1" y="492" type="line"/>
      <point x="-5" y="474" type="line"/>
      <point x="17" y="474" type="line" smooth="yes"/>
      <point x="77" y="474"/>
      <point x="145" y="457"/>
      <point x="164" y="445" type="qcurve" smooth="yes"/>
      <point x="201" y="421"/>
      <point x="232" y="326"/>
      <point x="230" y="277" type="qcurve"/>
      <point x="114" y="189" type="line"/>
      <point x="149" y="178" type="line"/>
      <point x="268" y="278" type="line"/>
      <point x="320" y="324"/>
      <point x="520" y="387"/>
      <point x="589" y="381" type="qcurve"/>
      <point x="574" y="392" type="line"/>
      <point x="584" y="332"/>
      <point x="565" y="189"/>
      <point x="520" y="141" type="qcurve"/>
      <point x="423" y="64" type="line"/>
      <point x="458" y="53" type="line"/>
      <point x="533" y="118" type="line"/>
      <point x="590" y="163"/>
      <point x="766" y="202"/>
      <point x="874" y="202" type="qcurve" smooth="yes"/>
      <point x="879" y="202" type="line"/>
      <point x="879" y="222" type="line"/>
      <point x="870" y="222" type="line" smooth="yes"/>
      <point x="786" y="222"/>
      <point x="616" y="193"/>
      <point x="544" y="151" type="qcurve"/>
    </contour>
    <component base="uni0A47" xOffset="1306"/>
    <contour>
      <point x="1418" y="1248" type="move" name="mark0"/>
    </contour>
  </outline>
</glyph>
<glyph name="uni0A13" format="1">
  <advance width="1014"/>
  <unicode hex="0A13"/>
  <outline>
    <contour>
      <point x="763" y="699" type="line"/>
      <point x="763" y="718" type="line"/>
      <point x="730" y="718" type="line" smooth="yes"/>
      <point x="596" y="718"/>
      <point x="702" y="718"/>
      <point x="647" y="718" type="qcurve" smooth="yes"/>
      <point x="441" y="718"/>
      <point x="196" y="619"/>
      <point x="160" y="526" type="qcurve" smooth="yes"/>
      <point x="150" y="500" type="line"/>
      <point x="177" y="494" type="line"/>
      <point x="186" y="515" type="line" smooth="yes"/>
      <point x="226" y="608"/>
      <point x="453" y="699"/>
      <point x="653" y="699" type="qcurve" smooth="yes"/>
      <point x="674" y="699"/>
      <point x="591" y="699"/>
      <point x="732" y="699" type="qcurve" smooth="yes"/>
    </contour>
    <contour>
      <point x="-31" y="500" type="line"/>
      <point x="-31" y="481" type="line"/>
      <point x="1013" y="481" type="line"/>
      <point x="1013" y="500" type="line"/>
    </contour>
    <contour>
      <point x="800" y="491" type="line"/>
      <point x="800" y="486" type="line" smooth="yes"/>
      <point x="800" y="405"/>
      <point x="663" y="262"/>
      <point x="558" y="261" type="qcurve" smooth="yes"/>
      <point x="183" y="261" type="line"/>
      <point x="183" y="242" type="line"/>
      <point x="518" y="242" type="line" smooth="yes"/>
      <point x="582" y="242"/>
      <point x="714" y="181"/>
      <point x="714" y="127" type="qcurve" smooth="yes"/>
      <point x="714" y="87"/>
      <point x="618" y="34"/>
      <point x="541" y="34" type="qcurve" smooth="yes"/>
      <point x="368" y="34"/>
      <point x="126" y="316"/>
      <point x="172" y="484" type="qcurve" smooth="yes"/>
      <point x="174" y="490" type="line"/>
      <point x="146" y="496" type="line"/>
      <point x="145" y="488" type="line" smooth="yes"/>
      <point x="99" y="294"/>
      <point x="361" y="15"/>
      <point x="544" y="15" type="qcurve" smooth="yes"/>
      <point x="631" y="15"/>
      <point x="742" y="79"/>
      <point x="742" y="130" type="qcurve" smooth="yes"/>
      <point x="742" y="162"/>
      <point x="668" y="236"/>
      <point x="579" y="252" type="qcurve"/>
      <point x="578" y="246" type="line"/>
      <point x="682" y="256"/>
      <point x="828" y="389"/>
      <point x="828" y="486" type="qcurve" smooth="yes"/>
      <point x="828" y="491" type="line"/>
    </contour>
  </outline>
</glyph>
<glyph name="uni0A15" format="1">
  <advance width="921"/>
  <unicode hex="0A15"/>
  <outline>
    <contour>
      <point x="654" y="230" type="line"/>
      <point x="640" y="212" type="line"/>
      <point x="646" y="205" type="line" smooth="yes"/>
      <point x="682" y="158"/>
      <point x="731" y="71"/>
      <point x="746" y="10" type="qcurve" smooth="yes"/>
      <point x="748" y="0" type="line"/>
      <point x="778" y="2" type="line"/>
      <point x="774" y="16" type="line" smooth="yes"/>
      <point x="756" y="77"/>
      <point x="699" y="180"/>
      <point x="659" y="224" type="qcurve" smooth="yes"/>
    </contour>
    <contour>
      <point x="648" y="235" type="line"/>
      <point x="642" y="241" type="line" smooth="yes"/>
      <point x="593" y="290"/>
      <point x="438" y="355"/>
      <point x="354" y="355" type="qcurve" smooth="yes"/>
      <point x="237" y="355"/>
      <point x="122" y="273"/>
      <point x="122" y="223" type="qcurve" smooth="yes"/>
      <point x="122" y="170"/>
      <point x="248" y="76"/>
      <point x="361" y="76" type="qcurve" smooth="yes"/>
      <point x="515" y="76"/>
      <point x="734" y="272"/>
      <point x="734" y="446" type="qcurve" smooth="yes"/>
      <point x="734" y="490" type="line"/>
      <point x="706" y="490" type="line"/>
      <point x="706" y="441" type="line" smooth="yes"/>
      <point x="706" y="278"/>
      <point x="500" y="94"/>
      <point x="359" y="94" type="qcurve" smooth="yes"/>
      <point x="264" y="94"/>
      <point x="150" y="174"/>
      <point x="150" y="221" type="qcurve" smooth="yes"/>
      <point x="150" y="266"/>
      <point x="253" y="337"/>
      <point x="355" y="337" type="qcurve" smooth="yes"/>
      <point x="426" y="337"/>
      <point x="577" y="277"/>
      <point x="628" y="222" type="qcurve" smooth="yes"/>
      <point x="633" y="217" type="line"/>
    </contour>
    <contour>
      <point x="921" y="474" type="line"/>
      <point x="921" y="492" type="line"/>
      <point x="0" y="492" type="line"/>
      <point x="0" y="474" type="line"/>
    </contour>
  </outline>
</glyph>
<glyph name="uni0A18" format="1">
  <advance width="1162"/>
  <unicode hex="0A18"/>
  <outline>
    <contour>
      <point x="839" y="111" type="line" smooth="yes"/>
      <point x="756" y="111"/>
      <point x="632" y="174"/>
      <point x="601" y="244" type="qcurve"/>
      <point x="601" y="470" type="line"/>
      <point x="570" y="470" type="line"/>
      <point x="571" y="247" type="line"/>
      <point x="543" y="176"/>
      <point x="417" y="108"/>
      <point x="342" y="108" type="qcurve" smooth="yes"/>
      <point x="341" y="108" type="line" smooth="yes"/>
      <point x="300" y="108"/>
      <point x="209" y="134"/>
      <point x="182" y="154" type="qcurve"/>
      <point x="187" y="141" type="line"/>
      <point x="198" y="174"/>
      <point x="235" y="285"/>
      <point x="235" y="302" type="qcurve"/>
      <point x="233" y="320"/>
      <point x="198" y="479"/>
      <point x="195" y="492" type="qcurve"/>
      <point x="166" y="492" type="line"/>
      <point x="174" y="460"/>
      <point x="205" y="318"/>
      <point x="206" y="306" type="qcurve"/>
      <point x="206" y="288"/>
      <point x="170" y="179"/>
      <point x="157" y="143" type="qcurve"/>
      <point x="185" y="122"/>
      <point x="290" y="89"/>
      <point x="341" y="89" type="qcurve" smooth="yes"/>
      <point x="342" y="89" type="line" smooth="yes"/>
      <point x="429" y="89"/>
      <point x="558" y="161"/>
      <point x="591" y="226" type="qcurve"/>
      <point x="581" y="226" type="line"/>
      <point x="615" y="159"/>
      <point x="747" y="92"/>
      <point x="839" y="92" type="qcurve" smooth="yes"/>
      <point x="840" y="92" type="line" smooth="yes"/>
      <point x="859" y="92"/>
      <point x="929" y="99"/>
      <point x="946" y="102" type="qcurve" smooth="yes"/>
      <point x="970" y="108" type="line"/>
      <point x="970" y="126" type="line"/>
      <point x="946" y="121" type="line" smooth="yes"/>
      <point x="924" y="116"/>
      <point x="859" y="111"/>
      <point x="840" y="111" type="qcurve" smooth="yes"/>
    </contour>
    <contour>
      <point x="974" y="492" type="line"/>
      <point x="946" y="492" type="line"/>
      <point x="946" y="0" type="line"/>
      <point x="974" y="0" type="line"/>
    </contour>
    <contour>
      <point x="1162" y="474" type="line"/>
      <point x="1162" y="492" type="line"/>
      <point x="948" y="492" type="line"/>
      <point x="948" y="474" type="line"/>
    </contour>
    <contour>
      <point x="196" y="474" type="line"/>
      <point x="193" y="492" type="line"/>
      <point x="0" y="492" type="line"/>
      <point x="0" y="474" type="line"/>
    </contour>
  </outline>
</glyph>
<glyph name="uni0A19" format="1">
  <advance width="845"/>
  <unicode hex="0A19"/>
  <outline>
    <contour>
      <point x="620" y="114" type="line"/>
      <point x="603" y="123" type="line" smooth="yes"/>
      <point x="533" y="165"/>
      <point x="405" y="208"/>
      <point x="330" y="208" type="qcurve"/>
      <point x="329" y="208" type="line"/>
      <point x="245" y="208"/>
      <point x="149" y="146"/>
      <point x="149" y="109" type="qcurve"/>
      <point x="149" y="109" type="line"/>
      <point x="149" y="66"/>
      <point x="243" y="10"/>
      <point x="322" y="10" type="qcurve"/>
      <point x="323" y="10" type="line"/>
      <point x="464" y="10"/>
      <point x="706" y="160"/>
      <point x="706" y="241" type="qcurve"/>
      <point x="706" y="242" type="line"/>
      <point x="706" y="281"/>
      <point x="602" y="351"/>
      <point x="513" y="351" type="qcurve" smooth="yes"/>
      <point x="191" y="351" type="line"/>
      <point x="191" y="332" type="line"/>
      <point x="504" y="332" type="line" smooth="yes"/>
      <point x="586" y="332"/>
      <point x="676" y="274"/>
      <point x="676" y="238" type="qcurve"/>
      <point x="676" y="238" type="line"/>
      <point x="676" y="172"/>
      <point x="464" y="29"/>
      <point x="322" y="29" type="qcurve"/>
      <point x="322" y="29" type="line"/>
      <point x="257" y="29"/>
      <point x="178" y="73"/>
      <point x="178" y="108" type="qcurve"/>
      <point x="178" y="109" type="line"/>
      <point x="178" y="138"/>
      <point x="260" y="190"/>
      <point x="330" y="190" type="qcurve"/>
      <point x="330" y="190" type="line"/>
      <point x="392" y="190"/>
      <point x="514" y="152"/>
      <point x="584" y="109" type="qcurve" smooth="yes"/>
      <point x="600" y="99" type="line"/>
    </contour>
    <contour>
      <point x="845" y="476" type="line"/>
      <point x="845" y="495" type="line"/>
      <point x="0" y="495" type="line"/>
      <point x="0" y="476" type="line"/>
    </contour>
    <contour>
      <point x="215" y="492" type="line"/>
      <point x="187" y="492" type="line"/>
      <point x="187" y="332" type="line"/>
      <point x="215" y="332" type="line"/>
    </contour>
    <contour>
      <point x="761" y="5" type="line"/>
      <point x="780" y="19" type="line"/>
      <point x="623" y="112" type="line"/>
      <point x="605" y="97" type="line"/>
    </contour>
  </outline>
</glyph>
<glyph name="uni0A1A" format="1">
  <advance width="875"/>
  <unicode hex="0A1A"/>
  <outline>
    <contour>
      <point x="875" y="481" type="line"/>
      <point x="875" y="500" type="line"/>
      <point x="0" y="500" type="line"/>
      <point x="0" y="481" type="line"/>
    </contour>
    <contour>
      <point x="544" y="15" type="line"/>
      <point x="610" y="15"/>
      <point x="688" y="69"/>
      <point x="688" y="129" type="qcurve" smooth="yes"/>
      <point x="688" y="497" type="line"/>
      <point x="660" y="497" type="line"/>
      <point x="660" y="131" type="line" smooth="yes"/>
      <point x="660" y="80"/>
      <point x="597" y="34"/>
      <point x="546" y="34" type="qcurve"/>
      <point x="546" y="34" type="line"/>
      <point x="436" y="34"/>
      <point x="215" y="181"/>
      <point x="182" y="288" type="qcurve" smooth="yes"/>
      <point x="157" y="373" type="line"/>
      <point x="126" y="368" type="line"/>
      <point x="147" y="300" type="line" smooth="yes"/>
      <point x="184" y="180"/>
      <point x="417" y="15"/>
      <point x="543" y="15" type="qcurve"/>
    </contour>
    <contour>
      <point x="684" y="254" type="line"/>
      <point x="684" y="273" type="line"/>
      <point x="170" y="273" type="line"/>
      <point x="170" y="254" type="line"/>
    </contour>
  </outline>
</glyph>
<glyph name="uni0A1B" format="1">
  <advance width="947"/>
  <unicode hex="0A1B"/>
  <outline>
    <contour>
      <point x="114" y="78"/>
      <point x="302" y="15"/>
      <point x="477" y="15" type="qcurve" smooth="yes"/>
      <point x="669" y="15"/>
      <point x="854" y="81"/>
      <point x="854" y="131" type="qcurve" smooth="yes"/>
      <point x="854" y="175"/>
      <point x="680" y="236"/>
      <point x="478" y="236" type="qcurve" smooth="yes"/>
      <point x="285" y="236"/>
      <point x="114" y="171"/>
      <point x="114" y="132" type="qcurve" smooth="yes"/>
    </contour>
    <contour>
      <point x="474" y="27" type="line"/>
      <point x="502" y="27" type="line"/>
      <point x="502" y="224" type="line"/>
      <point x="474" y="224" type="line"/>
    </contour>
    <contour>
      <point x="321" y="34"/>
      <point x="145" y="89"/>
      <point x="145" y="129" type="qcurve" smooth="yes"/>
      <point x="145" y="165"/>
      <point x="300" y="218"/>
      <point x="478" y="218" type="qcurve" smooth="yes"/>
      <point x="665" y="218"/>
      <point x="822" y="164"/>
      <point x="822" y="129" type="qcurve" smooth="yes"/>
      <point x="822" y="90"/>
      <point x="647" y="34"/>
      <point x="481" y="34" type="qcurve" smooth="yes"/>
    </contour>
    <contour>
      <point x="756" y="358" type="line"/>
      <point x="756" y="493" type="line"/>
      <point x="728" y="493" type="line"/>
      <point x="728" y="358" type="line"/>
    </contour>
    <contour>
      <point x="268" y="209" type="line"/>
      <point x="294" y="216" type="line"/>
      <point x="284" y="220" type="line" smooth="yes"/>
      <point x="232" y="244"/>
      <point x="179" y="280"/>
      <point x="179" y="306" type="qcurve" smooth="yes"/>
      <point x="179" y="328"/>
      <point x="248" y="358"/>
      <point x="303" y="358" type="qcurve" smooth="yes"/>
      <point x="743" y="358" type="line"/>
      <point x="743" y="377" type="line"/>
      <point x="303" y="377" type="line" smooth="yes"/>
      <point x="230" y="377"/>
      <point x="149" y="337"/>
      <point x="149" y="307" type="qcurve" smooth="yes"/>
      <point x="149" y="279"/>
      <point x="206" y="234"/>
      <point x="257" y="213" type="qcurve" smooth="yes"/>
    </contour>
    <contour>
      <point x="958" y="481" type="line"/>
      <point x="958" y="500" type="line"/>
      <point x="-62" y="500" type="line"/>
      <point x="-62" y="481" type="line"/>
    </contour>
  </outline>
</glyph>
<glyph name="uni0A1C" format="1">
  <advance width="862"/>
  <unicode hex="0A1C"/>
  <outline>
    <contour>
      <point x="213" y="254" type="line"/>
      <point x="213" y="235" type="line"/>
      <point x="671" y="235" type="line"/>
      <point x="671" y="254" type="line"/>
    </contour>
    <contour>
      <point x="209" y="254" type="line"/>
      <point x="209" y="0" type="line"/>
      <point x="237" y="0" type="line"/>
      <point x="237" y="254" type="line"/>
    </contour>
    <contour>
      <point x="236" y="246" type="line"/>
      <point x="157" y="353" type="line"/>
      <point x="130" y="343" type="line"/>
      <point x="214" y="238" type="line"/>
    </contour>
    <contour>
      <point x="675" y="490" type="line"/>
      <point x="647" y="490" type="line"/>
      <point x="647" y="0" type="line"/>
      <point x="675" y="0" type="line"/>
    </contour>
    <contour>
      <point x="862" y="474" type="line"/>
      <point x="862" y="492" type="line"/>
      <point x="0" y="492" type="line"/>
      <point x="0" y="474" type="line"/>
    </contour>
  </outline>
</glyph>
<glyph name="uni0A1D" format="1">
  <advance width="934"/>
  <unicode hex="0A1D"/>
  <outline>
    <contour>
      <point x="965" y="473" type="line"/>
      <point x="965" y="492" type="line"/>
      <point x="-53" y="492" type="line"/>
      <point x="-53" y="473" type="line"/>
    </contour>
    <contour>
      <point x="97" y="292" type="line"/>
      <point x="98" y="273" type="line"/>
      <point x="599" y="273" type="line" smooth="yes"/>
      <point x="690" y="273"/>
      <point x="784" y="234"/>
      <point x="784" y="211" type="qcurve" smooth="yes"/>
      <point x="784" y="181"/>
      <point x="683" y="140"/>
      <point x="546" y="136" type="qcurve"/>
      <point x="495" y="137"/>
      <point x="328" y="138"/>
      <point x="270" y="139" type="qcurve"/>
      <point x="268" y="120" type="line"/>
      <point x="316" y="116"/>
      <point x="495" y="117"/>
      <point x="540" y="117" type="qcurve"/>
      <point x="574" y="106"/>
      <point x="713" y="40"/>
      <point x="766" y="-1" type="qcurve"/>
      <point x="789" y="13" type="line"/>
      <point x="752" y="40"/>
      <point x="621" y="109"/>
      <point x="566" y="128" type="qcurve"/>
      <point x="566" y="120" type="line"/>
      <point x="708" y="123"/>
      <point x="814" y="176"/>
      <point x="814" y="209" type="qcurve" smooth="yes"/>
      <point x="814" y="242"/>
      <point x="713" y="292"/>
      <point x="610" y="292" type="qcurve" smooth="yes"/>
    </contour>
    <contour>
      <point x="561" y="273"/>
      <point x="720" y="385"/>
      <point x="750" y="476" type="qcurve" smooth="yes"/>
      <point x="753" y="483" type="line"/>
      <point x="722" y="483" type="line"/>
      <point x="719" y="475" type="line" smooth="yes"/>
      <point x="695" y="396"/>
      <point x="553" y="291"/>
      <point x="478" y="291" type="qcurve" smooth="yes"/>
      <point x="392" y="291"/>
      <point x="252" y="408"/>
      <point x="227" y="477" type="qcurve" smooth="yes"/>
      <point x="225" y="484" type="line"/>
      <point x="192" y="484" type="line"/>
      <point x="194" y="478" type="line" smooth="yes"/>
      <point x="231" y="392"/>
      <point x="387" y="273"/>
      <point x="478" y="273" type="qcurve" smooth="yes"/>
    </contour>
  </outline>
</glyph>
<glyph name="uni0A1E" format="1">
  <advance width="986"/>
  <unicode hex="0A1E"/>
  <outline>
    <contour>
      <point x="228" y="500" type="line"/>
      <point x="198" y="500" type="line"/>
      <point x="205" y="485" type="line" smooth="yes"/>
      <point x="218" y="456"/>
      <point x="266" y="383"/>
      <point x="299" y="348" type="qcurve" smooth="yes"/>
      <point x="308" y="339" type="line"/>
      <point x="338" y="339" type="line"/>
      <point x="328" y="348" type="line" smooth="yes"/>
      <point x="298" y="379"/>
      <point x="249" y="451"/>
      <point x="234" y="485" type="qcurve" smooth="yes"/>
    </contour>
    <component base="uni0A35"/>
  </outline>
</glyph>
<glyph name="uni0A1F" format="1">
  <advance width="890"/>
  <unicode hex="0A1F"/>
  <outline>
    <contour>
      <point x="623" y="311" type="line"/>
      <point x="623" y="329" type="line"/>
      <point x="593" y="329" type="line" smooth="yes"/>
      <point x="446" y="329"/>
      <point x="196" y="241"/>
      <point x="110" y="156" type="qcurve"/>
      <point x="171" y="102"/>
      <point x="409" y="15"/>
      <point x="503" y="15" type="qcurve" smooth="yes"/>
      <point x="550" y="15"/>
      <point x="690" y="45"/>
      <point x="740" y="67" type="qcurve"/>
      <point x="730" y="83" type="line"/>
      <point x="674" y="61"/>
      <point x="546" y="34"/>
      <point x="506" y="34" type="qcurve" smooth="yes"/>
      <point x="427" y="34"/>
      <point x="201" y="111"/>
      <point x="139" y="163" type="qcurve"/>
      <point x="139" y="148" type="line"/>
      <point x="226" y="230"/>
      <point x="460" y="311"/>
      <point x="593" y="311" type="qcurve" smooth="yes"/>
    </contour>
    <contour>
      <point x="599" y="311" type="line"/>
      <point x="627" y="311" type="line"/>
      <point x="627" y="497" type="line"/>
      <point x="599" y="497" type="line"/>
    </contour>
    <contour>
      <point x="890" y="481" type="line"/>
      <point x="890" y="500" type="line"/>
      <point x="0" y="500" type="line"/>
      <point x="0" y="481" type="line"/>
    </contour>
  </outline>
</glyph>
<glyph name="uni0A20" format="1">
  <advance width="934"/>
  <unicode hex="0A20"/>
  <outline>
    <contour>
      <point x="979" y="481" type="line"/>
      <point x="979" y="500" type="line"/>
      <point x="-50" y="500" type="line"/>
      <point x="-50" y="481" type="line"/>
    </contour>
    <contour>
      <point x="478" y="500" type="line"/>
      <point x="450" y="500" type="line"/>
      <point x="450" y="349" type="line"/>
      <point x="478" y="349" type="line"/>
    </contour>
    <contour>
      <point x="296" y="34"/>
      <point x="150" y="116"/>
      <point x="150" y="161" type="qcurve" smooth="yes"/>
      <point x="150" y="212"/>
      <point x="309" y="303"/>
      <point x="464" y="340" type="qcurve"/>
      <point x="641" y="294"/>
      <point x="784" y="208"/>
      <point x="784" y="161" type="qcurve" smooth="yes"/>
      <point x="784" y="116"/>
      <point x="611" y="34"/>
      <point x="463" y="34" type="qcurve" smooth="yes"/>
    </contour>
    <contour>
      <point x="635" y="15"/>
      <point x="814" y="111"/>
      <point x="814" y="162" type="qcurve" smooth="yes"/>
      <point x="814" y="207"/>
      <point x="680" y="308"/>
      <point x="474" y="357" type="qcurve"/>
      <point x="457" y="357" type="line"/>
      <point x="262" y="307"/>
      <point x="121" y="211"/>
      <point x="121" y="162" type="qcurve" smooth="yes"/>
      <point x="121" y="113"/>
      <point x="271" y="15"/>
      <point x="463" y="15" type="qcurve" smooth="yes"/>
    </contour>
  </outline>
</glyph>
<glyph name="uni0A21" format="1">
  <advance width="927"/>
  <unicode hex="0A21"/>
  <outline>
    <contour>
      <point x="937" y="481" type="line"/>
      <point x="937" y="500" type="line"/>
      <point x="3" y="500" type="line"/>
      <point x="3" y="481" type="line"/>
    </contour>
    <contour>
      <point x="300" y="34"/>
      <point x="189" y="86"/>
      <point x="189" y="126" type="qcurve" smooth="yes"/>
      <point x="189" y="146"/>
      <point x="256" y="184"/>
      <point x="316" y="184" type="qcurve" smooth="yes"/>
      <point x="404" y="184"/>
      <point x="534" y="103"/>
      <point x="570" y="43" type="qcurve" smooth="yes"/>
      <point x="576" y="32" type="line"/>
      <point x="602" y="37" type="line"/>
      <point x="596" y="49" type="line" smooth="yes"/>
      <point x="562" y="112"/>
      <point x="416" y="202"/>
      <point x="316" y="202" type="qcurve" smooth="yes"/>
      <point x="239" y="202"/>
      <point x="158" y="152"/>
      <point x="158" y="126" type="qcurve" smooth="yes"/>
      <point x="158" y="80"/>
      <point x="296" y="15"/>
      <point x="435" y="15" type="qcurve" smooth="yes"/>
      <point x="581" y="15"/>
      <point x="774" y="95"/>
      <point x="774" y="160" type="qcurve" smooth="yes"/>
      <point x="774" y="211"/>
      <point x="651" y="298"/>
      <point x="523" y="321" type="qcurve"/>
      <point x="523" y="313" type="line"/>
      <point x="634" y="323"/>
      <point x="749" y="391"/>
      <point x="749" y="460" type="qcurve" smooth="yes"/>
      <point x="749" y="500" type="line"/>
      <point x="721" y="500" type="line"/>
      <point x="721" y="449" type="line" smooth="yes"/>
      <point x="721" y="391"/>
      <point x="567" y="325"/>
      <point x="418" y="327" type="qcurve" smooth="yes"/>
      <point x="252" y="327" type="line"/>
      <point x="258" y="308" type="line"/>
      <point x="417" y="308" type="line" smooth="yes"/>
      <point x="550" y="308"/>
      <point x="745" y="217"/>
      <point x="745" y="159" type="qcurve" smooth="yes"/>
      <point x="745" y="110"/>
      <point x="573" y="34"/>
      <point x="438" y="34" type="qcurve" smooth="yes"/>
    </contour>
  </outline>
</glyph>
<glyph name="uni0A25" format="1">
  <advance width="879"/>
  <unicode hex="0A25"/>
  <outline>
    <contour>
      <point x="688" y="307" type="line"/>
      <point x="196" y="307" type="line"/>
      <point x="196" y="288" type="line"/>
      <point x="688" y="288" type="line"/>
    </contour>
    <contour>
      <point x="692" y="490" type="line"/>
      <point x="664" y="490" type="line"/>
      <point x="664" y="0" type="line"/>
      <point x="692" y="0" type="line"/>
    </contour>
    <contour>
      <point x="880" y="474" type="line"/>
      <point x="880" y="492" type="line"/>
      <point x="-1" y="492" type="line"/>
      <point x="-1" y="474" type="line"/>
    </contour>
    <contour>
      <point x="150" y="492" type="line"/>
      <point x="158" y="460"/>
      <point x="189" y="318"/>
      <point x="190" y="306" type="qcurve"/>
      <point x="190" y="288"/>
      <point x="154" y="179"/>
      <point x="141" y="143" type="qcurve"/>
      <point x="190" y="108"/>
      <point x="350" y="64"/>
      <point x="430" y="64" type="qcurve"/>
      <point x="431" y="64" type="line"/>
      <point x="492" y="64"/>
      <point x="618" y="77"/>
      <point x="664" y="85" type="qcurve" smooth="yes"/>
      <point x="688" y="90" type="line"/>
      <point x="688" y="110" type="line"/>
      <point x="664" y="105" type="line" smooth="yes"/>
      <point x="611" y="94"/>
      <point x="490" y="82"/>
      <point x="431" y="82" type="qcurve"/>
      <point x="430" y="82" type="line"/>
      <point x="363" y="82"/>
      <point x="212" y="122"/>
      <point x="166" y="154" type="qcurve"/>
      <point x="171" y="141" type="line"/>
      <point x="182" y="174"/>
      <point x="219" y="285"/>
      <point x="219" y="302" type="qcurve"/>
      <point x="217" y="320"/>
      <point x="182" y="479"/>
      <point x="179" y="492" type="qcurve"/>
    </contour>
  </outline>
</glyph>
<glyph name="uni0A26" format="1">
  <advance width="886"/>
  <unicode hex="0A26"/>
  <outline>
    <contour>
      <point x="886" y="485" type="line"/>
      <point x="886" y="504" type="line"/>
      <point x="0" y="504" type="line"/>
      <point x="0" y="485" type="line"/>
    </contour>
    <contour>
      <point x="671" y="274" type="line"/>
      <point x="699" y="274" type="line"/>
      <point x="699" y="502" type="line"/>
      <point x="671" y="502" type="line"/>
    </contour>
    <contour>
      <point x="699" y="269" type="line"/>
      <point x="699" y="287" type="line"/>
      <point x="177" y="287" type="line"/>
      <point x="177" y="269" type="line"/>
    </contour>
    <contour>
      <point x="165" y="382" type="line"/>
      <point x="134" y="376" type="line"/>
      <point x="166" y="284" type="line" smooth="yes"/>
      <point x="209" y="154"/>
      <point x="440" y="24"/>
      <point x="585" y="24" type="qcurve" smooth="yes"/>
      <point x="586" y="24" type="line"/>
      <point x="645" y="24"/>
      <point x="739" y="31"/>
      <point x="772" y="36" type="qcurve"/>
      <point x="768" y="55" type="line"/>
      <point x="730" y="49"/>
      <point x="648" y="43"/>
      <point x="593" y="43" type="qcurve" smooth="yes"/>
      <point x="592" y="43" type="line"/>
      <point x="455" y="43"/>
      <point x="233" y="166"/>
      <point x="195" y="285" type="qcurve" smooth="yes"/>
    </contour>
  </outline>
</glyph>
<glyph name="uni0A27" format="1">
  <advance width="880.0"/>
  <unicode hex="0A27"/>
  <outline>
    <contour>
      <point x="693" y="490" type="line"/>
      <point x="665" y="490" type="line"/>
      <point x="665" y="0" type="line"/>
      <point x="693" y="0" type="line"/>
    </contour>
    <contour>
      <point x="881" y="474" type="line"/>
      <point x="881" y="492" type="line"/>
      <point x="0" y="492" type="line"/>
      <point x="0" y="474" type="line"/>
    </contour>
    <contour>
      <point x="166" y="492" type="line"/>
      <point x="173" y="460"/>
      <point x="204" y="318"/>
      <point x="206" y="306" type="qcurve"/>
      <point x="206" y="288"/>
      <point x="169" y="179"/>
      <point x="156" y="143" type="qcurve"/>
      <point x="205" y="108"/>
      <point x="361" y="64"/>
      <point x="441" y="64" type="qcurve"/>
      <point x="442" y="64" type="line"/>
      <point x="502" y="64"/>
      <point x="619" y="77"/>
      <point x="665" y="86" type="qcurve" smooth="yes"/>
      <point x="689" y="91" type="line"/>
      <point x="689" y="110" type="line"/>
      <point x="665" y="106" type="line" smooth="yes"/>
      <point x="612" y="95"/>
      <point x="501" y="82"/>
      <point x="442" y="82" type="qcurve"/>
      <point x="441" y="82" type="line"/>
      <point x="373" y="82"/>
      <point x="227" y="122"/>
      <point x="181" y="154" type="qcurve"/>
      <point x="186" y="141" type="line"/>
      <point x="197" y="174"/>
      <point x="234" y="285"/>
      <point x="234" y="302" type="qcurve"/>
      <point x="233" y="320"/>
      <point x="197" y="479"/>
      <point x="194" y="492" type="qcurve"/>
    </contour>
  </outline>
</glyph>
<glyph name="uni0A2A" format="1">
  <advance width="858"/>
  <unicode hex="0A2A"/>
  <outline>
    <contour>
      <point x="670" y="492" type="line"/>
      <point x="642" y="492" type="line"/>
      <point x="642" y="0" type="line"/>
      <point x="670" y="0" type="line"/>
    </contour>
    <contour>
      <point x="858" y="474" type="line"/>
      <point x="858" y="492" type="line"/>
      <point x="644" y="492" type="line"/>
      <point x="644" y="474" type="line"/>
    </contour>
    <contour>
      <point x="166" y="492" type="line"/>
      <point x="174" y="460"/>
      <point x="205" y="318"/>
      <point x="206" y="306" type="qcurve"/>
      <point x="206" y="288"/>
      <point x="170" y="179"/>
      <point x="157" y="143" type="qcurve"/>
      <point x="206" y="108"/>
      <point x="350" y="64"/>
      <point x="430" y="64" type="qcurve"/>
      <point x="431" y="64" type="line"/>
      <point x="485" y="64"/>
      <point x="596" y="73"/>
      <point x="642" y="81" type="qcurve" smooth="yes"/>
      <point x="666" y="85" type="line"/>
      <point x="666" y="106" type="line"/>
      <point x="642" y="101" type="line" smooth="yes"/>
      <point x="589" y="91"/>
      <point x="483" y="82"/>
      <point x="431" y="82" type="qcurve"/>
      <point x="430" y="82" type="line"/>
      <point x="363" y="82"/>
      <point x="228" y="122"/>
      <point x="182" y="154" type="qcurve"/>
      <point x="187" y="141" type="line"/>
      <point x="198" y="174"/>
      <point x="235" y="285"/>
      <point x="235" y="302" type="qcurve"/>
      <point x="233" y="320"/>
      <point x="198" y="479"/>
      <point x="195" y="492" type="qcurve"/>
    </contour>
    <contour>
      <point x="196" y="474" type="line"/>
      <point x="193" y="492" type="line"/>
      <point x="0" y="492" type="line"/>
      <point x="0" y="474" type="line"/>
    </contour>
  </outline>
</glyph>
<glyph name="uni0A2E" format="1">
  <advance width="937"/>
  <unicode hex="0A2E"/>
  <outline>
    <contour>
      <point x="308" y="261"/>
      <point x="259" y="437"/>
      <point x="245" y="474" type="qcurve" smooth="yes"/>
      <point x="241" y="485" type="line"/>
      <point x="212" y="485" type="line"/>
      <point x="215" y="474" type="line" smooth="yes"/>
      <point x="225" y="442"/>
      <point x="280" y="257"/>
      <point x="286" y="233" type="qcurve"/>
      <point x="276" y="210"/>
      <point x="185" y="69"/>
      <point x="173" y="53" type="qcurve"/>
      <point x="206" y="46" type="line"/>
      <point x="218" y="64"/>
      <point x="305" y="201"/>
      <point x="316" y="229" type="qcurve"/>
    </contour>
    <contour>
      <point x="298" y="243" type="line"/>
      <point x="298" y="225" type="line"/>
      <point x="746" y="225" type="line"/>
      <point x="746" y="243" type="line"/>
    </contour>
    <contour>
      <point x="750" y="490" type="line"/>
      <point x="722" y="490" type="line"/>
      <point x="722" y="0" type="line"/>
      <point x="750" y="0" type="line"/>
    </contour>
    <contour>
      <point x="937" y="474" type="line"/>
      <point x="937" y="492" type="line"/>
      <point x="721" y="492" type="line"/>
      <point x="721" y="474" type="line"/>
    </contour>
    <contour>
      <point x="245" y="474" type="line"/>
      <point x="238" y="492" type="line"/>
      <point x="0" y="492" type="line"/>
      <point x="0" y="474" type="line"/>
    </contour>
  </outline>
</glyph>
<glyph name="uni0A35" format="1">
  <advance width="986"/>
  <unicode hex="0A35"/>
  <outline>
    <contour>
      <point x="798" y="330" type="line"/>
      <point x="798" y="501" type="line"/>
      <point x="770" y="501" type="line"/>
      <point x="770" y="330" type="line"/>
    </contour>
    <contour>
      <point x="373" y="185" type="line"/>
      <point x="344" y="185" type="line"/>
      <point x="346" y="173" type="line" smooth="yes"/>
      <point x="361" y="98"/>
      <point x="510" y="24"/>
      <point x="644" y="24" type="qcurve" smooth="yes"/>
      <point x="821" y="24" type="line"/>
      <point x="821" y="43" type="line"/>
      <point x="645" y="43" type="line" smooth="yes"/>
      <point x="522" y="43"/>
      <point x="388" y="104"/>
      <point x="375" y="173" type="qcurve" smooth="yes"/>
    </contour>
    <contour>
      <point x="822" y="173" type="line"/>
      <point x="822" y="191" type="line"/>
      <point x="349" y="191" type="line" smooth="yes"/>
      <point x="246" y="191"/>
      <point x="157" y="237"/>
      <point x="157" y="271" type="qcurve" smooth="yes"/>
      <point x="157" y="271" type="line"/>
      <point x="157" y="297"/>
      <point x="215" y="330"/>
      <point x="286" y="330" type="qcurve" smooth="yes"/>
      <point x="794" y="330" type="line"/>
      <point x="794" y="348" type="line"/>
      <point x="283" y="348" type="line" smooth="yes"/>
      <point x="200" y="348"/>
      <point x="126" y="306"/>
      <point x="126" y="274" type="qcurve" smooth="yes"/>
      <point x="126" y="273" type="line"/>
      <point x="126" y="230"/>
      <point x="235" y="173"/>
      <point x="347" y="173" type="qcurve" smooth="yes"/>
    </contour>
    <contour>
      <point x="986" y="485" type="line"/>
      <point x="986" y="504" type="line"/>
      <point x="-1" y="504" type="line"/>
      <point x="-1" y="485" type="line"/>
    </contour>
  </outline>
</glyph>
<glyph name="uni0A3E" format="1">
  <advance width="377"/>
  <unicode hex="0A3E"/>
  <outline>
    <contour>
      <point x="377" y="625" type="line"/>
      <point x="377" y="643" type="line"/>
      <point x="0" y="643" type="line"/>
      <point x="0" y="625" type="line"/>
    </contour>
    <contour>
      <point x="174" y="643" type="line"/>
      <point x="174" y="311" type="line"/>
      <point x="202" y="311" type="line"/>
      <point x="202" y="643" type="line"/>
    </contour>
  </outline>
</glyph>
<glyph name="uni0A3F" format="1">
  <advance width="377"/>
  <unicode hex="0A3F"/>
  <outline>
    <contour>
      <point x="175" y="0" type="line"/>
      <point x="203" y="0" type="line"/>
      <point x="203" y="565" type="line" smooth="yes"/>
      <point x="203" y="657"/>
      <point x="315" y="753"/>
      <point x="423" y="753" type="qcurve" smooth="yes"/>
      <point x="502" y="753"/>
      <point x="608" y="692"/>
      <point x="630" y="647" type="qcurve" smooth="yes"/>
      <point x="635" y="635" type="line"/>
      <point x="663" y="636" type="line"/>
      <point x="658" y="648" type="line" smooth="yes"/>
      <point x="634" y="703"/>
      <point x="507" y="772"/>
      <point x="422" y="772" type="qcurve" smooth="yes"/>
      <point x="304" y="772"/>
      <point x="175" y="669"/>
      <point x="175" y="573" type="qcurve" smooth="yes"/>
    </contour>
    <contour>
      <point x="378" y="474" type="line"/>
      <point x="378" y="492" type="line"/>
      <point x="1" y="492" type="line"/>
      <point x="1" y="474" type="line"/>
    </contour>
  </outline>
</glyph>
<glyph name="uni0A40" format="1">
  <advance width="378"/>
  <unicode hex="0A40"/>
  <outline>
    <contour>
      <point x="203" y="573" type="line" smooth="yes"/>
      <point x="203" y="669"/>
      <point x="74" y="772"/>
      <point x="-43" y="772" type="qcurve" smooth="yes"/>
      <point x="-129" y="772"/>
      <point x="-255" y="703"/>
      <point x="-279" y="648" type="qcurve" smooth="yes"/>
      <point x="-285" y="636" type="line"/>
      <point x="-257" y="635" type="line"/>
      <point x="-251" y="647" type="line" smooth="yes"/>
      <point x="-230" y="692"/>
      <point x="-124" y="753"/>
      <point x="-45" y="753" type="qcurve" smooth="yes"/>
      <point x="64" y="753"/>
      <point x="175" y="657"/>
      <point x="175" y="565" type="qcurve" smooth="yes"/>
      <point x="175" y="0" type="line"/>
      <point x="203" y="0" type="line"/>
    </contour>
    <contour>
      <point x="378" y="474" type="line"/>
      <point x="378" y="492" type="line"/>
      <point x="1" y="492" type="line"/>
      <point x="1" y="474" type="line"/>
    </contour>
  </outline>
</glyph>
<glyph name="uni0A41" format="1">
  <advance width="6"/>
  <unicode hex="0A41"/>
  <outline>
    <contour>
      <point x="-730" y="-261" type="line"/>
      <point x="-682" y="-272"/>
      <point x="-537" y="-294"/>
      <point x="-455" y="-294" type="qcurve" smooth="yes"/>
      <point x="-372" y="-294"/>
      <point x="-216" y="-272"/>
      <point x="-163" y="-261" type="qcurve"/>
      <point x="-163" y="-243" type="line"/>
      <point x="-218" y="-254"/>
      <point x="-361" y="-275"/>
      <point x="-455" y="-275" type="qcurve" smooth="yes"/>
      <point x="-550" y="-275"/>
      <point x="-675" y="-254"/>
      <point x="-730" y="-243" type="qcurve"/>
    </contour>
  </outline>
</glyph>
<glyph name="uni0A42" format="1">
  <advance width="6"/>
  <unicode hex="0A42"/>
  <outline>
    <contour>
      <point x="-727" y="-375" type="line"/>
      <point x="-679" y="-386"/>
      <point x="-534" y="-406"/>
      <point x="-452" y="-406" type="qcurve" smooth="yes"/>
      <point x="-368" y="-406"/>
      <point x="-213" y="-387"/>
      <point x="-160" y="-375" type="qcurve"/>
      <point x="-160" y="-357" type="line"/>
      <point x="-215" y="-368"/>
      <point x="-358" y="-387"/>
      <point x="-452" y="-387" type="qcurve" smooth="yes"/>
      <point x="-547" y="-387"/>
      <point x="-672" y="-368"/>
      <point x="-727" y="-357" type="qcurve"/>
    </contour>
    <contour>
      <point x="-711" y="-501" type="line"/>
      <point x="-663" y="-512"/>
      <point x="-527" y="-530"/>
      <point x="-452" y="-530" type="qcurve" smooth="yes"/>
      <point x="-376" y="-530"/>
      <point x="-229" y="-513"/>
      <point x="-176" y="-501" type="qcurve"/>
      <point x="-176" y="-483" type="line"/>
      <point x="-231" y="-495"/>
      <point x="-365" y="-511"/>
      <point x="-452" y="-511" type="qcurve" smooth="yes"/>
      <point x="-540" y="-511"/>
      <point x="-656" y="-495"/>
      <point x="-711" y="-483" type="qcurve"/>
    </contour>
  </outline>
</glyph>
<glyph name="uni0A47" format="1">
  <advance width="8.0"/>
  <unicode hex="0A47"/>
  <outline>
    <contour>
      <point x="-273" y="1198" type="line"/>
      <point x="-213" y="945" type="line"/>
      <point x="-184" y="945" type="line"/>
      <point x="-244" y="1202" type="line"/>
    </contour>
    <contour>
      <point x="-490" y="944" type="line"/>
      <point x="-550" y="1201" type="line"/>
      <point x="-578" y="1197" type="line"/>
      <point x="-518" y="944" type="line"/>
    </contour>
  </outline>
</glyph>
<glyph name="uni0A4B" format="1">
  <advance width="3"/>
  <unicode hex="0A4B"/>
  <outline>
    <contour>
      <point x="-397" y="1279"/>
      <point x="-488" y="1238"/>
      <point x="-548" y="1238" type="qcurve" smooth="yes"/>
      <point x="-576" y="1238"/>
      <point x="-632" y="1263"/>
      <point x="-650" y="1291" type="qcurve" smooth="yes"/>
      <point x="-668" y="1320" type="line"/>
      <point x="-691" y="1309" type="line"/>
      <point x="-678" y="1287" type="line" smooth="yes"/>
      <point x="-657" y="1254"/>
      <point x="-583" y="1220"/>
      <point x="-544" y="1220" type="qcurve" smooth="yes"/>
      <point x="-483" y="1220"/>
      <point x="-393" y="1261"/>
      <point x="-327" y="1261" type="qcurve" smooth="yes"/>
      <point x="-268" y="1261"/>
      <point x="-214" y="1220"/>
      <point x="-214" y="1189" type="qcurve" smooth="yes"/>
      <point x="-214" y="1146" type="line"/>
      <point x="-187" y="1146" type="line"/>
      <point x="-187" y="1190" type="line" smooth="yes"/>
      <point x="-187" y="1230"/>
      <point x="-260" y="1279"/>
      <point x="-325" y="1279" type="qcurve" smooth="yes"/>
    </contour>
  </outline>
</glyph>
<glyph name="uni0A4C" format="1">
  <advance width="0.0"/>
  <unicode hex="0A4C"/>
  <outline>
    <contour>
      <point x="-342" y="1279"/>
      <point x="-392" y="1267"/>
      <point x="-431" y="1267" type="qcurve" smooth="yes"/>
      <point x="-464" y="1267"/>
      <point x="-519" y="1307"/>
      <point x="-522" y="1354" type="qcurve"/>
      <point x="-546" y="1336" type="line"/>
      <point x="-537" y="1293"/>
      <point x="-473" y="1249"/>
      <point x="-422" y="1249" type="qcurve" smooth="yes"/>
      <point x="-404" y="1248"/>
      <point x="-365" y="1255"/>
      <point x="-341" y="1264" type="qcurve"/>
      <point x="-337" y="1268"/>
      <point x="-325" y="1279"/>
      <point x="-320" y="1290" type="qcurve"/>
    </contour>
    <contour>
      <point x="-294" y="1143" type="line"/>
      <point x="-313" y="1163"/>
      <point x="-342" y="1198"/>
      <point x="-342" y="1218" type="qcurve" smooth="yes"/>
      <point x="-342" y="1253"/>
      <point x="-275" y="1298"/>
      <point x="-214" y="1298" type="qcurve" smooth="yes"/>
      <point x="-153" y="1298"/>
      <point x="-89" y="1253"/>
      <point x="-89" y="1218" type="qcurve" smooth="yes"/>
      <point x="-89" y="1200"/>
      <point x="-112" y="1163"/>
      <point x="-130" y="1143" type="qcurve"/>
      <point x="-98" y="1143" type="line"/>
      <point x="-83" y="1162"/>
      <point x="-60" y="1197"/>
      <point x="-60" y="1215" type="qcurve" smooth="yes"/>
      <point x="-60" y="1262"/>
      <point x="-143" y="1316"/>
      <point x="-212" y="1316" type="qcurve" smooth="yes"/>
      <point x="-284" y="1316"/>
      <point x="-371" y="1264"/>
      <point x="-371" y="1215" type="qcurve" smooth="yes"/>
      <point x="-371" y="1197"/>
      <point x="-340" y="1156"/>
      <point x="-327" y="1143" type="qcurve"/>
    </contour>
  </outline>
</glyph>
<glyph name="uni0A4D" format="1">
  <advance width="3"/>
  <unicode hex="0A4D"/>
  <outline>
    <contour>
      <point x="-384" y="-243" type="line"/>
      <point x="-287" y="-247"/>
      <point x="-141" y="-288"/>
      <point x="-30" y="-357" type="qcurve"/>
      <point x="-15" y="-343" type="line"/>
      <point x="-103" y="-285"/>
      <point x="-278" y="-226"/>
      <point x="-386" y="-225" type="qcurve"/>
    </contour>
  </outline>
</glyph>
<glyph name="uni0A66" format="1">
  <advance width="781"/>
  <unicode hex="0A66"/>
  <outline>
    <contour>
      <point x="266" y="473"/>
      <point x="91" y="341"/>
      <point x="91" y="239" type="qcurve" smooth="yes"/>
      <point x="91" y="139"/>
      <point x="266" y="1"/>
      <point x="390" y="1" type="qcurve" smooth="yes"/>
      <point x="515" y="1"/>
      <point x="690" y="139"/>
      <point x="690" y="239" type="qcurve" smooth="yes"/>
      <point x="690" y="341"/>
      <point x="515" y="473"/>
      <point x="390" y="473" type="qcurve" smooth="yes"/>
    </contour>
    <contour>
      <point x="502" y="453"/>
      <point x="661" y="331"/>
      <point x="661" y="238" type="qcurve" smooth="yes"/>
      <point x="661" y="146"/>
      <point x="502" y="21"/>
      <point x="390" y="21" type="qcurve" smooth="yes"/>
      <point x="277" y="21"/>
      <point x="120" y="146"/>
      <point x="120" y="238" type="qcurve" smooth="yes"/>
      <point x="120" y="331"/>
      <point x="277" y="453"/>
      <point x="390" y="453" type="qcurve" smooth="yes"/>
    </contour>
  </outline>
</glyph>
<glyph name="uni0A6A" format="1">
  <advance width="859"/>
  <unicode hex="0A6A"/>
  <outline>
    <contour>
      <point x="217" y="81"/>
      <point x="318" y="-3"/>
      <point x="423" y="-3" type="qcurve" smooth="yes"/>
      <point x="533" y="-3"/>
      <point x="630" y="79"/>
      <point x="630" y="123" type="qcurve" smooth="yes"/>
      <point x="630" y="154"/>
      <point x="584" y="220"/>
      <point x="536" y="250" type="qcurve" smooth="yes"/>
      <point x="449" y="306"/>
      <point x="234" y="441"/>
      <point x="124" y="476" type="qcurve"/>
      <point x="106" y="462" type="line"/>
      <point x="201" y="430"/>
      <point x="419" y="298"/>
      <point x="512" y="239" type="qcurve" smooth="yes"/>
      <point x="556" y="210"/>
      <point x="600" y="148"/>
      <point x="600" y="124" type="qcurve" smooth="yes"/>
      <point x="600" y="82"/>
      <point x="511" y="16"/>
      <point x="423" y="16" type="qcurve" smooth="yes"/>
      <point x="338" y="16"/>
      <point x="247" y="83"/>
      <point x="247" y="122" type="qcurve" smooth="yes"/>
      <point x="247" y="152"/>
      <point x="292" y="213"/>
      <point x="333" y="239" type="qcurve" smooth="yes"/>
      <point x="414" y="291"/>
      <point x="627" y="417"/>
      <point x="753" y="462" type="qcurve"/>
      <point x="738" y="474" type="line"/>
      <point x="604" y="432"/>
      <point x="394" y="304"/>
      <point x="311" y="251" type="qcurve" smooth="yes"/>
      <point x="263" y="220"/>
      <point x="217" y="158"/>
      <point x="217" y="121" type="qcurve" smooth="yes"/>
    </contour>
  </outline>
</glyph>
<glyph name="uni0A6D" format="1">
  <advance width="787"/>
  <unicode hex="0A6D"/>
  <outline>
    <contour>
      <point x="618" y="516" type="line"/>
      <point x="568" y="516" type="line" smooth="yes"/>
      <point x="517" y="515"/>
      <point x="468" y="481"/>
      <point x="468" y="453" type="qcurve" smooth="yes"/>
      <point x="468" y="446"/>
      <point x="478" y="417"/>
      <point x="482" y="409" type="qcurve"/>
      <point x="489" y="413" type="line"/>
      <point x="463" y="423"/>
      <point x="380" y="435"/>
      <point x="321" y="435" type="qcurve" smooth="yes"/>
      <point x="226" y="435"/>
      <point x="116" y="374"/>
      <point x="116" y="326" type="qcurve" smooth="yes"/>
      <point x="116" y="283"/>
      <point x="222" y="209"/>
      <point x="307" y="198" type="qcurve"/>
      <point x="307" y="205" type="line"/>
      <point x="213" y="187"/>
      <point x="132" y="127"/>
      <point x="132" y="93" type="qcurve" smooth="yes"/>
      <point x="132" y="59"/>
      <point x="245" y="-3"/>
      <point x="385" y="-3" type="qcurve" smooth="yes"/>
      <point x="434" y="-3"/>
      <point x="576" y="8"/>
      <point x="634" y="20" type="qcurve"/>
      <point x="619" y="37" type="line"/>
      <point x="562" y="26"/>
      <point x="432" y="16"/>
      <point x="378" y="16" type="qcurve" smooth="yes"/>
      <point x="265" y="16"/>
      <point x="162" y="63"/>
      <point x="162" y="94" type="qcurve" smooth="yes"/>
      <point x="162" y="125"/>
      <point x="246" y="179"/>
      <point x="331" y="192" type="qcurve"/>
      <point x="389" y="191"/>
      <point x="514" y="191"/>
      <point x="550" y="191" type="qcurve"/>
      <point x="550" y="210" type="line"/>
      <point x="521" y="211"/>
      <point x="419" y="210"/>
      <point x="330" y="211" type="qcurve"/>
      <point x="252" y="220"/>
      <point x="146" y="286"/>
      <point x="146" y="326" type="qcurve" smooth="yes"/>
      <point x="146" y="368"/>
      <point x="239" y="416"/>
      <point x="322" y="417" type="qcurve" smooth="yes"/>
      <point x="377" y="418"/>
      <point x="464" y="402"/>
      <point x="490" y="393" type="qcurve"/>
      <point x="507" y="386"/>
      <point x="532" y="373"/>
      <point x="550" y="362" type="qcurve"/>
      <point x="567" y="376" type="line"/>
      <point x="552" y="385"/>
      <point x="526" y="398"/>
      <point x="512" y="405" type="qcurve"/>
      <point x="508" y="411"/>
      <point x="496" y="438"/>
      <point x="495" y="449" type="qcurve" smooth="yes"/>
      <point x="495" y="472"/>
      <point x="534" y="500"/>
      <point x="574" y="500" type="qcurve" smooth="yes"/>
      <point x="622" y="500" type="line"/>
    </contour>
  </outline>
</glyph>
<glyph name="uni0A6F" format="1">
  <advance width="909"/>
  <unicode hex="0A6F"/>
  <outline>
    <contour>
      <point x="178" y="345" type="line"/>
      <point x="187" y="312" type="line" smooth="yes"/>
      <point x="230" y="151"/>
      <point x="439" y="0"/>
      <point x="597" y="0" type="qcurve" smooth="yes"/>
      <point x="639" y="0"/>
      <point x="725" y="8"/>
      <point x="759" y="13" type="qcurve"/>
      <point x="752" y="32" type="line"/>
      <point x="714" y="25"/>
      <point x="633" y="20"/>
      <point x="597" y="20" type="qcurve" smooth="yes"/>
      <point x="473" y="20"/>
      <point x="264" y="141"/>
      <point x="216" y="312" type="qcurve" smooth="yes"/>
      <point x="206" y="345" type="line"/>
    </contour>
    <contour>
      <point x="726" y="349" type="line"/>
      <point x="726" y="368" type="line"/>
      <point x="184" y="368" type="line"/>
      <point x="185" y="349" type="line"/>
    </contour>
    <contour>
      <point x="207" y="345" type="line"/>
      <point x="200" y="366"/>
      <point x="193" y="455"/>
      <point x="188" y="475" type="qcurve"/>
      <point x="157" y="472" type="line"/>
      <point x="161" y="454"/>
      <point x="172" y="362"/>
      <point x="179" y="343" type="qcurve"/>
    </contour>
    <contour>
      <point x="632" y="358" type="line"/>
      <point x="639" y="358"/>
      <point x="662" y="358"/>
      <point x="666" y="358" type="qcurve"/>
      <point x="654" y="366" type="line"/>
      <point x="643" y="379" type="line" smooth="yes"/>
      <point x="629" y="394"/>
      <point x="607" y="426"/>
      <point x="607" y="443" type="qcurve" smooth="yes"/>
      <point x="607" y="471"/>
      <point x="645" y="502"/>
      <point x="694" y="502" type="qcurve" smooth="yes"/>
      <point x="742" y="502" type="line"/>
      <point x="738" y="518" type="line"/>
      <point x="688" y="518" type="line" smooth="yes"/>
      <point x="630" y="517"/>
      <point x="580" y="479"/>
      <point x="580" y="448" type="qcurve" smooth="yes"/>
      <point x="580" y="425"/>
      <point x="604" y="389"/>
      <point x="620" y="371" type="qcurve" smooth="yes"/>
    </contour>
  </outline>
</glyph>
<glyph name="uni0A72" format="1">
  <advance width="870"/>
  <unicode hex="0A72"/>
  <outline>
    <contour>
      <point x="184" y="493" type="line"/>
      <point x="153" y="493" type="line"/>
      <point x="157" y="482" type="line" smooth="yes"/>
      <point x="175" y="429"/>
      <point x="285" y="295"/>
      <point x="340" y="253" type="qcurve" smooth="yes"/>
      <point x="355" y="241" type="line"/>
      <point x="382" y="251" type="line"/>
      <point x="366" y="263" type="line" smooth="yes"/>
      <point x="317" y="297"/>
      <point x="206" y="428"/>
      <point x="188" y="482" type="qcurve" smooth="yes"/>
    </contour>
    <contour>
      <point x="870" y="481" type="line"/>
      <point x="870" y="500" type="line"/>
      <point x="0" y="500" type="line"/>
      <point x="0" y="481" type="line"/>
    </contour>
    <contour>
      <point x="678" y="295" type="line"/>
      <point x="678" y="314" type="line"/>
      <point x="647" y="314" type="line" smooth="yes"/>
      <point x="550" y="314"/>
      <point x="273" y="241"/>
      <point x="173" y="146" type="qcurve"/>
      <point x="233" y="88"/>
      <point x="461" y="15"/>
      <point x="558" y="15" type="qcurve" smooth="yes"/>
      <point x="604" y="15"/>
      <point x="715" y="39"/>
      <point x="766" y="61" type="qcurve"/>
      <point x="756" y="78" type="line"/>
      <point x="699" y="56"/>
      <point x="600" y="34"/>
      <point x="561" y="34" type="qcurve" smooth="yes"/>
      <point x="474" y="34"/>
      <point x="264" y="98"/>
      <point x="202" y="153" type="qcurve"/>
      <point x="202" y="139" type="line"/>
      <point x="294" y="225"/>
      <point x="553" y="295"/>
      <point x="647" y="295" type="qcurve" smooth="yes"/>
    </contour>
    <contour>
      <point x="654" y="295" type="line"/>
      <point x="682" y="295" type="line"/>
      <point x="682" y="497" type="line"/>
      <point x="654" y="497" type="line"/>
    </contour>
  </outline>
</glyph>
<glyph name="u0A74" format="1">
  <advance width="2127"/>
  <unicode hex="0A74"/>
  <outline>
    <contour>
      <point x="2061" y="732" type="qcurve"/>
      <point x="1950" y="687" type="line"/>
      <point x="1926" y="723" name="inserted"/>
      <point x="1857" y="758"/>
      <point x="1813" y="758" type="qcurve"/>
      <point x="1759" y="758"/>
      <point x="1674" y="720"/>
      <point x="1657" y="687" type="qcurve"/>
      <point x="1532" y="687" type="line"/>
      <point x="1513" y="717" name="inserted"/>
      <point x="1439" y="765"/>
      <point x="1385" y="782" type="qcurve"/>
      <point x="1338" y="796" name="inserted"/>
      <point x="1234" y="811"/>
      <point x="1178" y="811" type="qcurve"/>
      <point x="1122" y="811" name="inserted"/>
      <point x="1018" y="788"/>
      <point x="970" y="764" type="qcurve"/>
      <point x="924" y="742" name="inserted"/>
      <point x="856" y="685"/>
      <point x="834" y="651" type="qcurve"/>
      <point x="1657" y="651" type="line"/>
      <point x="1657" y="528" type="line"/>
      <point x="1657" y="450" name="inserted"/>
      <point x="1545" y="329"/>
      <point x="1434" y="287" type="qcurve"/>
      <point x="1461" y="268" name="inserted"/>
      <point x="1499" y="237"/>
      <point x="1509" y="223" type="qcurve"/>
      <point x="1521" y="207" name="inserted"/>
      <point x="1533" y="168"/>
      <point x="1533" y="144" type="qcurve"/>
      <point x="1533" y="100" name="inserted"/>
      <point x="1472" y="34"/>
      <point x="1411" y="12" type="qcurve"/>
      <point x="1362" y="-6" name="inserted"/>
      <point x="1239" y="-23"/>
      <point x="1166" y="-23" type="qcurve"/>
      <point x="1029" y="-23" name="inserted"/>
      <point x="830" y="76"/>
      <point x="768" y="176" type="qcurve"/>
      <point x="724" y="247" name="inserted"/>
      <point x="680" y="422"/>
      <point x="680" y="527" type="qcurve"/>
      <point x="680" y="607" name="inserted"/>
      <point x="746" y="737"/>
      <point x="813" y="787" type="qcurve"/>
      <point x="884" y="840" name="inserted"/>
      <point x="1076" y="893"/>
      <point x="1198" y="893" type="qcurve"/>
      <point x="1254" y="893" name="inserted"/>
      <point x="1364" y="880"/>
      <point x="1418" y="868" type="qcurve"/>
      <point x="1479" y="853" name="inserted"/>
      <point x="1569" y="813"/>
      <point x="1598" y="788" type="qcurve"/>
      <point x="1644" y="814" name="inserted"/>
      <point x="1752" y="840"/>
      <point x="1813" y="840" type="qcurve"/>
      <point x="1904" y="840" name="inserted"/>
      <point x="2028" y="786"/>
    </contour>
    <contour>
      <point x="520" y="-60" type="line"/>
      <point x="427" y="-52"/>
      <point x="309" y="30"/>
      <point x="309" y="90" type="qcurve"/>
      <point x="309" y="117" name="inserted"/>
      <point x="319" y="191"/>
      <point x="329" y="238" type="qcurve"/>
      <point x="340" y="291" name="inserted"/>
      <point x="353" y="365"/>
      <point x="355" y="385" type="qcurve"/>
      <point x="341" y="383" name="inserted"/>
      <point x="311" y="381"/>
      <point x="296" y="381" type="qcurve"/>
      <point x="196" y="381"/>
      <point x="78" y="461"/>
      <point x="78" y="526" type="qcurve"/>
      <point x="78" y="586"/>
      <point x="201" y="664"/>
      <point x="296" y="664" type="qcurve"/>
      <point x="356" y="664" name="inserted"/>
      <point x="438" y="629"/>
      <point x="459" y="594" type="qcurve"/>
      <point x="472" y="572" name="inserted"/>
      <point x="486" y="504"/>
      <point x="486" y="457" type="qcurve"/>
      <point x="486" y="395"/>
      <point x="437" y="152"/>
      <point x="437" y="90" type="qcurve"/>
      <point x="437" y="58" name="inserted"/>
      <point x="478" y="24"/>
      <point x="520" y="22" type="qcurve"/>
    </contour>
    <contour>
      <point x="1527" y="528" type="qcurve"/>
      <point x="1527" y="577" type="line"/>
      <point x="812" y="577" type="line"/>
      <point x="805" y="509" name="inserted"/>
      <point x="812" y="394"/>
      <point x="826" y="346" type="qcurve"/>
      <point x="1276" y="346" type="line"/>
      <point x="1320" y="346" name="inserted"/>
      <point x="1406" y="378"/>
      <point x="1447" y="409" type="qcurve"/>
      <point x="1487" y="440" name="inserted"/>
      <point x="1527" y="499"/>
    </contour>
    <contour>
      <point x="1413" y="144" type="qcurve"/>
      <point x="1413" y="176" name="inserted"/>
      <point x="1366" y="224"/>
      <point x="1319" y="241" type="qcurve"/>
      <point x="1280" y="256" name="inserted"/>
      <point x="1189" y="271"/>
      <point x="1137" y="271" type="qcurve"/>
      <point x="842" y="271" type="line"/>
      <point x="861" y="229" name="inserted"/>
      <point x="918" y="159"/>
      <point x="956" y="130" type="qcurve"/>
      <point x="1003" y="95" name="inserted"/>
      <point x="1108" y="59"/>
      <point x="1166" y="59" type="qcurve"/>
      <point x="1289" y="59" name="inserted"/>
      <point x="1413" y="102"/>
    </contour>
    <contour>
      <point x="358" y="468" type="qcurve"/>
      <point x="358" y="496" type="line"/>
      <point x="358" y="539" name="inserted"/>
      <point x="327" y="582"/>
      <point x="296" y="582" type="qcurve"/>
      <point x="247" y="582" name="inserted"/>
      <point x="198" y="554"/>
      <point x="198" y="526" type="qcurve"/>
      <point x="198" y="494" name="inserted"/>
      <point x="246" y="462"/>
      <point x="294" y="462" type="qcurve"/>
      <point x="307" y="462" name="inserted"/>
      <point x="340" y="465"/>
    </contour>
  </outline>
</glyph>
<glyph name="quoteright" format="1">
  <advance width="444.0"/>
  <unicode hex="2019"/>
  <outline>
    <contour>
      <point x="209" y="842" type="line"/>
      <point x="209" y="792" type="line" smooth="yes"/>
      <point x="209" y="747"/>
      <point x="187" y="652"/>
      <point x="159" y="595" type="qcurve"/>
      <point x="182" y="593" type="line"/>
      <point x="212" y="648"/>
      <point x="238" y="750"/>
      <point x="238" y="790" type="qcurve" smooth="yes"/>
      <point x="238" y="842" type="line"/>
    </contour>
  </outline>
</glyph>
<glyph name="quotedblright" format="1">
  <advance width="748.0"/>
  <unicode hex="201D"/>
  <outline>
    <contour>
      <point x="209" y="842" type="line"/>
      <point x="209" y="792" type="line" smooth="yes"/>
      <point x="209" y="747"/>
      <point x="187" y="652"/>
      <point x="159" y="595" type="qcurve"/>
      <point x="182" y="593" type="line"/>
      <point x="212" y="648"/>
      <point x="238" y="750"/>
      <point x="238" y="790" type="qcurve" smooth="yes"/>
      <point x="238" y="842" type="line"/>
    </contour>
    <contour>
      <point x="511" y="842" type="line"/>
      <point x="511" y="792" type="line" smooth="yes"/>
      <point x="511" y="747"/>
      <point x="490" y="652"/>
      <point x="462" y="595" type="qcurve"/>
      <point x="485" y="593" type="line"/>
      <point x="514" y="648"/>
      <point x="540" y="750"/>
      <point x="540" y="790" type="qcurve" smooth="yes"/>
      <point x="540" y="842" type="line"/>
    </contour>
  </outline>
</glyph>
<glyph name="bullet" format="1">
  <advance width="678"/>
  <unicode hex="2022"/>
  <outline>
    <contour>
      <point x="340" y="460" type="line" smooth="yes"/>
      <point x="303" y="460"/>
      <point x="253" y="427"/>
      <point x="253" y="404" type="qcurve" smooth="yes"/>
      <point x="253" y="380"/>
      <point x="303" y="347"/>
      <point x="340" y="347" type="qcurve" smooth="yes"/>
      <point x="374" y="347"/>
      <point x="424" y="380"/>
      <point x="424" y="404" type="qcurve" smooth="yes"/>
      <point x="424" y="427"/>
      <point x="374" y="460"/>
      <point x="341" y="460" type="qcurve" smooth="yes"/>
    </contour>
  </outline>
</glyph>
<glyph name="servicemark" format="1">
  <advance width="1201"/>
  <unicode hex="2120"/>
  <outline>
    <contour>
      <point x="454" y="733"/>
      <point x="509" y="765"/>
      <point x="509" y="787" type="qcurve" smooth="yes"/>
      <point x="509" y="809"/>
      <point x="459" y="841"/>
      <point x="387" y="848" type="qcurve" smooth="yes"/>
      <point x="338" y="853"/>
      <point x="302" y="873"/>
      <point x="302" y="890" type="qcurve" smooth="yes"/>
      <point x="302" y="902"/>
      <point x="342" y="925"/>
      <point x="387" y="925" type="qcurve" smooth="yes"/>
      <point x="410" y="925"/>
      <point x="474" y="916"/>
      <point x="493" y="910" type="qcurve"/>
      <point x="502" y="923" type="line"/>
      <point x="478" y="930"/>
      <point x="409" y="939"/>
      <point x="385" y="939" type="qcurve" smooth="yes"/>
      <point x="333" y="939"/>
      <point x="276" y="910"/>
      <point x="276" y="890" type="qcurve" smooth="yes"/>
      <point x="276" y="869"/>
      <point x="321" y="841"/>
      <point x="378" y="834" type="qcurve" smooth="yes"/>
      <point x="441" y="828"/>
      <point x="483" y="803"/>
      <point x="483" y="787" type="qcurve" smooth="yes"/>
      <point x="483" y="769"/>
      <point x="440" y="747"/>
      <point x="398" y="747" type="qcurve" smooth="yes"/>
      <point x="370" y="747"/>
      <point x="291" y="762"/>
      <point x="268" y="770" type="qcurve"/>
      <point x="259" y="755" type="line"/>
      <point x="281" y="747"/>
      <point x="365" y="733"/>
      <point x="397" y="733" type="qcurve" smooth="yes"/>
    </contour>
    <contour>
      <point x="656" y="927" type="line"/>
      <point x="634" y="936" type="line"/>
      <point x="634" y="738" type="line"/>
      <point x="656" y="738" type="line"/>
    </contour>
    <contour>
      <point x="634" y="936" type="line"/>
      <point x="651" y="914" type="line"/>
      <point x="786" y="785" type="line"/>
      <point x="792" y="785" type="line"/>
      <point x="930" y="917" type="line"/>
      <point x="945" y="936" type="line"/>
      <point x="924" y="936" type="line"/>
      <point x="789" y="806" type="line"/>
      <point x="791" y="806" type="line"/>
      <point x="654" y="936" type="line"/>
    </contour>
    <contour>
      <point x="922" y="932" type="line"/>
      <point x="922" y="738" type="line"/>
      <point x="945" y="738" type="line"/>
      <point x="945" y="936" type="line"/>
    </contour>
  </outline>
</glyph>
<glyph name="_0181" format="1">
  <advance width="377"/>
  <outline>
    <contour>
      <point x="174" y="0" type="line"/>
      <point x="202" y="0" type="line"/>
      <point x="202" y="608" type="line" smooth="yes"/>
      <point x="202" y="675"/>
      <point x="298" y="738"/>
      <point x="379" y="738" type="qcurve" smooth="yes"/>
      <point x="459" y="738"/>
      <point x="550" y="669"/>
      <point x="550" y="607" type="qcurve" smooth="yes"/>
      <point x="550" y="583" type="line"/>
      <point x="578" y="584" type="line"/>
      <point x="578" y="612" type="line" smooth="yes"/>
      <point x="578" y="678"/>
      <point x="473" y="757"/>
      <point x="381" y="757" type="qcurve" smooth="yes"/>
      <point x="282" y="757"/>
      <point x="174" y="684"/>
      <point x="174" y="620" type="qcurve" smooth="yes"/>
    </contour>
    <contour>
      <point x="377" y="474" type="line"/>
      <point x="377" y="492" type="line"/>
      <point x="0" y="492" type="line"/>
      <point x="0" y="474" type="line"/>
    </contour>
  </outline>
</glyph>
<glyph name="_133" format="1">
  <advance width="-175"/>
  <outline>
    <contour>
      <point x="0" y="920" type="line"/>
      <point x="0" y="939" type="line"/>
      <point x="-175" y="939" type="line"/>
      <point x="-175" y="920" type="line"/>
    </contour>
    <contour>
      <point x="250" y="1033"/>
      <point x="345" y="1115"/>
      <point x="355" y="1179" type="qcurve"/>
      <point x="327" y="1185" type="line"/>
      <point x="323" y="1124"/>
      <point x="238" y="1052"/>
      <point x="166" y="1052" type="qcurve" smooth="yes"/>
      <point x="82" y="1052"/>
      <point x="-7" y="1118"/>
      <point x="-15" y="1184" type="qcurve"/>
      <point x="-43" y="1179" type="line"/>
      <point x="-32" y="1106"/>
      <point x="75" y="1033"/>
      <point x="159" y="1033" type="qcurve" smooth="yes"/>
    </contour>
    <component base="uni0A4C" xOffset="29"/>
  </outline>
</glyph>
<glyph name="_200" format="1">
  <advance width="1008.0"/>
  <outline>
    <contour>
      <point x="1027" y="290" type="line"/>
      <point x="880" y="290" type="line"/>
      <point x="880" y="109" type="line"/>
      <point x="372" y="109" type="line"/>
      <point x="295" y="109" name="inserted"/>
      <point x="218" y="72"/>
      <point x="218" y="35" type="qcurve"/>
      <point x="218" y="0" name="inserted"/>
      <point x="324" y="-36"/>
      <point x="431" y="-36" type="qcurve"/>
      <point x="880" y="-36" type="line"/>
      <point x="880" y="-116" type="line"/>
      <point x="493" y="-116" type="line"/>
      <point x="492" y="-123" name="inserted"/>
      <point x="489" y="-141"/>
      <point x="488" y="-152" type="qcurve"/>
      <point x="488" y="-177" name="inserted"/>
      <point x="575" y="-211"/>
      <point x="662" y="-221" type="qcurve"/>
      <point x="712" y="-227" name="inserted"/>
      <point x="821" y="-233"/>
      <point x="880" y="-233" type="qcurve"/>
      <point x="880" y="-316" type="line"/>
      <point x="789" y="-316" name="inserted"/>
      <point x="633" y="-303"/>
      <point x="567" y="-290" type="qcurve"/>
      <point x="463" y="-269" name="inserted"/>
      <point x="358" y="-200"/>
      <point x="358" y="-152" type="qcurve"/>
      <point x="358" y="-139" name="inserted"/>
      <point x="360" y="-121"/>
      <point x="362" y="-116" type="qcurve"/>
      <point x="308" y="-114" name="inserted"/>
      <point x="216" y="-92"/>
      <point x="178" y="-73" type="qcurve"/>
      <point x="134" y="-52" name="inserted"/>
      <point x="90" y="4"/>
      <point x="90" y="38" type="qcurve"/>
      <point x="90" y="118" name="inserted"/>
      <point x="244" y="197"/>
      <point x="399" y="197" type="qcurve"/>
      <point x="752" y="197" type="line"/>
      <point x="752" y="290" type="line"/>
      <point x="0" y="290" type="line"/>
      <point x="0" y="364" type="line"/>
      <point x="1027" y="364" type="line"/>
    </contour>
    <contour>
      <point x="1006" y="-601" type="line"/>
      <point x="906" y="-651" type="line"/>
      <point x="669" y="-437" type="line"/>
      <point x="772" y="-390" type="line"/>
    </contour>
  </outline>
</glyph>
<glyph name="c996" format="1">
  <advance width="1880.0"/>
  <outline>
    <contour>
      <point x="121" y="0" type="line"/>
      <point x="237" y="130"/>
      <point x="520" y="339"/>
      <point x="640" y="399" type="qcurve" smooth="yes"/>
      <point x="782" y="470"/>
      <point x="1053" y="540"/>
      <point x="1154" y="540" type="qcurve" smooth="yes"/>
      <point x="1417" y="540"/>
      <point x="1659" y="243"/>
      <point x="1659" y="54" type="qcurve" smooth="yes"/>
      <point x="1659" y="0" type="line"/>
      <point x="1742" y="0" type="line"/>
      <point x="1742" y="62" type="line" smooth="yes"/>
      <point x="1742" y="371"/>
      <point x="1333" y="595"/>
      <point x="1161" y="595" type="qcurve" smooth="yes"/>
      <point x="1034" y="595"/>
      <point x="770" y="531"/>
      <point x="622" y="460" type="qcurve" smooth="yes"/>
      <point x="474" y="388"/>
      <point x="167" y="161"/>
      <point x="22" y="0" type="qcurve"/>
    </contour>
  </outline>
</glyph>
<glyph name="exclam.001" format="1">
  <advance width="469"/>
  <outline>
    <contour>
      <point x="207" y="508" type="line"/>
      <point x="207" y="427" type="line"/>
      <point x="214" y="179" type="line"/>
      <point x="231" y="179" type="line"/>
      <point x="236" y="427" type="line"/>
      <point x="236" y="508" type="line"/>
    </contour>
    <component base="period.001" xOffset="6"/>
  </outline>
</glyph>
<glyph name="headline" format="1">
  <advance width="64.0"/>
  <outline>
    <contour>
      <point x="0" y="916" type="line"/>
      <point x="96" y="916" type="line"/>
      <point x="102" y="922" type="line"/>
      <point x="64" y="972" type="line"/>
      <point x="-32" y="972" type="line"/>
      <point x="-38" y="966" type="line"/>
    </contour>
  </outline>
</glyph>
<glyph name="headline1" format="1">
  <advance width="144.0"/>
  <outline>
    <contour>
      <point x="0" y="916" type="line"/>
      <point x="176" y="916" type="line"/>
      <point x="182" y="922" type="line"/>
      <point x="144" y="972" type="line"/>
      <point x="-32" y="972" type="line"/>
      <point x="-38" y="966" type="line"/>
    </contour>
  </outline>
</glyph>
<glyph name="headline2" format="1">
  <advance width="240.0"/>
  <outline>
    <contour>
      <point x="0" y="916" type="line"/>
      <point x="272" y="916" type="line"/>
      <point x="278" y="922" type="line"/>
      <point x="240" y="972" type="line"/>
      <point x="-32" y="972" type="line"/>
      <point x="-38" y="966" type="line"/>
    </contour>
  </outline>
</glyph>
<glyph name="question.001" format="1">
  <advance width="872.0"/>
  <outline>
    <contour>
      <point x="383" y="143" type="line"/>
      <point x="404" y="143" type="line"/>
      <point x="409" y="241" type="line"/>
      <point x="547" y="255"/>
      <point x="671" y="336"/>
      <point x="671" y="385" type="qcurve" smooth="yes"/>
      <point x="671" y="434"/>
      <point x="556" y="511"/>
      <point x="429" y="511" type="qcurve" smooth="yes"/>
      <point x="356" y="511"/>
      <point x="230" y="478"/>
      <point x="180" y="454" type="qcurve"/>
      <point x="198" y="441" type="line"/>
      <point x="246" y="464"/>
      <point x="366" y="493"/>
      <point x="426" y="493" type="qcurve" smooth="yes"/>
      <point x="548" y="493"/>
      <point x="642" y="424"/>
      <point x="642" y="384" type="qcurve" smooth="yes"/>
      <point x="642" y="343"/>
      <point x="524" y="267"/>
      <point x="382" y="255" type="qcurve"/>
      <point x="378" y="253" type="line"/>
    </contour>
    <component base="period.001" xOffset="227"/>
  </outline>
</glyph>
<glyph name="question.002" format="1">
  <advance width="978"/>
  <outline>
    <contour>
      <point x="427" y="163" type="line"/>
      <point x="450" y="163" type="line"/>
      <point x="452" y="273" type="line"/>
      <point x="585" y="287"/>
      <point x="727" y="370"/>
      <point x="727" y="425" type="qcurve" smooth="yes"/>
      <point x="727" y="476"/>
      <point x="605" y="555"/>
      <point x="482" y="555" type="qcurve" smooth="yes"/>
      <point x="409" y="555"/>
      <point x="283" y="522"/>
      <point x="233" y="498" type="qcurve"/>
      <point x="250" y="485" type="line"/>
      <point x="299" y="508"/>
      <point x="419" y="537"/>
      <point x="479" y="537" type="qcurve" smooth="yes"/>
      <point x="597" y="537"/>
      <point x="698" y="468"/>
      <point x="698" y="424" type="qcurve" smooth="yes"/>
      <point x="698" y="375"/>
      <point x="561" y="300"/>
      <point x="426" y="289" type="qcurve"/>
      <point x="423" y="287" type="line"/>
    </contour>
    <component base="period" xOffset="272"/>
  </outline>
</glyph>
<glyph name="quoteright.001" format="1">
  <advance width="444.0"/>
  <outline>
    <contour>
      <point x="223" y="829" type="line"/>
      <point x="223" y="759" type="line" smooth="yes"/>
      <point x="223" y="696"/>
      <point x="177" y="610"/>
      <point x="136" y="568" type="qcurve"/>
      <point x="154" y="564" type="line"/>
      <point x="197" y="605"/>
      <point x="252" y="702"/>
      <point x="252" y="759" type="qcurve" smooth="yes"/>
      <point x="252" y="829" type="line"/>
    </contour>
  </outline>
</glyph>
<glyph name="u0A08_u0A3C" format="1">
  <advance width="1314"/>
  <outline>
    <contour>
      <point x="970" y="474" type="line"/>
      <point x="814" y="474" type="line"/>
      <point x="814" y="171" type="line"/>
      <point x="503" y="171" type="line"/>
      <point x="463" y="171" name="inserted"/>
      <point x="381" y="155"/>
      <point x="339" y="138" type="qcurve"/>
      <point x="302" y="123" name="inserted"/>
      <point x="244" y="88"/>
      <point x="222" y="68" type="qcurve"/>
      <point x="307" y="9" name="inserted"/>
      <point x="472" y="-50"/>
      <point x="552" y="-50" type="qcurve"/>
      <point x="676" y="-50"/>
      <point x="794" y="-34"/>
      <point x="912" y="-2" type="qcurve"/>
      <point x="888" y="-37" name="inserted"/>
      <point x="819" y="-88"/>
      <point x="774" y="-103" type="qcurve"/>
      <point x="732" y="-117" name="inserted"/>
      <point x="621" y="-132"/>
      <point x="552" y="-132" type="qcurve"/>
      <point x="437" y="-132" name="inserted"/>
      <point x="195" y="-36"/>
      <point x="68" y="61" type="qcurve"/>
      <point x="91" y="87" name="inserted"/>
      <point x="133" y="126"/>
      <point x="153" y="139" type="qcurve"/>
      <point x="175" y="154" name="inserted"/>
      <point x="241" y="186"/>
      <point x="285" y="203" type="qcurve"/>
      <point x="268" y="209" name="inserted"/>
      <point x="238" y="226"/>
      <point x="223" y="236" type="qcurve"/>
      <point x="177" y="268" name="inserted"/>
      <point x="128" y="387"/>
      <point x="126" y="474" type="qcurve"/>
      <point x="0" y="474" type="line"/>
      <point x="0" y="548" type="line"/>
      <point x="970" y="548" type="line"/>
    </contour>
    <contour>
      <point x="686" y="255" type="line"/>
      <point x="686" y="474" type="line"/>
      <point x="254" y="474" type="line"/>
      <point x="254" y="426" name="inserted"/>
      <point x="267" y="354"/>
      <point x="281" y="330" type="qcurve"/>
      <point x="302" y="293" name="inserted"/>
      <point x="379" y="255"/>
      <point x="435" y="255" type="qcurve"/>
    </contour>
    <contour>
      <point x="1333" y="474" type="line"/>
      <point x="1133" y="474" type="line"/>
      <point x="1133" y="-132" type="line"/>
      <point x="997" y="-132" type="line"/>
      <point x="997" y="474" type="line"/>
      <point x="904" y="474" type="line"/>
      <point x="904" y="548" type="line"/>
      <point x="997" y="548" type="line"/>
      <point x="992" y="638" name="inserted"/>
      <point x="896" y="728"/>
      <point x="804" y="728" type="qcurve"/>
      <point x="775" y="728" name="inserted"/>
      <point x="721" y="716"/>
      <point x="697" y="703" type="qcurve"/>
      <point x="670" y="690" name="inserted"/>
      <point x="639" y="655"/>
      <point x="634" y="634" type="qcurve"/>
      <point x="506" y="634" type="line"/>
      <point x="512" y="702"/>
      <point x="692" y="810"/>
      <point x="804" y="810" type="qcurve"/>
      <point x="891" y="810" name="inserted"/>
      <point x="1022" y="763"/>
      <point x="1066" y="717" type="qcurve"/>
      <point x="1098" y="682" name="inserted"/>
      <point x="1132" y="597"/>
      <point x="1133" y="548" type="qcurve"/>
      <point x="1333" y="548" type="line"/>
    </contour>
    <contour>
      <point x="283" y="-218" type="qcurve"/>
      <point x="283" y="-241"/>
      <point x="234" y="-272"/>
      <point x="200" y="-272" type="qcurve"/>
      <point x="166" y="-272"/>
      <point x="117" y="-241"/>
      <point x="117" y="-218" type="qcurve"/>
      <point x="117" y="-196"/>
      <point x="166" y="-165"/>
      <point x="200" y="-165" type="qcurve"/>
      <point x="234" y="-165"/>
      <point x="283" y="-196"/>
    </contour>
  </outline>
</glyph>
<glyph name="u0A09_u0A02" format="1">
  <advance width="1133"/>
  <outline>
    <contour>
      <point x="1152" y="411" type="line"/>
      <point x="1058" y="411" type="line"/>
      <point x="1058" y="362" type="line"/>
      <point x="1058" y="283" name="inserted"/>
      <point x="947" y="163"/>
      <point x="835" y="121" type="qcurve"/>
      <point x="862" y="103" name="inserted"/>
      <point x="900" y="71"/>
      <point x="910" y="57" type="qcurve"/>
      <point x="922" y="41" name="inserted"/>
      <point x="934" y="2"/>
      <point x="934" y="-21" type="qcurve"/>
      <point x="934" y="-65" name="inserted"/>
      <point x="874" y="-131"/>
      <point x="813" y="-153" type="qcurve"/>
      <point x="764" y="-171" name="inserted"/>
      <point x="641" y="-189"/>
      <point x="567" y="-189" type="qcurve"/>
      <point x="430" y="-189" name="inserted"/>
      <point x="232" y="-90"/>
      <point x="170" y="10" type="qcurve"/>
      <point x="126" y="81" name="inserted"/>
      <point x="82" y="256"/>
      <point x="82" y="361" type="qcurve"/>
      <point x="82" y="375" name="inserted"/>
      <point x="83" y="400"/>
      <point x="84" y="411" type="qcurve"/>
      <point x="0" y="411" type="line"/>
      <point x="0" y="485" type="line"/>
      <point x="106" y="485" type="line"/>
      <point x="130" y="540" name="inserted"/>
      <point x="215" y="627"/>
      <point x="277" y="659" type="qcurve"/>
      <point x="342" y="693" name="inserted"/>
      <point x="504" y="727"/>
      <point x="600" y="727" type="qcurve"/>
      <point x="677" y="727" name="inserted"/>
      <point x="819" y="692"/>
      <point x="883" y="657" type="qcurve"/>
      <point x="946" y="622" name="inserted"/>
      <point x="1030" y="536"/>
      <point x="1050" y="485" type="qcurve"/>
      <point x="1152" y="485" type="line"/>
    </contour>
    <contour>
      <point x="921" y="485" type="line"/>
      <point x="902" y="520" name="inserted"/>
      <point x="832" y="578"/>
      <point x="782" y="601" type="qcurve"/>
      <point x="733" y="623" name="inserted"/>
      <point x="632" y="646"/>
      <point x="580" y="646" type="qcurve"/>
      <point x="524" y="646" name="inserted"/>
      <point x="420" y="622"/>
      <point x="372" y="598" type="qcurve"/>
      <point x="326" y="576" name="inserted"/>
      <point x="258" y="519"/>
      <point x="235" y="485" type="qcurve"/>
    </contour>
    <contour>
      <point x="929" y="362" type="qcurve"/>
      <point x="929" y="411" type="line"/>
      <point x="214" y="411" type="line"/>
      <point x="212" y="392" name="inserted"/>
      <point x="210" y="350"/>
      <point x="210" y="326" type="qcurve"/>
      <point x="210" y="284" name="inserted"/>
      <point x="219" y="211"/>
      <point x="228" y="180" type="qcurve"/>
      <point x="678" y="180" type="line"/>
      <point x="722" y="180" name="inserted"/>
      <point x="807" y="212"/>
      <point x="849" y="243" type="qcurve"/>
      <point x="889" y="274" name="inserted"/>
      <point x="929" y="333"/>
    </contour>
    <contour>
      <point x="814" y="-21" type="qcurve"/>
      <point x="814" y="10" name="inserted"/>
      <point x="768" y="58"/>
      <point x="721" y="75" type="qcurve"/>
      <point x="682" y="90" name="inserted"/>
      <point x="590" y="105"/>
      <point x="538" y="105" type="qcurve"/>
      <point x="244" y="105" type="line"/>
      <point x="262" y="64" name="inserted"/>
      <point x="319" y="-7"/>
      <point x="358" y="-36" type="qcurve"/>
      <point x="404" y="-71" name="inserted"/>
      <point x="509" y="-107"/>
      <point x="567" y="-107" type="qcurve"/>
      <point x="691" y="-107" name="inserted"/>
      <point x="814" y="-64"/>
    </contour>
    <contour>
      <point x="935" y="-326" type="qcurve"/>
      <point x="857" y="-364" name="inserted"/>
      <point x="673" y="-402"/>
      <point x="568" y="-402" type="qcurve"/>
      <point x="463" y="-402" name="inserted"/>
      <point x="280" y="-364"/>
      <point x="201" y="-326" type="qcurve"/>
      <point x="219" y="-310" name="inserted"/>
      <point x="258" y="-277"/>
      <point x="278" y="-260" type="qcurve"/>
      <point x="302" y="-271" name="inserted"/>
      <point x="365" y="-291"/>
      <point x="405" y="-300" type="qcurve"/>
      <point x="450" y="-310" name="inserted"/>
      <point x="531" y="-320"/>
      <point x="568" y="-320" type="qcurve"/>
      <point x="604" y="-320" name="inserted"/>
      <point x="689" y="-309"/>
      <point x="738" y="-297" type="qcurve"/>
      <point x="779" y="-288" name="inserted"/>
      <point x="839" y="-270"/>
      <point x="858" y="-260" type="qcurve"/>
      <point x="878" y="-277" name="inserted"/>
      <point x="917" y="-310"/>
    </contour>
    <contour>
      <point x="1071" y="747" type="qcurve"/>
      <point x="1071" y="725"/>
      <point x="1024" y="695"/>
      <point x="990" y="695" type="qcurve"/>
      <point x="957" y="695"/>
      <point x="910" y="725"/>
      <point x="910" y="747" type="qcurve"/>
      <point x="910" y="769"/>
      <point x="957" y="799"/>
      <point x="990" y="799" type="qcurve"/>
      <point x="1024" y="799"/>
      <point x="1071" y="769"/>
    </contour>
  </outline>
</glyph>
<glyph name="u0A0F_u0A3C" format="1">
  <advance width="950"/>
  <outline>
    <contour>
      <point x="970" y="559" type="line"/>
      <point x="814" y="559" type="line"/>
      <point x="814" y="257" type="line"/>
      <point x="503" y="257" type="line"/>
      <point x="463" y="257" name="inserted"/>
      <point x="381" y="240"/>
      <point x="339" y="223" type="qcurve"/>
      <point x="302" y="208" name="inserted"/>
      <point x="244" y="174"/>
      <point x="222" y="154" type="qcurve"/>
      <point x="307" y="95" name="inserted"/>
      <point x="472" y="36"/>
      <point x="552" y="36" type="qcurve"/>
      <point x="676" y="36"/>
      <point x="794" y="52"/>
      <point x="912" y="84" type="qcurve"/>
      <point x="888" y="48" name="inserted"/>
      <point x="819" y="-2"/>
      <point x="774" y="-18" type="qcurve"/>
      <point x="732" y="-32" name="inserted"/>
      <point x="621" y="-47"/>
      <point x="552" y="-47" type="qcurve"/>
      <point x="437" y="-47" name="inserted"/>
      <point x="195" y="50"/>
      <point x="68" y="146" type="qcurve"/>
      <point x="91" y="172" name="inserted"/>
      <point x="133" y="211"/>
      <point x="153" y="224" type="qcurve"/>
      <point x="175" y="240" name="inserted"/>
      <point x="241" y="272"/>
      <point x="285" y="288" type="qcurve"/>
      <point x="268" y="295" name="inserted"/>
      <point x="238" y="311"/>
      <point x="223" y="321" type="qcurve"/>
      <point x="177" y="353" name="inserted"/>
      <point x="128" y="472"/>
      <point x="126" y="559" type="qcurve"/>
      <point x="0" y="559" type="line"/>
      <point x="0" y="633" type="line"/>
      <point x="970" y="633" type="line"/>
    </contour>
    <contour>
      <point x="686" y="341" type="line"/>
      <point x="686" y="559" type="line"/>
      <point x="254" y="559" type="line"/>
      <point x="254" y="512" name="inserted"/>
      <point x="267" y="440"/>
      <point x="281" y="415" type="qcurve"/>
      <point x="302" y="378" name="inserted"/>
      <point x="379" y="341"/>
      <point x="435" y="341" type="qcurve"/>
    </contour>
    <contour>
      <point x="911" y="627" type="qcurve"/>
      <point x="783" y="627" type="line"/>
      <point x="746" y="664" name="inserted"/>
      <point x="686" y="716"/>
      <point x="664" y="732" type="qcurve"/>
      <point x="620" y="762" name="inserted"/>
      <point x="537" y="793"/>
      <point x="498" y="793" type="qcurve"/>
      <point x="455" y="793" type="line"/>
      <point x="455" y="875" type="line"/>
      <point x="510" y="875" type="line"/>
      <point x="606" y="875" name="inserted"/>
      <point x="807" y="751"/>
    </contour>
    <contour>
      <point x="197" y="-42" type="qcurve"/>
      <point x="197" y="-65"/>
      <point x="148" y="-96"/>
      <point x="114" y="-96" type="qcurve"/>
      <point x="79" y="-96"/>
      <point x="30" y="-65"/>
      <point x="30" y="-42" type="qcurve"/>
      <point x="30" y="-20"/>
      <point x="79" y="11"/>
      <point x="114" y="11" type="qcurve"/>
      <point x="148" y="11"/>
      <point x="197" y="-20"/>
    </contour>
  </outline>
</glyph>
<glyph name="u0A14_u0A3C" format="1">
  <advance width="1197"/>
  <outline>
    <contour>
      <point x="1216" y="606" type="line"/>
      <point x="1069" y="606" type="line"/>
      <point x="1069" y="0" type="line"/>
      <point x="941" y="0" type="line"/>
      <point x="941" y="303" type="line"/>
      <point x="919" y="305" name="inserted"/>
      <point x="880" y="307"/>
      <point x="862" y="307" type="qcurve"/>
      <point x="829" y="307" name="inserted"/>
      <point x="774" y="304"/>
      <point x="751" y="301" type="qcurve"/>
      <point x="741" y="236" name="inserted"/>
      <point x="683" y="170"/>
      <point x="634" y="170" type="qcurve"/>
      <point x="590" y="170" name="inserted"/>
      <point x="546" y="208"/>
      <point x="546" y="245" type="qcurve"/>
      <point x="546" y="265"/>
      <point x="624" y="355"/>
      <point x="624" y="389" type="qcurve"/>
      <point x="624" y="410" name="inserted"/>
      <point x="606" y="461"/>
      <point x="588" y="491" type="qcurve"/>
      <point x="571" y="519" name="inserted"/>
      <point x="532" y="567"/>
      <point x="509" y="586" type="qcurve"/>
      <point x="465" y="562" name="inserted"/>
      <point x="381" y="492"/>
      <point x="340" y="447" type="qcurve"/>
      <point x="343" y="434" name="inserted"/>
      <point x="346" y="408"/>
      <point x="346" y="396" type="qcurve"/>
      <point x="346" y="342" name="inserted"/>
      <point x="293" y="288"/>
      <point x="241" y="288" type="qcurve"/>
      <point x="199" y="288"/>
      <point x="146" y="324"/>
      <point x="146" y="356" type="qcurve"/>
      <point x="146" y="384"/>
      <point x="206" y="452"/>
      <point x="206" y="475" type="qcurve"/>
      <point x="206" y="493" name="inserted"/>
      <point x="186" y="531"/>
      <point x="166" y="551" type="qcurve"/>
      <point x="148" y="567" name="inserted"/>
      <point x="108" y="595"/>
      <point x="84" y="606" type="qcurve"/>
      <point x="0" y="606" type="line"/>
      <point x="0" y="680" type="line"/>
      <point x="126" y="680" type="line"/>
      <point x="187" y="651" name="inserted"/>
      <point x="273" y="583"/>
      <point x="299" y="544" type="qcurve"/>
      <point x="321" y="561" name="inserted"/>
      <point x="364" y="596"/>
      <point x="386" y="614" type="qcurve"/>
      <point x="418" y="638" name="inserted"/>
      <point x="479" y="674"/>
      <point x="508" y="685" type="qcurve"/>
      <point x="564" y="670" name="inserted"/>
      <point x="657" y="601"/>
      <point x="694" y="546" type="qcurve"/>
      <point x="722" y="505" name="inserted"/>
      <point x="755" y="420"/>
      <point x="760" y="377" type="qcurve"/>
      <point x="778" y="379" name="inserted"/>
      <point x="829" y="381"/>
      <point x="862" y="381" type="qcurve"/>
      <point x="891" y="381" name="inserted"/>
      <point x="930" y="380"/>
      <point x="941" y="379" type="qcurve"/>
      <point x="941" y="680" type="line"/>
      <point x="1216" y="680" type="line"/>
    </contour>
    <contour>
      <point x="1243" y="705" type="qcurve"/>
      <point x="1117" y="705" type="line"/>
      <point x="1117" y="729" name="inserted"/>
      <point x="1101" y="768"/>
      <point x="1085" y="783" type="qcurve"/>
      <point x="1070" y="796" name="inserted"/>
      <point x="1032" y="810"/>
      <point x="1008" y="810" type="qcurve"/>
      <point x="986" y="810" name="inserted"/>
      <point x="945" y="797"/>
      <point x="926" y="783" type="qcurve"/>
      <point x="906" y="768" name="inserted"/>
      <point x="885" y="729"/>
      <point x="885" y="705" type="qcurve"/>
      <point x="757" y="705" type="line"/>
      <point x="757" y="754" name="inserted"/>
      <point x="820" y="832"/>
      <point x="883" y="861" type="qcurve"/>
      <point x="831" y="870" name="inserted"/>
      <point x="756" y="889"/>
      <point x="733" y="900" type="qcurve"/>
      <point x="699" y="916" name="inserted"/>
      <point x="666" y="961"/>
      <point x="666" y="990" type="qcurve"/>
      <point x="794" y="990" type="line"/>
      <point x="794" y="967" name="inserted"/>
      <point x="852" y="933"/>
      <point x="910" y="922" type="qcurve"/>
      <point x="998" y="905" name="inserted"/>
      <point x="1106" y="879"/>
      <point x="1126" y="870" type="qcurve"/>
      <point x="1185" y="845" name="inserted"/>
      <point x="1243" y="762"/>
    </contour>
    <contour>
      <point x="327" y="78" type="qcurve"/>
      <point x="327" y="56"/>
      <point x="278" y="25"/>
      <point x="244" y="25" type="qcurve"/>
      <point x="210" y="25"/>
      <point x="161" y="56"/>
      <point x="161" y="78" type="qcurve"/>
      <point x="161" y="100"/>
      <point x="210" y="132"/>
      <point x="244" y="132" type="qcurve"/>
      <point x="278" y="132"/>
      <point x="327" y="100"/>
    </contour>
  </outline>
</glyph>
<glyph name="u0A15_u0A3C_u0A4D" format="1">
  <advance width="1088.0"/>
  <outline>
    <contour>
      <point x="1107" y="290" type="line"/>
      <point x="960" y="290" type="line"/>
      <point x="960" y="187" name="inserted"/>
      <point x="914" y="29"/>
      <point x="868" y="-26" type="qcurve"/>
      <point x="914" y="-80" name="inserted"/>
      <point x="960" y="-225"/>
      <point x="960" y="-316" type="qcurve"/>
      <point x="832" y="-316" type="line"/>
      <point x="832" y="-241" name="inserted"/>
      <point x="807" y="-134"/>
      <point x="782" y="-103" type="qcurve"/>
      <point x="710" y="-150" name="inserted"/>
      <point x="514" y="-197"/>
      <point x="390" y="-197" type="qcurve"/>
      <point x="323" y="-197" name="inserted"/>
      <point x="212" y="-174"/>
      <point x="167" y="-150" type="qcurve"/>
      <point x="120" y="-125" name="inserted"/>
      <point x="72" y="-58"/>
      <point x="72" y="-17" type="qcurve"/>
      <point x="72" y="23" name="inserted"/>
      <point x="119" y="88"/>
      <point x="166" y="112" type="qcurve"/>
      <point x="210" y="134" name="inserted"/>
      <point x="317" y="157"/>
      <point x="380" y="157" type="qcurve"/>
      <point x="508" y="157" name="inserted"/>
      <point x="709" y="103"/>
      <point x="782" y="50" type="qcurve"/>
      <point x="807" y="91" name="inserted"/>
      <point x="832" y="211"/>
      <point x="832" y="290" type="qcurve"/>
      <point x="0" y="290" type="line"/>
      <point x="0" y="364" type="line"/>
      <point x="1107" y="364" type="line"/>
    </contour>
    <contour>
      <point x="714" y="-27" type="qcurve"/>
      <point x="652" y="24" name="inserted"/>
      <point x="485" y="75"/>
      <point x="380" y="75" type="qcurve"/>
      <point x="345" y="75" name="inserted"/>
      <point x="284" y="64"/>
      <point x="258" y="52" type="qcurve"/>
      <point x="229" y="39" name="inserted"/>
      <point x="199" y="5"/>
      <point x="199" y="-17" type="qcurve"/>
      <point x="199" y="-41" name="inserted"/>
      <point x="229" y="-79"/>
      <point x="258" y="-92" type="qcurve"/>
      <point x="284" y="-103" name="inserted"/>
      <point x="350" y="-115"/>
      <point x="390" y="-115" type="qcurve"/>
      <point x="486" y="-115" name="inserted"/>
      <point x="649" y="-71"/>
    </contour>
    <contour>
      <point x="223" y="-281" type="qcurve"/>
      <point x="223" y="-303"/>
      <point x="174" y="-334"/>
      <point x="140" y="-334" type="qcurve"/>
      <point x="106" y="-334"/>
      <point x="57" y="-303"/>
      <point x="57" y="-281" type="qcurve"/>
      <point x="57" y="-259"/>
      <point x="106" y="-227"/>
      <point x="140" y="-227" type="qcurve"/>
      <point x="174" y="-227"/>
      <point x="223" y="-259"/>
    </contour>
    <contour>
      <point x="1179" y="-601" type="line"/>
      <point x="1078" y="-651" type="line"/>
      <point x="842" y="-437" type="line"/>
      <point x="945" y="-390" type="line"/>
    </contour>
  </outline>
</glyph>
<glyph name="u0A18_u0A3C" format="1">
  <advance width="1155"/>
  <outline>
    <contour>
      <point x="1174" y="606" type="line"/>
      <point x="1027" y="606" type="line"/>
      <point x="1027" y="0" type="line"/>
      <point x="899" y="0" type="line"/>
      <point x="899" y="185" type="line"/>
      <point x="882" y="183" name="inserted"/>
      <point x="828" y="180"/>
      <point x="791" y="180" type="qcurve"/>
      <point x="707" y="180" name="inserted"/>
      <point x="586" y="217"/>
      <point x="550" y="254" type="qcurve"/>
      <point x="512" y="234" name="inserted"/>
      <point x="424" y="214"/>
      <point x="375" y="214" type="qcurve"/>
      <point x="338" y="214" name="inserted"/>
      <point x="260" y="230"/>
      <point x="218" y="245" type="qcurve"/>
      <point x="173" y="262" name="inserted"/>
      <point x="108" y="305"/>
      <point x="88" y="331" type="qcurve"/>
      <point x="106" y="347" name="inserted"/>
      <point x="142" y="378"/>
      <point x="160" y="394" type="qcurve"/>
      <point x="181" y="417" name="inserted"/>
      <point x="202" y="474"/>
      <point x="202" y="507" type="qcurve"/>
      <point x="202" y="530" name="inserted"/>
      <point x="180" y="580"/>
      <point x="157" y="606" type="qcurve"/>
      <point x="0" y="606" type="line"/>
      <point x="0" y="680" type="line"/>
      <point x="203" y="680" type="line"/>
      <point x="236" y="657" name="inserted"/>
      <point x="283" y="618"/>
      <point x="296" y="602" type="qcurve"/>
      <point x="313" y="581" name="inserted"/>
      <point x="330" y="534"/>
      <point x="330" y="507" type="qcurve"/>
      <point x="330" y="454" name="inserted"/>
      <point x="283" y="368"/>
      <point x="236" y="333" type="qcurve"/>
      <point x="265" y="315" name="inserted"/>
      <point x="334" y="296"/>
      <point x="375" y="296" type="qcurve"/>
      <point x="424" y="296" name="inserted"/>
      <point x="494" y="319"/>
      <point x="515" y="342" type="qcurve"/>
      <point x="510" y="374" name="inserted"/>
      <point x="506" y="500"/>
      <point x="506" y="594" type="qcurve"/>
      <point x="506" y="614" name="inserted"/>
      <point x="520" y="647"/>
      <point x="534" y="660" type="qcurve"/>
      <point x="545" y="670" name="inserted"/>
      <point x="571" y="680"/>
      <point x="585" y="680" type="qcurve"/>
      <point x="604" y="680" name="inserted"/>
      <point x="634" y="665"/>
      <point x="645" y="650" type="qcurve"/>
      <point x="654" y="637" name="inserted"/>
      <point x="663" y="608"/>
      <point x="663" y="591" type="qcurve"/>
      <point x="663" y="543" name="inserted"/>
      <point x="644" y="413"/>
      <point x="625" y="330" type="qcurve"/>
      <point x="638" y="296" name="inserted"/>
      <point x="722" y="263"/>
      <point x="791" y="263" type="qcurve"/>
      <point x="824" y="263" name="inserted"/>
      <point x="878" y="266"/>
      <point x="899" y="269" type="qcurve"/>
      <point x="899" y="680" type="line"/>
      <point x="1174" y="680" type="line"/>
    </contour>
    <contour>
      <point x="254" y="97" type="qcurve"/>
      <point x="254" y="75"/>
      <point x="205" y="43"/>
      <point x="170" y="43" type="qcurve"/>
      <point x="136" y="43"/>
      <point x="87" y="75"/>
      <point x="87" y="97" type="qcurve"/>
      <point x="87" y="119"/>
      <point x="136" y="150"/>
      <point x="170" y="150" type="qcurve"/>
      <point x="205" y="150"/>
      <point x="254" y="119"/>
    </contour>
    <contour>
      <point x="1204" y="1248" type="move" name="mark0"/>
    </contour>
    <contour>
      <point x="1444" y="0" type="move" name="mark0"/>
    </contour>
  </outline>
</glyph>
<glyph name="u0A18_u0A3C_u0A4D" format="1">
  <advance width="1155"/>
  <outline>
    <contour>
      <point x="1174" y="290" type="line"/>
      <point x="1027" y="290" type="line"/>
      <point x="1027" y="-316" type="line"/>
      <point x="899" y="-316" type="line"/>
      <point x="899" y="-130" type="line"/>
      <point x="882" y="-133" name="inserted"/>
      <point x="828" y="-135"/>
      <point x="791" y="-135" type="qcurve"/>
      <point x="707" y="-135" name="inserted"/>
      <point x="586" y="-99"/>
      <point x="550" y="-62" type="qcurve"/>
      <point x="512" y="-82" name="inserted"/>
      <point x="424" y="-101"/>
      <point x="375" y="-101" type="qcurve"/>
      <point x="338" y="-101" name="inserted"/>
      <point x="260" y="-86"/>
      <point x="218" y="-71" type="qcurve"/>
      <point x="173" y="-54" name="inserted"/>
      <point x="108" y="-11"/>
      <point x="88" y="15" type="qcurve"/>
      <point x="106" y="31" name="inserted"/>
      <point x="142" y="63"/>
      <point x="160" y="78" type="qcurve"/>
      <point x="181" y="101" name="inserted"/>
      <point x="202" y="158"/>
      <point x="202" y="191" type="qcurve"/>
      <point x="202" y="214" name="inserted"/>
      <point x="180" y="264"/>
      <point x="157" y="290" type="qcurve"/>
      <point x="0" y="290" type="line"/>
      <point x="0" y="364" type="line"/>
      <point x="203" y="364" type="line"/>
      <point x="236" y="341" name="inserted"/>
      <point x="283" y="303"/>
      <point x="296" y="286" type="qcurve"/>
      <point x="313" y="265" name="inserted"/>
      <point x="330" y="218"/>
      <point x="330" y="191" type="qcurve"/>
      <point x="330" y="139" name="inserted"/>
      <point x="283" y="52"/>
      <point x="236" y="17" type="qcurve"/>
      <point x="265" y="-1" name="inserted"/>
      <point x="334" y="-20"/>
      <point x="375" y="-20" type="qcurve"/>
      <point x="424" y="-20" name="inserted"/>
      <point x="494" y="4"/>
      <point x="515" y="27" type="qcurve"/>
      <point x="510" y="58" name="inserted"/>
      <point x="506" y="184"/>
      <point x="506" y="278" type="qcurve"/>
      <point x="506" y="299" name="inserted"/>
      <point x="520" y="332"/>
      <point x="534" y="344" type="qcurve"/>
      <point x="545" y="354" name="inserted"/>
      <point x="571" y="364"/>
      <point x="585" y="364" type="qcurve"/>
      <point x="604" y="364" name="inserted"/>
      <point x="634" y="349"/>
      <point x="645" y="334" type="qcurve"/>
      <point x="654" y="322" name="inserted"/>
      <point x="663" y="292"/>
      <point x="663" y="275" type="qcurve"/>
      <point x="663" y="228" name="inserted"/>
      <point x="644" y="97"/>
      <point x="625" y="14" type="qcurve"/>
      <point x="638" y="-20" name="inserted"/>
      <point x="722" y="-53"/>
      <point x="791" y="-53" type="qcurve"/>
      <point x="824" y="-53" name="inserted"/>
      <point x="878" y="-50"/>
      <point x="899" y="-46" type="qcurve"/>
      <point x="899" y="364" type="line"/>
      <point x="1174" y="364" type="line"/>
    </contour>
    <contour>
      <point x="254" y="-219" type="qcurve"/>
      <point x="254" y="-241"/>
      <point x="205" y="-272"/>
      <point x="170" y="-272" type="qcurve"/>
      <point x="136" y="-272"/>
      <point x="87" y="-241"/>
      <point x="87" y="-219" type="qcurve"/>
      <point x="87" y="-197"/>
      <point x="136" y="-165"/>
      <point x="170" y="-165" type="qcurve"/>
      <point x="205" y="-165"/>
      <point x="254" y="-197"/>
    </contour>
    <contour>
      <point x="1251" y="-601" type="line"/>
      <point x="1150" y="-651" type="line"/>
      <point x="914" y="-437" type="line"/>
      <point x="1017" y="-390" type="line"/>
    </contour>
  </outline>
</glyph>
<glyph name="u0A19_u0A3C" format="1">
  <advance width="1008.0"/>
  <outline>
    <contour>
      <point x="1027" y="497" type="line"/>
      <point x="216" y="497" type="line"/>
      <point x="216" y="396" type="line"/>
      <point x="580" y="396" type="line"/>
      <point x="660" y="396" name="inserted"/>
      <point x="786" y="376"/>
      <point x="832" y="355" type="qcurve"/>
      <point x="887" y="331" name="inserted"/>
      <point x="942" y="258"/>
      <point x="942" y="209" type="qcurve"/>
      <point x="942" y="141" name="inserted"/>
      <point x="827" y="37"/>
      <point x="711" y="0" type="qcurve"/>
      <point x="782" y="-57" type="line"/>
      <point x="683" y="-109" type="line"/>
      <point x="667" y="-96" name="inserted"/>
      <point x="617" y="-56"/>
      <point x="583" y="-30" type="qcurve"/>
      <point x="513" y="-44" name="inserted"/>
      <point x="395" y="-58"/>
      <point x="347" y="-58" type="qcurve"/>
      <point x="299" y="-58" name="inserted"/>
      <point x="212" y="-43"/>
      <point x="173" y="-27" type="qcurve"/>
      <point x="127" y="-9" name="inserted"/>
      <point x="82" y="38"/>
      <point x="82" y="67" type="qcurve"/>
      <point x="82" y="125" name="inserted"/>
      <point x="191" y="182"/>
      <point x="300" y="182" type="qcurve"/>
      <point x="377" y="182" name="inserted"/>
      <point x="538" y="124"/>
      <point x="622" y="65" type="qcurve"/>
      <point x="718" y="93" name="inserted"/>
      <point x="814" y="165"/>
      <point x="814" y="209" type="qcurve"/>
      <point x="814" y="261" name="inserted"/>
      <point x="697" y="314"/>
      <point x="580" y="314" type="qcurve"/>
      <point x="88" y="314" type="line"/>
      <point x="88" y="497" type="line"/>
      <point x="0" y="497" type="line"/>
      <point x="0" y="571" type="line"/>
      <point x="1027" y="571" type="line"/>
    </contour>
    <contour>
      <point x="486" y="38" type="qcurve"/>
      <point x="428" y="74" name="inserted"/>
      <point x="335" y="110"/>
      <point x="300" y="110" type="qcurve"/>
      <point x="251" y="110" name="inserted"/>
      <point x="202" y="86"/>
      <point x="202" y="62" type="qcurve"/>
      <point x="202" y="52" name="inserted"/>
      <point x="228" y="37"/>
      <point x="254" y="31" type="qcurve"/>
      <point x="273" y="28" name="inserted"/>
      <point x="312" y="24"/>
      <point x="332" y="24" type="qcurve"/>
      <point x="369" y="24" name="inserted"/>
      <point x="446" y="31"/>
    </contour>
    <contour>
      <point x="218" y="-170" type="qcurve"/>
      <point x="218" y="-193"/>
      <point x="169" y="-224"/>
      <point x="134" y="-224" type="qcurve"/>
      <point x="100" y="-224"/>
      <point x="51" y="-193"/>
      <point x="51" y="-170" type="qcurve"/>
      <point x="51" y="-148"/>
      <point x="100" y="-117"/>
      <point x="134" y="-117" type="qcurve"/>
      <point x="169" y="-117"/>
      <point x="218" y="-148"/>
    </contour>
    <contour>
      <point x="1004" y="1248" type="move" name="mark0"/>
    </contour>
    <contour>
      <point x="1260" y="0" type="move" name="mark0"/>
    </contour>
  </outline>
</glyph>
<glyph name="u0A1A_u0A3C" format="1">
  <advance width="1149"/>
  <outline>
    <contour>
      <point x="1168" y="564" type="line"/>
      <point x="1021" y="564" type="line"/>
      <point x="1021" y="196" type="line"/>
      <point x="1021" y="77" name="inserted"/>
      <point x="808" y="-42"/>
      <point x="594" y="-42" type="qcurve"/>
      <point x="518" y="-42" name="inserted"/>
      <point x="391" y="-13"/>
      <point x="339" y="15" type="qcurve"/>
      <point x="281" y="47" name="inserted"/>
      <point x="223" y="133"/>
      <point x="223" y="188" type="qcurve"/>
      <point x="223" y="299" type="line"/>
      <point x="146" y="300" name="inserted"/>
      <point x="70" y="328"/>
      <point x="70" y="355" type="qcurve"/>
      <point x="70" y="373" name="inserted"/>
      <point x="103" y="407"/>
      <point x="136" y="423" type="qcurve"/>
      <point x="165" y="438" name="inserted"/>
      <point x="216" y="452"/>
      <point x="237" y="452" type="qcurve"/>
      <point x="270" y="452" name="inserted"/>
      <point x="318" y="415"/>
      <point x="333" y="378" type="qcurve"/>
      <point x="893" y="378" type="line"/>
      <point x="893" y="564" type="line"/>
      <point x="0" y="564" type="line"/>
      <point x="0" y="638" type="line"/>
      <point x="1168" y="638" type="line"/>
    </contour>
    <contour>
      <point x="893" y="193" type="qcurve"/>
      <point x="893" y="296" type="line"/>
      <point x="353" y="296" type="line"/>
      <point x="353" y="182" type="line"/>
      <point x="353" y="143" name="inserted"/>
      <point x="394" y="87"/>
      <point x="435" y="69" type="qcurve"/>
      <point x="467" y="55" name="inserted"/>
      <point x="546" y="41"/>
      <point x="594" y="41" type="qcurve"/>
      <point x="744" y="41" name="inserted"/>
      <point x="893" y="117"/>
    </contour>
    <contour>
      <point x="244" y="-32" type="qcurve"/>
      <point x="244" y="-55"/>
      <point x="195" y="-86"/>
      <point x="161" y="-86" type="qcurve"/>
      <point x="126" y="-86"/>
      <point x="78" y="-55"/>
      <point x="78" y="-32" type="qcurve"/>
      <point x="78" y="-10"/>
      <point x="126" y="21"/>
      <point x="161" y="21" type="qcurve"/>
      <point x="195" y="21"/>
      <point x="244" y="-10"/>
    </contour>
    <contour>
      <point x="1196" y="1248" type="move" name="mark0"/>
    </contour>
    <contour>
      <point x="1436" y="0" type="move" name="mark0"/>
    </contour>
  </outline>
</glyph>
<glyph name="u0A1A_u0A4D" format="1">
  <advance width="1149"/>
  <outline>
    <contour>
      <point x="1168" y="290" type="line"/>
      <point x="1021" y="290" type="line"/>
      <point x="1021" y="-78" type="line"/>
      <point x="1021" y="-197" name="inserted"/>
      <point x="808" y="-316"/>
      <point x="594" y="-316" type="qcurve"/>
      <point x="518" y="-316" name="inserted"/>
      <point x="391" y="-287"/>
      <point x="339" y="-259" type="qcurve"/>
      <point x="281" y="-227" name="inserted"/>
      <point x="223" y="-141"/>
      <point x="223" y="-86" type="qcurve"/>
      <point x="223" y="25" type="line"/>
      <point x="146" y="26" name="inserted"/>
      <point x="70" y="54"/>
      <point x="70" y="81" type="qcurve"/>
      <point x="70" y="99" name="inserted"/>
      <point x="103" y="133"/>
      <point x="136" y="149" type="qcurve"/>
      <point x="165" y="164" name="inserted"/>
      <point x="216" y="178"/>
      <point x="237" y="178" type="qcurve"/>
      <point x="270" y="178" name="inserted"/>
      <point x="318" y="141"/>
      <point x="333" y="104" type="qcurve"/>
      <point x="893" y="104" type="line"/>
      <point x="893" y="290" type="line"/>
      <point x="0" y="290" type="line"/>
      <point x="0" y="364" type="line"/>
      <point x="1168" y="364" type="line"/>
    </contour>
    <contour>
      <point x="893" y="-81" type="qcurve"/>
      <point x="893" y="22" type="line"/>
      <point x="353" y="22" type="line"/>
      <point x="353" y="-92" type="line"/>
      <point x="353" y="-131" name="inserted"/>
      <point x="394" y="-187"/>
      <point x="435" y="-205" type="qcurve"/>
      <point x="467" y="-219" name="inserted"/>
      <point x="546" y="-233"/>
      <point x="594" y="-233" type="qcurve"/>
      <point x="744" y="-233" name="inserted"/>
      <point x="893" y="-157"/>
    </contour>
    <contour>
      <point x="875" y="-601" type="line"/>
      <point x="774" y="-651" type="line"/>
      <point x="538" y="-437" type="line"/>
      <point x="641" y="-390" type="line"/>
    </contour>
  </outline>
</glyph>
<glyph name="u0A1D_u0A4D" format="1">
  <advance width="1126"/>
  <outline>
    <contour>
      <point x="1146" y="282" type="line"/>
      <point x="1052" y="282" type="line"/>
      <point x="1016" y="206" name="inserted"/>
      <point x="895" y="94"/>
      <point x="811" y="59" type="qcurve"/>
      <point x="886" y="40" name="inserted"/>
      <point x="960" y="-40"/>
      <point x="960" y="-101" type="qcurve"/>
      <point x="960" y="-131" name="inserted"/>
      <point x="919" y="-187"/>
      <point x="878" y="-212" type="qcurve"/>
      <point x="843" y="-232" name="inserted"/>
      <point x="758" y="-264"/>
      <point x="708" y="-275" type="qcurve"/>
      <point x="721" y="-288" name="inserted"/>
      <point x="758" y="-328"/>
      <point x="783" y="-354" type="qcurve"/>
      <point x="646" y="-354" type="line"/>
      <point x="636" y="-344" name="inserted"/>
      <point x="604" y="-314"/>
      <point x="583" y="-295" type="qcurve"/>
      <point x="558" y="-297" name="inserted"/>
      <point x="499" y="-299"/>
      <point x="466" y="-299" type="qcurve"/>
      <point x="411" y="-299" name="inserted"/>
      <point x="321" y="-286"/>
      <point x="286" y="-273" type="qcurve"/>
      <point x="244" y="-256" name="inserted"/>
      <point x="201" y="-207"/>
      <point x="201" y="-174" type="qcurve"/>
      <point x="201" y="-149" name="inserted"/>
      <point x="227" y="-108"/>
      <point x="254" y="-93" type="qcurve"/>
      <point x="279" y="-78" name="inserted"/>
      <point x="343" y="-63"/>
      <point x="382" y="-63" type="qcurve"/>
      <point x="423" y="-63" name="inserted"/>
      <point x="500" y="-87"/>
      <point x="538" y="-110" type="qcurve"/>
      <point x="560" y="-124" name="inserted"/>
      <point x="614" y="-170"/>
      <point x="646" y="-201" type="qcurve"/>
      <point x="681" y="-196" name="inserted"/>
      <point x="741" y="-180"/>
      <point x="766" y="-168" type="qcurve"/>
      <point x="800" y="-154" name="inserted"/>
      <point x="833" y="-120"/>
      <point x="833" y="-101" type="qcurve"/>
      <point x="833" y="-50" name="inserted"/>
      <point x="708" y="2"/>
      <point x="582" y="2" type="qcurve"/>
      <point x="90" y="2" type="line"/>
      <point x="90" y="84" type="line"/>
      <point x="281" y="84" type="line"/>
      <point x="238" y="117" name="inserted"/>
      <point x="181" y="216"/>
      <point x="166" y="282" type="qcurve"/>
      <point x="0" y="282" type="line"/>
      <point x="0" y="356" type="line"/>
      <point x="1146" y="356" type="line"/>
    </contour>
    <contour>
      <point x="917" y="282" type="qcurve"/>
      <point x="295" y="282" type="line"/>
      <point x="308" y="221" name="inserted"/>
      <point x="370" y="122"/>
      <point x="420" y="84" type="qcurve"/>
      <point x="506" y="84" type="line"/>
      <point x="550" y="84" name="inserted"/>
      <point x="645" y="100"/>
      <point x="696" y="115" type="qcurve"/>
      <point x="748" y="131" name="inserted"/>
      <point x="826" y="169"/>
      <point x="851" y="191" type="qcurve"/>
      <point x="874" y="212" name="inserted"/>
      <point x="907" y="257"/>
    </contour>
    <contour>
      <point x="510" y="-216" type="qcurve"/>
      <point x="474" y="-181" name="inserted"/>
      <point x="410" y="-145"/>
      <point x="382" y="-145" type="qcurve"/>
      <point x="356" y="-145" name="inserted"/>
      <point x="329" y="-159"/>
      <point x="329" y="-174" type="qcurve"/>
      <point x="329" y="-195" name="inserted"/>
      <point x="395" y="-217"/>
      <point x="462" y="-217" type="qcurve"/>
      <point x="474" y="-217" name="inserted"/>
      <point x="499" y="-216"/>
    </contour>
    <contour>
      <point x="1059" y="-617" type="line"/>
      <point x="958" y="-667" type="line"/>
      <point x="722" y="-453" type="line"/>
      <point x="825" y="-406" type="line"/>
    </contour>
  </outline>
</glyph>
<glyph name="u0A1E_u0A3C" format="1">
  <advance width="1126"/>
  <outline>
    <contour>
      <point x="1146" y="557" type="line"/>
      <point x="998" y="557" type="line"/>
      <point x="998" y="299" type="line"/>
      <point x="312" y="299" type="line"/>
      <point x="256" y="299" name="inserted"/>
      <point x="201" y="269"/>
      <point x="201" y="238" type="qcurve"/>
      <point x="201" y="224" name="inserted"/>
      <point x="220" y="202"/>
      <point x="239" y="194" type="qcurve"/>
      <point x="256" y="187" name="inserted"/>
      <point x="295" y="180"/>
      <point x="318" y="180" type="qcurve"/>
      <point x="998" y="180" type="line"/>
      <point x="998" y="92" type="line"/>
      <point x="507" y="92" type="line"/>
      <point x="498" y="80" name="inserted"/>
      <point x="489" y="54"/>
      <point x="489" y="38" type="qcurve"/>
      <point x="489" y="9" name="inserted"/>
      <point x="596" y="-19"/>
      <point x="704" y="-19" type="qcurve"/>
      <point x="712" y="-19" name="inserted"/>
      <point x="733" y="-19"/>
      <point x="746" y="-19" type="qcurve"/>
      <point x="758" y="-19" name="inserted"/>
      <point x="774" y="-19"/>
      <point x="778" y="-19" type="qcurve"/>
      <point x="998" y="-19" type="line"/>
      <point x="998" y="-101" type="line"/>
      <point x="709" y="-101" type="line"/>
      <point x="633" y="-101" name="inserted"/>
      <point x="518" y="-90"/>
      <point x="478" y="-79" type="qcurve"/>
      <point x="420" y="-63" name="inserted"/>
      <point x="361" y="-5"/>
      <point x="361" y="37" type="qcurve"/>
      <point x="361" y="51" name="inserted"/>
      <point x="371" y="81"/>
      <point x="381" y="97" type="qcurve"/>
      <point x="227" y="97" name="inserted"/>
      <point x="73" y="167"/>
      <point x="73" y="237" type="qcurve"/>
      <point x="73" y="298" name="inserted"/>
      <point x="178" y="371"/>
      <point x="282" y="382" type="qcurve"/>
      <point x="244" y="418" name="inserted"/>
      <point x="204" y="506"/>
      <point x="201" y="557" type="qcurve"/>
      <point x="0" y="557" type="line"/>
      <point x="0" y="631" type="line"/>
      <point x="1146" y="631" type="line"/>
    </contour>
    <contour>
      <point x="870" y="382" type="line"/>
      <point x="870" y="557" type="line"/>
      <point x="329" y="557" type="line"/>
      <point x="330" y="531" name="inserted"/>
      <point x="351" y="479"/>
      <point x="370" y="453" type="qcurve"/>
      <point x="387" y="429" name="inserted"/>
      <point x="426" y="393"/>
      <point x="447" y="382" type="qcurve"/>
    </contour>
    <contour>
      <point x="251" y="-40" type="qcurve"/>
      <point x="251" y="-62"/>
      <point x="202" y="-93"/>
      <point x="168" y="-93" type="qcurve"/>
      <point x="134" y="-93"/>
      <point x="85" y="-62"/>
      <point x="85" y="-40" type="qcurve"/>
      <point x="85" y="-18"/>
      <point x="134" y="14"/>
      <point x="168" y="14" type="qcurve"/>
      <point x="202" y="14"/>
      <point x="251" y="-18"/>
    </contour>
    <contour>
      <point x="1168" y="1248" type="move" name="mark0"/>
    </contour>
    <contour>
      <point x="1424" y="0" type="move" name="mark0"/>
    </contour>
  </outline>
</glyph>
<glyph name="u0A20_u0A4D" format="1">
  <advance width="1126"/>
  <outline>
    <contour>
      <point x="1146" y="290" type="line"/>
      <point x="624" y="290" type="line"/>
      <point x="624" y="173" type="line"/>
      <point x="813" y="126" name="inserted"/>
      <point x="1002" y="2"/>
      <point x="1002" y="-76" type="qcurve"/>
      <point x="1002" y="-127" name="inserted"/>
      <point x="931" y="-214"/>
      <point x="859" y="-249" type="qcurve"/>
      <point x="793" y="-283" name="inserted"/>
      <point x="643" y="-316"/>
      <point x="560" y="-316" type="qcurve"/>
      <point x="477" y="-316" name="inserted"/>
      <point x="327" y="-283"/>
      <point x="261" y="-249" type="qcurve"/>
      <point x="189" y="-214" name="inserted"/>
      <point x="118" y="-127"/>
      <point x="118" y="-76" type="qcurve"/>
      <point x="118" y="2" name="inserted"/>
      <point x="306" y="126"/>
      <point x="495" y="173" type="qcurve"/>
      <point x="495" y="290" type="line"/>
      <point x="0" y="290" type="line"/>
      <point x="0" y="364" type="line"/>
      <point x="1146" y="364" type="line"/>
    </contour>
    <contour>
      <point x="874" y="-76" type="qcurve"/>
      <point x="874" y="-46" name="inserted"/>
      <point x="818" y="9"/>
      <point x="762" y="34" type="qcurve"/>
      <point x="720" y="54" name="inserted"/>
      <point x="616" y="85"/>
      <point x="554" y="97" type="qcurve"/>
      <point x="494" y="85" name="inserted"/>
      <point x="392" y="54"/>
      <point x="351" y="34" type="qcurve"/>
      <point x="298" y="9" name="inserted"/>
      <point x="246" y="-46"/>
      <point x="246" y="-76" type="qcurve"/>
      <point x="246" y="-109" name="inserted"/>
      <point x="299" y="-167"/>
      <point x="352" y="-191" type="qcurve"/>
      <point x="400" y="-213" name="inserted"/>
      <point x="504" y="-235"/>
      <point x="559" y="-235" type="qcurve"/>
      <point x="615" y="-235" name="inserted"/>
      <point x="719" y="-213"/>
      <point x="767" y="-191" type="qcurve"/>
      <point x="821" y="-167" name="inserted"/>
      <point x="874" y="-109"/>
    </contour>
    <contour>
      <point x="875" y="-601" type="line"/>
      <point x="774" y="-651" type="line"/>
      <point x="538" y="-437" type="line"/>
      <point x="641" y="-390" type="line"/>
    </contour>
  </outline>
</glyph>
<glyph name="u0A23_u0A3C" format="1">
  <advance width="1008.0"/>
  <outline>
    <contour>
      <point x="1027" y="515" type="line"/>
      <point x="398" y="515" type="line"/>
      <point x="413" y="468" name="inserted"/>
      <point x="512" y="403"/>
      <point x="597" y="387" type="qcurve"/>
      <point x="647" y="377" name="inserted"/>
      <point x="798" y="368"/>
      <point x="899" y="368" type="qcurve"/>
      <point x="899" y="288" type="line"/>
      <point x="867" y="288" type="line"/>
      <point x="796" y="288" name="inserted"/>
      <point x="688" y="293"/>
      <point x="650" y="298" type="qcurve"/>
      <point x="650" y="176" type="line"/>
      <point x="592" y="186" name="inserted"/>
      <point x="479" y="195"/>
      <point x="422" y="195" type="qcurve"/>
      <point x="387" y="195" name="inserted"/>
      <point x="327" y="183"/>
      <point x="302" y="171" type="qcurve"/>
      <point x="274" y="158" name="inserted"/>
      <point x="247" y="122"/>
      <point x="247" y="100" type="qcurve"/>
      <point x="247" y="47" name="inserted"/>
      <point x="386" y="-7"/>
      <point x="526" y="-7" type="qcurve"/>
      <point x="570" y="-7" name="inserted"/>
      <point x="684" y="7"/>
      <point x="754" y="20" type="qcurve"/>
      <point x="812" y="31" name="inserted"/>
      <point x="878" y="42"/>
      <point x="887" y="42" type="qcurve"/>
      <point x="892" y="42" name="inserted"/>
      <point x="896" y="39"/>
      <point x="896" y="35" type="qcurve"/>
      <point x="896" y="5" name="inserted"/>
      <point x="824" y="-43"/>
      <point x="751" y="-61" type="qcurve"/>
      <point x="695" y="-75" name="inserted"/>
      <point x="582" y="-89"/>
      <point x="526" y="-89" type="qcurve"/>
      <point x="443" y="-89" name="inserted"/>
      <point x="306" y="-69"/>
      <point x="252" y="-49" type="qcurve"/>
      <point x="186" y="-24" name="inserted"/>
      <point x="120" y="50"/>
      <point x="120" y="100" type="qcurve"/>
      <point x="120" y="137" name="inserted"/>
      <point x="162" y="201"/>
      <point x="205" y="227" type="qcurve"/>
      <point x="247" y="252" name="inserted"/>
      <point x="348" y="278"/>
      <point x="406" y="278" type="qcurve"/>
      <point x="444" y="278" name="inserted"/>
      <point x="516" y="274"/>
      <point x="550" y="270" type="qcurve"/>
      <point x="550" y="315" type="line"/>
      <point x="425" y="343" name="inserted"/>
      <point x="283" y="444"/>
      <point x="267" y="515" type="qcurve"/>
      <point x="0" y="515" type="line"/>
      <point x="0" y="590" type="line"/>
      <point x="1027" y="590" type="line"/>
    </contour>
    <contour>
      <point x="211" y="-132" type="qcurve"/>
      <point x="211" y="-155"/>
      <point x="162" y="-186"/>
      <point x="128" y="-186" type="qcurve"/>
      <point x="94" y="-186"/>
      <point x="45" y="-155"/>
      <point x="45" y="-132" type="qcurve"/>
      <point x="45" y="-110"/>
      <point x="94" y="-79"/>
      <point x="128" y="-79" type="qcurve"/>
      <point x="162" y="-79"/>
      <point x="211" y="-110"/>
    </contour>
    <contour>
      <point x="1036" y="1248" type="move" name="mark0"/>
    </contour>
    <contour>
      <point x="1260" y="0" type="move" name="mark0"/>
    </contour>
  </outline>
</glyph>
<glyph name="u0A25_u0A3C" format="1">
  <advance width="1101"/>
  <outline>
    <contour>
      <point x="1120" y="606" type="line"/>
      <point x="973" y="606" type="line"/>
      <point x="973" y="0" type="line"/>
      <point x="845" y="0" type="line"/>
      <point x="845" y="200" type="line"/>
      <point x="790" y="180" name="inserted"/>
      <point x="624" y="160"/>
      <point x="513" y="160" type="qcurve"/>
      <point x="458" y="160" name="inserted"/>
      <point x="350" y="175"/>
      <point x="298" y="190" type="qcurve"/>
      <point x="242" y="205" name="inserted"/>
      <point x="158" y="246"/>
      <point x="130" y="271" type="qcurve"/>
      <point x="146" y="287" name="inserted"/>
      <point x="178" y="318"/>
      <point x="194" y="334" type="qcurve"/>
      <point x="222" y="367" name="inserted"/>
      <point x="250" y="441"/>
      <point x="250" y="480" type="qcurve"/>
      <point x="250" y="522" name="inserted"/>
      <point x="224" y="585"/>
      <point x="198" y="606" type="qcurve"/>
      <point x="0" y="606" type="line"/>
      <point x="0" y="680" type="line"/>
      <point x="1120" y="680" type="line"/>
    </contour>
    <contour>
      <point x="845" y="456" type="line"/>
      <point x="845" y="606" type="line"/>
      <point x="347" y="606" type="line"/>
      <point x="363" y="581" name="inserted"/>
      <point x="379" y="506"/>
      <point x="378" y="456" type="qcurve"/>
    </contour>
    <contour>
      <point x="845" y="299" type="qcurve"/>
      <point x="845" y="382" type="line"/>
      <point x="362" y="382" type="line"/>
      <point x="352" y="355" name="inserted"/>
      <point x="315" y="304"/>
      <point x="289" y="282" type="qcurve"/>
      <point x="327" y="262" name="inserted"/>
      <point x="439" y="243"/>
      <point x="513" y="243" type="qcurve"/>
      <point x="558" y="243" name="inserted"/>
      <point x="648" y="250"/>
      <point x="694" y="256" type="qcurve"/>
      <point x="747" y="264" name="inserted"/>
      <point x="822" y="286"/>
    </contour>
    <contour>
      <point x="327" y="78" type="qcurve"/>
      <point x="327" y="56"/>
      <point x="278" y="25"/>
      <point x="244" y="25" type="qcurve"/>
      <point x="210" y="25"/>
      <point x="161" y="56"/>
      <point x="161" y="78" type="qcurve"/>
      <point x="161" y="100"/>
      <point x="210" y="132"/>
      <point x="244" y="132" type="qcurve"/>
      <point x="278" y="132"/>
      <point x="327" y="100"/>
    </contour>
    <contour>
      <point x="1136" y="1248" type="move" name="mark0"/>
    </contour>
    <contour>
      <point x="1376" y="0" type="move" name="mark0"/>
    </contour>
  </outline>
</glyph>
<glyph name="u0A27_u0A3C" format="1">
  <advance width="1056.0"/>
  <outline>
    <contour>
      <point x="1075" y="606" type="line"/>
      <point x="928" y="606" type="line"/>
      <point x="928" y="0" type="line"/>
      <point x="800" y="0" type="line"/>
      <point x="800" y="200" type="line"/>
      <point x="738" y="178" name="inserted"/>
      <point x="592" y="155"/>
      <point x="508" y="155" type="qcurve"/>
      <point x="373" y="155" name="inserted"/>
      <point x="158" y="210"/>
      <point x="78" y="266" type="qcurve"/>
      <point x="98" y="284" name="inserted"/>
      <point x="139" y="321"/>
      <point x="159" y="339" type="qcurve"/>
      <point x="190" y="374" name="inserted"/>
      <point x="222" y="441"/>
      <point x="222" y="475" type="qcurve"/>
      <point x="222" y="510" name="inserted"/>
      <point x="195" y="575"/>
      <point x="169" y="606" type="qcurve"/>
      <point x="0" y="606" type="line"/>
      <point x="0" y="680" type="line"/>
      <point x="1075" y="680" type="line"/>
    </contour>
    <contour>
      <point x="800" y="299" type="qcurve"/>
      <point x="800" y="606" type="line"/>
      <point x="310" y="606" type="line"/>
      <point x="330" y="570" name="inserted"/>
      <point x="350" y="499"/>
      <point x="350" y="465" type="qcurve"/>
      <point x="350" y="422" name="inserted"/>
      <point x="301" y="330"/>
      <point x="252" y="282" type="qcurve"/>
      <point x="291" y="260" name="inserted"/>
      <point x="419" y="237"/>
      <point x="508" y="237" type="qcurve"/>
      <point x="589" y="237"/>
      <point x="753" y="271"/>
    </contour>
    <contour>
      <point x="327" y="78" type="qcurve"/>
      <point x="327" y="56"/>
      <point x="278" y="25"/>
      <point x="244" y="25" type="qcurve"/>
      <point x="210" y="25"/>
      <point x="161" y="56"/>
      <point x="161" y="78" type="qcurve"/>
      <point x="161" y="100"/>
      <point x="210" y="132"/>
      <point x="244" y="132" type="qcurve"/>
      <point x="278" y="132"/>
      <point x="327" y="100"/>
    </contour>
    <contour>
      <point x="1080" y="1248" type="move" name="mark0"/>
    </contour>
    <contour>
      <point x="1320" y="0" type="move" name="mark0"/>
    </contour>
  </outline>
</glyph>
<glyph name="u0A28_u0A3C" format="1">
  <advance width="1101"/>
  <outline>
    <contour>
      <point x="1120" y="540" type="line"/>
      <point x="622" y="540" type="line"/>
      <point x="622" y="422" type="line"/>
      <point x="705" y="407" name="inserted"/>
      <point x="841" y="366"/>
      <point x="893" y="340" type="qcurve"/>
      <point x="960" y="306" name="inserted"/>
      <point x="1028" y="225"/>
      <point x="1028" y="178" type="qcurve"/>
      <point x="1028" y="132" name="inserted"/>
      <point x="987" y="55"/>
      <point x="946" y="23" type="qcurve"/>
      <point x="908" y="-7" name="inserted"/>
      <point x="800" y="-51"/>
      <point x="730" y="-65" type="qcurve"/>
      <point x="693" y="13" type="line"/>
      <point x="796" y="34" name="inserted"/>
      <point x="900" y="116"/>
      <point x="900" y="178" type="qcurve"/>
      <point x="900" y="202" name="inserted"/>
      <point x="851" y="249"/>
      <point x="802" y="272" type="qcurve"/>
      <point x="766" y="289" name="inserted"/>
      <point x="683" y="317"/>
      <point x="638" y="327" type="qcurve"/>
      <point x="610" y="333" name="inserted"/>
      <point x="572" y="339"/>
      <point x="561" y="339" type="qcurve"/>
      <point x="550" y="339" name="inserted"/>
      <point x="512" y="333"/>
      <point x="484" y="328" type="qcurve"/>
      <point x="438" y="317" name="inserted"/>
      <point x="354" y="290"/>
      <point x="316" y="272" type="qcurve"/>
      <point x="266" y="249" name="inserted"/>
      <point x="216" y="202"/>
      <point x="216" y="178" type="qcurve"/>
      <point x="216" y="116" name="inserted"/>
      <point x="320" y="34"/>
      <point x="423" y="13" type="qcurve"/>
      <point x="386" y="-65" type="line"/>
      <point x="316" y="-51" name="inserted"/>
      <point x="208" y="-7"/>
      <point x="170" y="23" type="qcurve"/>
      <point x="129" y="55" name="inserted"/>
      <point x="88" y="132"/>
      <point x="88" y="178" type="qcurve"/>
      <point x="88" y="224" name="inserted"/>
      <point x="156" y="305"/>
      <point x="224" y="339" type="qcurve"/>
      <point x="277" y="366" name="inserted"/>
      <point x="412" y="407"/>
      <point x="494" y="422" type="qcurve"/>
      <point x="494" y="540" type="line"/>
      <point x="0" y="540" type="line"/>
      <point x="0" y="614" type="line"/>
      <point x="1120" y="614" type="line"/>
    </contour>
    <contour>
      <point x="215" y="-82" type="qcurve"/>
      <point x="215" y="-105"/>
      <point x="166" y="-136"/>
      <point x="132" y="-136" type="qcurve"/>
      <point x="98" y="-136"/>
      <point x="49" y="-105"/>
      <point x="49" y="-82" type="qcurve"/>
      <point x="49" y="-60"/>
      <point x="98" y="-29"/>
      <point x="132" y="-29" type="qcurve"/>
      <point x="166" y="-29"/>
      <point x="215" y="-60"/>
    </contour>
    <contour>
      <point x="697" y="1248" type="move" name="mark0"/>
    </contour>
    <contour>
      <point x="697" y="1248" type="move" name="mark0"/>
    </contour>
    <contour>
      <point x="705" y="0" type="move" name="mark0"/>
    </contour>
    <contour>
      <point x="944" y="0" type="move" name="mark0"/>
    </contour>
  </outline>
</glyph>
<glyph name="u0A2B_u0A4D" format="1">
  <advance width="1008.0"/>
  <outline>
    <contour>
      <point x="1027" y="290" type="line"/>
      <point x="880" y="290" type="line"/>
      <point x="880" y="55" type="line"/>
      <point x="359" y="55" type="line"/>
      <point x="281" y="55" name="inserted"/>
      <point x="203" y="30"/>
      <point x="203" y="5" type="qcurve"/>
      <point x="203" y="-78" name="inserted"/>
      <point x="322" y="-189"/>
      <point x="442" y="-217" type="qcurve"/>
      <point x="482" y="-183" name="inserted"/>
      <point x="552" y="-133"/>
      <point x="581" y="-117" type="qcurve"/>
      <point x="622" y="-95" name="inserted"/>
      <point x="706" y="-73"/>
      <point x="749" y="-73" type="qcurve"/>
      <point x="790" y="-73" name="inserted"/>
      <point x="856" y="-88"/>
      <point x="881" y="-102" type="qcurve"/>
      <point x="907" y="-117" name="inserted"/>
      <point x="933" y="-158"/>
      <point x="933" y="-184" type="qcurve"/>
      <point x="933" y="-219" name="inserted"/>
      <point x="878" y="-272"/>
      <point x="824" y="-289" type="qcurve"/>
      <point x="782" y="-302" name="inserted"/>
      <point x="680" y="-316"/>
      <point x="618" y="-316" type="qcurve"/>
      <point x="504" y="-316" name="inserted"/>
      <point x="314" y="-274"/>
      <point x="238" y="-231" type="qcurve"/>
      <point x="157" y="-186" name="inserted"/>
      <point x="76" y="-69"/>
      <point x="76" y="5" type="qcurve"/>
      <point x="76" y="43" name="inserted"/>
      <point x="102" y="97"/>
      <point x="129" y="111" type="qcurve"/>
      <point x="152" y="124" name="inserted"/>
      <point x="236" y="137"/>
      <point x="295" y="137" type="qcurve"/>
      <point x="752" y="137" type="line"/>
      <point x="752" y="290" type="line"/>
      <point x="0" y="290" type="line"/>
      <point x="0" y="364" type="line"/>
      <point x="1027" y="364" type="line"/>
    </contour>
    <contour>
      <point x="805" y="-183" type="qcurve"/>
      <point x="805" y="-169" name="inserted"/>
      <point x="774" y="-156"/>
      <point x="742" y="-156" type="qcurve"/>
      <point x="710" y="-156" name="inserted"/>
      <point x="623" y="-199"/>
      <point x="569" y="-243" type="qcurve"/>
      <point x="585" y="-243" name="inserted"/>
      <point x="614" y="-244"/>
      <point x="626" y="-244" type="qcurve"/>
      <point x="716" y="-244" name="inserted"/>
      <point x="805" y="-214"/>
    </contour>
    <contour>
      <point x="875" y="-601" type="line"/>
      <point x="774" y="-651" type="line"/>
      <point x="538" y="-437" type="line"/>
      <point x="641" y="-390" type="line"/>
    </contour>
  </outline>
</glyph>
<glyph name="u0A2C_u0A4D" format="1">
  <advance width="1117"/>
  <outline>
    <contour>
      <point x="1136" y="290" type="line"/>
      <point x="989" y="290" type="line"/>
      <point x="989" y="-316" type="line"/>
      <point x="861" y="-316" type="line"/>
      <point x="861" y="-194" type="line"/>
      <point x="803" y="-207" name="inserted"/>
      <point x="642" y="-220"/>
      <point x="540" y="-220" type="qcurve"/>
      <point x="499" y="-220" name="inserted"/>
      <point x="407" y="-208"/>
      <point x="357" y="-196" type="qcurve"/>
      <point x="299" y="-183" name="inserted"/>
      <point x="222" y="-149"/>
      <point x="203" y="-128" type="qcurve"/>
      <point x="211" y="-108" name="inserted"/>
      <point x="248" y="-62"/>
      <point x="278" y="-37" type="qcurve"/>
      <point x="304" y="-14" name="inserted"/>
      <point x="359" y="22"/>
      <point x="387" y="37" type="qcurve"/>
      <point x="262" y="65" name="inserted"/>
      <point x="103" y="192"/>
      <point x="70" y="290" type="qcurve"/>
      <point x="0" y="290" type="line"/>
      <point x="0" y="364" type="line"/>
      <point x="1136" y="364" type="line"/>
    </contour>
    <contour>
      <point x="861" y="81" type="qcurve"/>
      <point x="861" y="290" type="line"/>
      <point x="201" y="290" type="line"/>
      <point x="228" y="220" name="inserted"/>
      <point x="351" y="129"/>
      <point x="446" y="108" type="qcurve"/>
      <point x="506" y="94" name="inserted"/>
      <point x="713" y="81"/>
    </contour>
    <contour>
      <point x="861" y="-98" type="qcurve"/>
      <point x="861" y="-5" type="line"/>
      <point x="860" y="-5" name="inserted"/>
      <point x="848" y="-5"/>
      <point x="838" y="-5" type="qcurve"/>
      <point x="711" y="-5" name="inserted"/>
      <point x="555" y="-1"/>
      <point x="526" y="3" type="qcurve"/>
      <point x="460" y="-24" name="inserted"/>
      <point x="367" y="-80"/>
      <point x="341" y="-108" type="qcurve"/>
      <point x="374" y="-125" name="inserted"/>
      <point x="486" y="-139"/>
      <point x="564" y="-138" type="qcurve"/>
      <point x="650" y="-135" name="inserted"/>
      <point x="799" y="-116"/>
    </contour>
    <contour>
      <point x="1219" y="-601" type="line"/>
      <point x="1118" y="-651" type="line"/>
      <point x="882" y="-437" type="line"/>
      <point x="985" y="-390" type="line"/>
    </contour>
  </outline>
</glyph>
<glyph name="u0A2D_u0A3C_u0A4D" format="1">
  <advance width="1008.0"/>
  <outline>
    <contour>
      <point x="1027" y="290" type="line"/>
      <point x="890" y="290" type="line"/>
      <point x="890" y="262" name="inserted"/>
      <point x="878" y="201"/>
      <point x="866" y="169" type="qcurve"/>
      <point x="852" y="132" name="inserted"/>
      <point x="816" y="77"/>
      <point x="794" y="58" type="qcurve"/>
      <point x="834" y="25" name="inserted"/>
      <point x="874" y="-49"/>
      <point x="874" y="-91" type="qcurve"/>
      <point x="874" y="-144" name="inserted"/>
      <point x="802" y="-225"/>
      <point x="730" y="-254" type="qcurve"/>
      <point x="668" y="-279" name="inserted"/>
      <point x="520" y="-304"/>
      <point x="433" y="-304" type="qcurve"/>
      <point x="378" y="-304" name="inserted"/>
      <point x="270" y="-288"/>
      <point x="216" y="-271" type="qcurve"/>
      <point x="155" y="-253" name="inserted"/>
      <point x="77" y="-204"/>
      <point x="59" y="-175" type="qcurve"/>
      <point x="56" y="-170" name="inserted"/>
      <point x="54" y="-157"/>
      <point x="54" y="-149" type="qcurve"/>
      <point x="54" y="-143" name="inserted"/>
      <point x="56" y="-138"/>
      <point x="59" y="-138" type="qcurve"/>
      <point x="78" y="-145" name="inserted"/>
      <point x="120" y="-163"/>
      <point x="144" y="-174" type="qcurve"/>
      <point x="211" y="-198" name="inserted"/>
      <point x="355" y="-222"/>
      <point x="433" y="-222" type="qcurve"/>
      <point x="490" y="-222" name="inserted"/>
      <point x="591" y="-208"/>
      <point x="635" y="-193" type="qcurve"/>
      <point x="691" y="-175" name="inserted"/>
      <point x="746" y="-124"/>
      <point x="746" y="-91" type="qcurve"/>
      <point x="746" y="-65" name="inserted"/>
      <point x="724" y="-19"/>
      <point x="701" y="2" type="qcurve"/>
      <point x="657" y="-19" name="inserted"/>
      <point x="580" y="-46"/>
      <point x="547" y="-53" type="qcurve"/>
      <point x="513" y="-61" name="inserted"/>
      <point x="426" y="-68"/>
      <point x="373" y="-68" type="qcurve"/>
      <point x="326" y="-68" name="inserted"/>
      <point x="243" y="-54"/>
      <point x="206" y="-41" type="qcurve"/>
      <point x="162" y="-24" name="inserted"/>
      <point x="118" y="20"/>
      <point x="118" y="47" type="qcurve"/>
      <point x="118" y="85" name="inserted"/>
      <point x="171" y="137"/>
      <point x="225" y="151" type="qcurve"/>
      <point x="260" y="161" name="inserted"/>
      <point x="363" y="170"/>
      <point x="431" y="170" type="qcurve"/>
      <point x="502" y="170" name="inserted"/>
      <point x="634" y="143"/>
      <point x="697" y="116" type="qcurve"/>
      <point x="710" y="129" name="inserted"/>
      <point x="732" y="171"/>
      <point x="742" y="200" type="qcurve"/>
      <point x="752" y="227" name="inserted"/>
      <point x="761" y="271"/>
      <point x="762" y="290" type="qcurve"/>
      <point x="0" y="290" type="line"/>
      <point x="0" y="364" type="line"/>
      <point x="1027" y="364" type="line"/>
    </contour>
    <contour>
      <point x="610" y="52" type="qcurve"/>
      <point x="566" y="70" name="inserted"/>
      <point x="472" y="88"/>
      <point x="422" y="88" type="qcurve"/>
      <point x="334" y="88" name="inserted"/>
      <point x="246" y="68"/>
      <point x="246" y="47" type="qcurve"/>
      <point x="246" y="40" name="inserted"/>
      <point x="272" y="28"/>
      <point x="299" y="23" type="qcurve"/>
      <point x="320" y="19" name="inserted"/>
      <point x="357" y="14"/>
      <point x="373" y="14" type="qcurve"/>
      <point x="417" y="14" name="inserted"/>
      <point x="479" y="17"/>
      <point x="498" y="19" type="qcurve"/>
      <point x="528" y="23" name="inserted"/>
      <point x="584" y="39"/>
    </contour>
    <contour>
      <point x="251" y="-384" type="qcurve"/>
      <point x="251" y="-406"/>
      <point x="202" y="-437"/>
      <point x="168" y="-437" type="qcurve"/>
      <point x="134" y="-437"/>
      <point x="85" y="-406"/>
      <point x="85" y="-384" type="qcurve"/>
      <point x="85" y="-362"/>
      <point x="134" y="-330"/>
      <point x="168" y="-330" type="qcurve"/>
      <point x="202" y="-330"/>
      <point x="251" y="-362"/>
    </contour>
    <contour>
      <point x="795" y="-601" type="line"/>
      <point x="694" y="-651" type="line"/>
      <point x="458" y="-437" type="line"/>
      <point x="561" y="-390" type="line"/>
    </contour>
  </outline>
</glyph>
<glyph name="u0A2E_u0A3C" format="1">
  <advance width="1072.0"/>
  <outline>
    <contour>
      <point x="1091" y="575" type="line"/>
      <point x="944" y="575" type="line"/>
      <point x="944" y="-31" type="line"/>
      <point x="816" y="-31" type="line"/>
      <point x="816" y="281" type="line"/>
      <point x="420" y="281" type="line"/>
      <point x="420" y="275" name="inserted"/>
      <point x="421" y="257"/>
      <point x="421" y="245" type="qcurve"/>
      <point x="421" y="207" name="inserted"/>
      <point x="400" y="139"/>
      <point x="378" y="110" type="qcurve"/>
      <point x="351" y="72" name="inserted"/>
      <point x="271" y="34"/>
      <point x="218" y="34" type="qcurve"/>
      <point x="171" y="34"/>
      <point x="106" y="76"/>
      <point x="106" y="106" type="qcurve"/>
      <point x="106" y="126" name="inserted"/>
      <point x="128" y="162"/>
      <point x="151" y="180" type="qcurve"/>
      <point x="172" y="195" name="inserted"/>
      <point x="214" y="224"/>
      <point x="234" y="239" type="qcurve"/>
      <point x="257" y="259" name="inserted"/>
      <point x="280" y="305"/>
      <point x="280" y="330" type="qcurve"/>
      <point x="280" y="372" name="inserted"/>
      <point x="244" y="495"/>
      <point x="209" y="575" type="qcurve"/>
      <point x="0" y="575" type="line"/>
      <point x="0" y="649" type="line"/>
      <point x="307" y="649" type="line"/>
      <point x="340" y="587" name="inserted"/>
      <point x="390" y="445"/>
      <point x="408" y="363" type="qcurve"/>
      <point x="816" y="363" type="line"/>
      <point x="816" y="649" type="line"/>
      <point x="1091" y="649" type="line"/>
    </contour>
    <contour>
      <point x="626" y="-10" type="qcurve"/>
      <point x="626" y="-33"/>
      <point x="578" y="-64"/>
      <point x="543" y="-64" type="qcurve"/>
      <point x="509" y="-64"/>
      <point x="460" y="-33"/>
      <point x="460" y="-10" type="qcurve"/>
      <point x="460" y="12"/>
      <point x="509" y="43"/>
      <point x="543" y="43" type="qcurve"/>
      <point x="578" y="43"/>
      <point x="626" y="12"/>
    </contour>
    <contour>
      <point x="1100" y="1248" type="move" name="mark0"/>
    </contour>
    <contour>
      <point x="1340" y="0" type="move" name="mark0"/>
    </contour>
  </outline>
</glyph>
<glyph name="u0A2F_u0A3C" format="1">
  <advance width="1155"/>
  <outline>
    <contour>
      <point x="1174" y="564" type="line"/>
      <point x="1027" y="564" type="line"/>
      <point x="1027" y="-42" type="line"/>
      <point x="899" y="-42" type="line"/>
      <point x="899" y="271" type="line"/>
      <point x="674" y="271" type="line"/>
      <point x="674" y="85" type="line"/>
      <point x="603" y="72" name="inserted"/>
      <point x="492" y="59"/>
      <point x="451" y="59" type="qcurve"/>
      <point x="328" y="59" name="inserted"/>
      <point x="142" y="142"/>
      <point x="78" y="226" type="qcurve"/>
      <point x="130" y="269" name="inserted"/>
      <point x="182" y="355"/>
      <point x="182" y="398" type="qcurve"/>
      <point x="182" y="446" name="inserted"/>
      <point x="146" y="529"/>
      <point x="110" y="564" type="qcurve"/>
      <point x="93" y="564" name="inserted"/>
      <point x="38" y="564"/>
      <point x="0" y="564" type="qcurve"/>
      <point x="0" y="638" type="line"/>
      <point x="1174" y="638" type="line"/>
    </contour>
    <contour>
      <point x="899" y="354" type="line"/>
      <point x="899" y="564" type="line"/>
      <point x="251" y="564" type="line"/>
      <point x="284" y="518" name="inserted"/>
      <point x="316" y="435"/>
      <point x="316" y="398" type="qcurve"/>
      <point x="316" y="364" name="inserted"/>
      <point x="276" y="278"/>
      <point x="236" y="227" type="qcurve"/>
      <point x="267" y="184" name="inserted"/>
      <point x="374" y="141"/>
      <point x="451" y="141" type="qcurve"/>
      <point x="477" y="141" name="inserted"/>
      <point x="525" y="148"/>
      <point x="547" y="155" type="qcurve"/>
      <point x="547" y="354" type="line"/>
    </contour>
    <contour>
      <point x="251" y="-32" type="qcurve"/>
      <point x="251" y="-55"/>
      <point x="202" y="-86"/>
      <point x="168" y="-86" type="qcurve"/>
      <point x="134" y="-86"/>
      <point x="85" y="-55"/>
      <point x="85" y="-32" type="qcurve"/>
      <point x="85" y="-10"/>
      <point x="134" y="21"/>
      <point x="168" y="21" type="qcurve"/>
      <point x="202" y="21"/>
      <point x="251" y="-10"/>
    </contour>
    <contour>
      <point x="1204" y="1248" type="move" name="mark0"/>
    </contour>
    <contour>
      <point x="1444" y="0" type="move" name="mark0"/>
    </contour>
  </outline>
</glyph>
<glyph name="u0A30_u0A3C" format="1">
  <advance width="1056.0"/>
  <outline>
    <contour>
      <point x="1075" y="564" type="line"/>
      <point x="928" y="564" type="line"/>
      <point x="928" y="163" type="line"/>
      <point x="928" y="59" name="inserted"/>
      <point x="792" y="-45"/>
      <point x="656" y="-45" type="qcurve"/>
      <point x="561" y="-45" name="inserted"/>
      <point x="367" y="5"/>
      <point x="268" y="56" type="qcurve"/>
      <point x="170" y="105" name="inserted"/>
      <point x="73" y="200"/>
      <point x="73" y="245" type="qcurve"/>
      <point x="73" y="278" name="inserted"/>
      <point x="102" y="327"/>
      <point x="130" y="343" type="qcurve"/>
      <point x="153" y="355" name="inserted"/>
      <point x="210" y="368"/>
      <point x="246" y="368" type="qcurve"/>
      <point x="800" y="368" type="line"/>
      <point x="800" y="564" type="line"/>
      <point x="0" y="564" type="line"/>
      <point x="0" y="638" type="line"/>
      <point x="1075" y="638" type="line"/>
    </contour>
    <contour>
      <point x="800" y="174" type="qcurve"/>
      <point x="800" y="286" type="line"/>
      <point x="322" y="286" type="line"/>
      <point x="288" y="286" name="inserted"/>
      <point x="244" y="277"/>
      <point x="234" y="268" type="qcurve"/>
      <point x="229" y="264" name="inserted"/>
      <point x="224" y="247"/>
      <point x="224" y="235" type="qcurve"/>
      <point x="224" y="211" name="inserted"/>
      <point x="296" y="151"/>
      <point x="367" y="115" type="qcurve"/>
      <point x="444" y="76" name="inserted"/>
      <point x="588" y="38"/>
      <point x="656" y="38" type="qcurve"/>
      <point x="728" y="38" name="inserted"/>
      <point x="800" y="106"/>
    </contour>
    <contour>
      <point x="222" y="-32" type="qcurve"/>
      <point x="222" y="-55"/>
      <point x="174" y="-86"/>
      <point x="139" y="-86" type="qcurve"/>
      <point x="105" y="-86"/>
      <point x="56" y="-55"/>
      <point x="56" y="-32" type="qcurve"/>
      <point x="56" y="-10"/>
      <point x="105" y="21"/>
      <point x="139" y="21" type="qcurve"/>
      <point x="174" y="21"/>
      <point x="222" y="-10"/>
    </contour>
    <contour>
      <point x="1080" y="1248" type="move" name="mark0"/>
    </contour>
    <contour>
      <point x="1320" y="0" type="move" name="mark0"/>
    </contour>
  </outline>
</glyph>
<glyph name="u0A30_u0A4D" format="1">
  <advance width="0.0"/>
  <outline>
    <contour>
      <point x="-394" y="-432" type="line"/>
      <point x="-342" y="-442"/>
      <point x="-237" y="-462"/>
      <point x="-204" y="-470" type="qcurve" smooth="yes"/>
      <point x="-177" y="-477"/>
      <point x="-95" y="-517"/>
      <point x="-30" y="-557" type="qcurve"/>
      <point x="-15" y="-543" type="line"/>
      <point x="-67" y="-509"/>
      <point x="-138" y="-473"/>
      <point x="-186" y="-457" type="qcurve" smooth="yes"/>
      <point x="-222" y="-445"/>
      <point x="-330" y="-423"/>
      <point x="-376" y="-415" type="qcurve"/>
    </contour>
    <contour>
      <point x="-177" y="-340" type="line"/>
      <point x="-205" y="-340" type="line"/>
      <point x="-205" y="-465" type="line"/>
      <point x="-177" y="-467" type="line"/>
    </contour>
    <contour>
      <point x="98" y="0" type="move" name="_mark0"/>
    </contour>
  </outline>
</glyph>
<glyph name="u0A30_u0A4D_u0A41" format="1">
  <advance width="0.0"/>
  <outline>
    <contour>
      <point x="36" y="-811" type="qcurve"/>
      <point x="-19" y="-864" type="line"/>
      <point x="-50" y="-849" name="inserted"/>
      <point x="-146" y="-804"/>
      <point x="-211" y="-775" type="qcurve"/>
      <point x="-230" y="-785" name="inserted"/>
      <point x="-279" y="-795"/>
      <point x="-309" y="-795" type="qcurve"/>
      <point x="-332" y="-795" name="inserted"/>
      <point x="-374" y="-787"/>
      <point x="-391" y="-780" type="qcurve"/>
      <point x="-412" y="-771" name="inserted"/>
      <point x="-432" y="-748"/>
      <point x="-432" y="-734" type="qcurve"/>
      <point x="-432" y="-707" name="inserted"/>
      <point x="-378" y="-680"/>
      <point x="-324" y="-680" type="qcurve"/>
      <point x="-305" y="-680" name="inserted"/>
      <point x="-269" y="-686"/>
      <point x="-252" y="-691" type="qcurve"/>
      <point x="-248" y="-675" name="inserted"/>
      <point x="-244" y="-614"/>
      <point x="-244" y="-568" type="qcurve"/>
      <point x="-244" y="-536" type="line"/>
      <point x="-146" y="-536" type="line"/>
      <point x="-146" y="-568" type="line"/>
      <point x="-146" y="-623" name="inserted"/>
      <point x="-154" y="-698"/>
      <point x="-162" y="-720" type="qcurve"/>
      <point x="-126" y="-737" name="inserted"/>
      <point x="-26" y="-783"/>
    </contour>
    <contour>
      <point x="-198" y="-966" type="qcurve"/>
      <point x="-276" y="-1004" name="inserted"/>
      <point x="-460" y="-1042"/>
      <point x="-565" y="-1042" type="qcurve"/>
      <point x="-670" y="-1042" name="inserted"/>
      <point x="-853" y="-1004"/>
      <point x="-932" y="-966" type="qcurve"/>
      <point x="-914" y="-950" name="inserted"/>
      <point x="-875" y="-917"/>
      <point x="-855" y="-900" type="qcurve"/>
      <point x="-831" y="-911" name="inserted"/>
      <point x="-768" y="-931"/>
      <point x="-728" y="-940" type="qcurve"/>
      <point x="-683" y="-950" name="inserted"/>
      <point x="-602" y="-960"/>
      <point x="-565" y="-960" type="qcurve"/>
      <point x="-528" y="-960" name="inserted"/>
      <point x="-444" y="-949"/>
      <point x="-395" y="-937" type="qcurve"/>
      <point x="-354" y="-928" name="inserted"/>
      <point x="-294" y="-910"/>
      <point x="-274" y="-900" type="qcurve"/>
      <point x="-254" y="-917" name="inserted"/>
      <point x="-216" y="-950"/>
    </contour>
  </outline>
</glyph>
<glyph name="u0A30_u0A4D_u0A4D" format="1">
  <advance width="0.0"/>
  <outline>
    <contour>
      <point x="36" y="-930" type="qcurve"/>
      <point x="-19" y="-983" type="line"/>
      <point x="-50" y="-968" name="inserted"/>
      <point x="-146" y="-923"/>
      <point x="-211" y="-894" type="qcurve"/>
      <point x="-230" y="-904" name="inserted"/>
      <point x="-279" y="-914"/>
      <point x="-309" y="-914" type="qcurve"/>
      <point x="-332" y="-914" name="inserted"/>
      <point x="-374" y="-906"/>
      <point x="-391" y="-899" type="qcurve"/>
      <point x="-412" y="-890" name="inserted"/>
      <point x="-432" y="-867"/>
      <point x="-432" y="-852" type="qcurve"/>
      <point x="-432" y="-826" name="inserted"/>
      <point x="-378" y="-799"/>
      <point x="-324" y="-799" type="qcurve"/>
      <point x="-305" y="-799" name="inserted"/>
      <point x="-269" y="-804"/>
      <point x="-252" y="-810" type="qcurve"/>
      <point x="-248" y="-794" name="inserted"/>
      <point x="-244" y="-732"/>
      <point x="-244" y="-687" type="qcurve"/>
      <point x="-244" y="-655" type="line"/>
      <point x="-146" y="-655" type="line"/>
      <point x="-146" y="-687" type="line"/>
      <point x="-146" y="-741" name="inserted"/>
      <point x="-154" y="-817"/>
      <point x="-162" y="-838" type="qcurve"/>
      <point x="-126" y="-856" name="inserted"/>
      <point x="-26" y="-902"/>
    </contour>
    <contour>
      <point x="37" y="-1237" type="line"/>
      <point x="-64" y="-1287" type="line"/>
      <point x="-301" y="-1073" type="line"/>
      <point x="-198" y="-1026" type="line"/>
    </contour>
  </outline>
</glyph>
<glyph name="u0A35_u0A4D" format="1">
  <advance width="0.0"/>
  <outline>
    <contour>
      <point x="-177" y="-408" type="line"/>
      <point x="-177" y="-339" type="line"/>
      <point x="-205" y="-339" type="line"/>
      <point x="-205" y="-408" type="line"/>
    </contour>
    <contour>
      <point x="-330" y="-469" type="line"/>
      <point x="-359" y="-469" type="line"/>
      <point x="-358" y="-481" type="line" smooth="yes"/>
      <point x="-357" y="-514"/>
      <point x="-284" y="-556"/>
      <point x="-215" y="-556" type="qcurve" smooth="yes"/>
      <point x="-163" y="-556" type="line"/>
      <point x="-163" y="-537" type="line"/>
      <point x="-221" y="-537" type="line" smooth="yes"/>
      <point x="-275" y="-537"/>
      <point x="-325" y="-509"/>
      <point x="-328" y="-482" type="qcurve" smooth="yes"/>
    </contour>
    <contour>
      <point x="-162" y="-485" type="line"/>
      <point x="-162" y="-466" type="line"/>
      <point x="-366" y="-466" type="line" smooth="yes"/>
      <point x="-413" y="-466"/>
      <point x="-450" y="-447"/>
      <point x="-450" y="-434" type="qcurve" smooth="yes"/>
      <point x="-450" y="-423"/>
      <point x="-420" y="-408"/>
      <point x="-385" y="-408" type="qcurve" smooth="yes"/>
      <point x="-184" y="-408" type="line"/>
      <point x="-184" y="-390" type="line"/>
      <point x="-385" y="-390" type="line" smooth="yes"/>
      <point x="-437" y="-390"/>
      <point x="-481" y="-415"/>
      <point x="-481" y="-434" type="qcurve" smooth="yes"/>
      <point x="-481" y="-456"/>
      <point x="-428" y="-485"/>
      <point x="-366" y="-485" type="qcurve" smooth="yes"/>
    </contour>
    <contour>
      <point x="120" y="0" type="move" name="_mark0"/>
    </contour>
  </outline>
</glyph>
<glyph name="u0A35_u0A4D_u0A41" format="1">
  <advance width="0.0"/>
  <outline>
    <contour>
      <point x="-144" y="-864" type="line"/>
      <point x="-274" y="-860" name="inserted"/>
      <point x="-403" y="-812"/>
      <point x="-403" y="-767" type="qcurve"/>
      <point x="-403" y="-751" type="line"/>
      <point x="-451" y="-740" name="inserted"/>
      <point x="-498" y="-697"/>
      <point x="-498" y="-665" type="qcurve"/>
      <point x="-498" y="-615" name="inserted"/>
      <point x="-416" y="-566"/>
      <point x="-333" y="-566" type="qcurve"/>
      <point x="-243" y="-566" type="line"/>
      <point x="-243" y="-536" type="line"/>
      <point x="-144" y="-536" type="line"/>
      <point x="-144" y="-628" type="line"/>
      <point x="-322" y="-628" type="line"/>
      <point x="-361" y="-628" name="inserted"/>
      <point x="-399" y="-645"/>
      <point x="-399" y="-661" type="qcurve"/>
      <point x="-399" y="-671" name="inserted"/>
      <point x="-386" y="-685"/>
      <point x="-374" y="-688" type="qcurve"/>
      <point x="-368" y="-689" name="inserted"/>
      <point x="-343" y="-690"/>
      <point x="-325" y="-690" type="qcurve"/>
      <point x="-144" y="-690" type="line"/>
      <point x="-144" y="-753" type="line"/>
      <point x="-290" y="-753" type="line"/>
      <point x="-290" y="-764" type="line"/>
      <point x="-290" y="-775" name="inserted"/>
      <point x="-265" y="-789"/>
      <point x="-240" y="-793" type="qcurve"/>
      <point x="-235" y="-794" name="inserted"/>
      <point x="-187" y="-797"/>
      <point x="-144" y="-800" type="qcurve"/>
    </contour>
    <contour>
      <point x="-198" y="-966" type="qcurve"/>
      <point x="-276" y="-1004" name="inserted"/>
      <point x="-460" y="-1042"/>
      <point x="-565" y="-1042" type="qcurve"/>
      <point x="-670" y="-1042" name="inserted"/>
      <point x="-853" y="-1004"/>
      <point x="-932" y="-966" type="qcurve"/>
      <point x="-914" y="-950" name="inserted"/>
      <point x="-875" y="-917"/>
      <point x="-855" y="-900" type="qcurve"/>
      <point x="-831" y="-911" name="inserted"/>
      <point x="-768" y="-931"/>
      <point x="-728" y="-940" type="qcurve"/>
      <point x="-683" y="-950" name="inserted"/>
      <point x="-602" y="-960"/>
      <point x="-565" y="-960" type="qcurve"/>
      <point x="-528" y="-960" name="inserted"/>
      <point x="-444" y="-949"/>
      <point x="-395" y="-937" type="qcurve"/>
      <point x="-354" y="-928" name="inserted"/>
      <point x="-294" y="-910"/>
      <point x="-274" y="-900" type="qcurve"/>
      <point x="-254" y="-917" name="inserted"/>
      <point x="-216" y="-950"/>
    </contour>
  </outline>
</glyph>
